{
.appVersion = "3337";
.formatVersion = 3;
DisplayStrings = (
"̨",
"◌"
);
axes = (
{
name = Weight;
tag = wght;
}
);
classes = (
{
automatic = 1;
code = "A Aacute Abreve Acaron Acircumflex Adieresis Agrave Amacron Aogonek Aring Atilde AE B C Cacute Ccaron Ccedilla Cdotaccent D Dcaron Dcroat Eth E Eacute Ecaron Ecircumflex Edieresis Edotaccent Egrave Emacron Eogonek Etilde Schwa F G Gbreve Gcommaaccent Gdotaccent Gmacron H Hbar I IJ Iacute Icircumflex Idieresis Idotaccent Igrave Imacron Iogonek Itilde J Jacute K Kcommaaccent L Lacute Lcaron Lcommaaccent Lslash M N Nacute Ncaron Ncommaaccent Ntilde O Oacute Ocircumflex Odieresis Ograve Ohungarumlaut Omacron Oslash Otilde OE P Thorn Q R Racute Rcaron Rcommaaccent S Sacute Scaron Scedilla Scommaaccent Germandbls T Tcaron Tcedilla Tcommaaccent U Uacute Ucircumflex Udieresis Ugrave Uhungarumlaut Umacron Uogonek Uring Utilde V W Wacute Wcircumflex Wdieresis Wgrave X Y Yacute Ycircumflex Ydieresis Ygrave Ytilde Z Zacute Zcaron Zdotaccent Saltillo Lcommaaccent.loclMAH Ncommaaccent.loclMAH A.salt B.salt D.salt H.salt I.salt";
name = Uppercase;
}
);
customParameters = (
{
name = "Name Table Entry";
value = "13; This Font Software is licensed under the SIL Open Font License, Version 1.1. This license is available with a FAQ at: https://openfontlicense.org";
},
{
name = fsType;
value = (
);
},
{
name = "Use Typo Metrics";
value = 1;
},
{
name = "Use Extension Kerning";
value = 1;
}
);
date = "2025-01-04 17:04:35 +0000";
familyName = "Winky Sans";
featurePrefixes = (
{
automatic = 1;
code = "languagesystem DFLT dflt;

languagesystem latn dflt;
languagesystem latn AZE;
languagesystem latn CRT;
languagesystem latn KAZ;
languagesystem latn TAT;
languagesystem latn TRK;
languagesystem latn ROM;
languagesystem latn MOL;
languagesystem latn MAH;
languagesystem latn NLD;
";
name = Languagesystems;
}
);
features = (
{
automatic = 1;
code = "feature salt;
feature locl;
feature sups;
feature ordn;
feature onum;
feature case;
";

glyphs = (
{
glyphname = A;
kernLeft = KO_A;
kernRight = KO_A;
lastChange = "2025-01-03 22:26:37 +0000";
layers = (
{
anchors = (
{
name = bottom;
pos = (203,0);
},
{
name = ogonek;
pos = (425,10);
},
{
name = top;
pos = (336,625);
}
);
hints = (
{
horizontal = 1;
place = (0,21);
target = up;
type = BottomGhost;
},
{
horizontal = 1;
place = (150,75);
type = Stem;
},
{
horizontal = 1;
place = (557,110);
type = Stem;
},
{
place = (-60,516);
type = Stem;
}
);
layerId = m005;
shapes = (
{
closed = 1;
nodes = (
(38,0,o),
(61,16,o),
(74,48,cs),
(85,77,o),
(98,106,o),
(110,134,cs),
(112,140,o),
(116,143,o),
(122,143,cs),
(197,146,o),
(271,147,o),
(344,147,cs),
(350,147,o),
(354,144,o),
(353,138,cs),
(354,113,o),
(354,87,o),
(353,62,cs),
(353,21,o),
(368,0,o),
(406,0,cs),
(440,0,o),
(461,22,o),
(460,59,cs),
(454,243,o),
(435,451,o),
(403,633,cs),
(398,663,o),
(380,677,o),
(348,677,cs),
(314,677,o),
(290,663,o),
(273,633,cs),
(197,508,o),
(123,370,o),
(55,235,cs),
(53,230,o),
(48,227,o),
(42,227,cs),
(15,227,ls),
(-10,227,o),
(-27,213,o),
(-32,188,cs),
(-32,186,ls),
(-38,161,o),
(-29,135,o),
(-4,137,cs),
(-2,137,o),
(0,137,o),
(2,138,cs),
(6,138,o),
(6,133,o),
(3,126,cs),
(-8,103,o),
(-19,81,o),
(-28,59,cs),
(-45,22,o),
(-32,0,o),
(5,0,cs)
);
},
{
closed = 1;
nodes = (
(154,227,o),
(152,231,o),
(156,238,cs),
(206,354,o),
(261,463,o),
(313,550,cs),
(319,558,o),
(325,558,o),
(327,550,cs),
(341,464,o),
(349,359,o),
(352,246,cs),
(353,238,o),
(349,233,o),
(341,232,cs),
(282,229,o),
(222,228,o),
(161,227,cs)
);
}
);
width = 550;
},
{
anchors = (
{
name = bottom;
pos = (254,0);
},
{
name = ogonek;
pos = (476,10);
},
{
name = top;
pos = (387,625);
}
);
hints = (
{
horizontal = 1;
place = (0,21);
target = up;
type = BottomGhost;
},
{
horizontal = 1;
place = (150,75);
type = Stem;
},
{
horizontal = 1;
place = (557,110);
type = Stem;
},
{
place = (-59,516);
type = Stem;
}
);
layerId = m002;
shapes = (
{
closed = 1;
nodes = (
(108,-25,o),
(161,8,o),
(178,64,cs),
(181,75,o),
(179,70,o),
(181,75,cs),
(187,90,o),
(202,93,o),
(214,93,cs),
(289,96,o),
(272,97,o),
(345,97,cs),
(355,97,o),
(358,91,o),
(359,84,cs),
(359,76,o),
(359,77,o),
(359,77,cs),
(351,13,o),
(393,-25,o),
(452,-25,cs),
(518,-25,o),
(569,27,o),
(568,96,cs),
(561,281,o),
(529,432,o),
(497,616,cs),
(488,665,o),
(455,692,o),
(402,692,cs),
(347,692,o),
(302,665,o),
(273,616,cs),
(197,489,o),
(161,440,o),
(92,304,cs),
(83,287,o),
(75,277,o),
(64,277,cs),
(54,277,ls),
(29,277,o),
(-20,241,o),
(-31,188,cs),
(-31,186,ls),
(-43,132,o),
(-27,134,o),
(-19,116,cs),
(-18,113,o),
(-15,111,o),
(-15,108,cs),
(-15,105,o),
(-15,105,o),
(-15,101,cs),
(-15,101,o),
(-19,95,o),
(-19,95,cs),
(-55,29,o),
(-18,-25,o),
(51,-25,cs)
);
},
{
closed = 1;
nodes = (
(282,277,o),
(284,293,o),
(291,310,cs),
(302,338,o),
(309,351,o),
(327,379,cs),
(334,390,o),
(340,384,o),
(341,379,cs),
(345,356,o),
(344,334,o),
(346,307,cs),
(347,296,o),
(341,283,o),
(324,279,cs),
(312,276,o),
(305,277,o),
(293,277,cs)
);
}
);
width = 622;
},
{
anchors = (
{
name = bottom;
pos = (203,0);
},
{
name = ogonek;
pos = (425,10);
},
{
name = top;
pos = (336,625);
}
);
hints = (
{
horizontal = 1;
place = (0,21);
target = up;
type = BottomGhost;
},
{
horizontal = 1;
place = (150,75);
type = Stem;
},
{
horizontal = 1;
place = (557,110);
type = Stem;
},
{
place = (-60,516);
type = Stem;
}
);
layerId = m003;
shapes = (
{
closed = 1;
nodes = (
(34,0,o),
(52,11,o),
(63,40,cs),
(78,76,o),
(91,111,o),
(107,147,cs),
(108,151,o),
(111,153,o),
(115,153,cs),
(197,157,o),
(277,157,o),
(357,157,cs),
(361,157,o),
(363,156,o),
(362,151,cs),
(363,119,o),
(362,86,o),
(362,54,cs),
(361,16,o),
(372,0,o),
(406,0,cs),
(435,0,o),
(448,14,o),
(447,47,cs),
(441,230,o),
(427,455,o),
(395,636,cs),
(390,663,o),
(377,674,o),
(348,674,cs),
(317,674,o),
(298,663,o),
(283,636,cs),
(207,510,o),
(129,362,o),
(63,223,cs),
(61,219,o),
(57,217,o),
(53,217,cs),
(13,217,ls),
(-8,217,o),
(-17,209,o),
(-22,188,cs),
(-22,186,ls),
(-27,164,o),
(-21,145,o),
(-2,147,cs),
(5,148,o),
(12,148,o),
(19,148,cs),
(24,149,o),
(25,146,o),
(23,141,cs),
(9,109,o),
(-7,77,o),
(-21,47,cs),
(-36,14,o),
(-27,0,o),
(5,0,cs)
);
},
{
closed = 1;
nodes = (
(139,217,o),
(138,220,o),
(140,225,cs),
(200,362,o),
(265,493,o),
(324,590,cs),
(328,595,o),
(332,595,o),
(334,589,cs),
(351,495,o),
(358,367,o),
(362,233,cs),
(362,227,o),
(359,223,o),
(354,223,cs),
(285,219,o),
(214,218,o),
(144,217,cs)
);
}
);
width = 550;
}
);
note = A;
unicode = 65;
userData = {
KernOnName = A;
};
},
{
glyphname = AE;
kernRight = KO_E;
lastChange = "2025-01-04 00:23:46 +0000";
layers = (
{
anchors = (
{
name = bottom;
pos = (320,0);
},
{
name = top;
pos = (462,667);
}
);
hints = (
{
horizontal = 1;
place = (0,75);
type = Stem;
},
{
horizontal = 1;
place = (150,75);
type = Stem;
},
{
horizontal = 1;
place = (305,74);
type = Stem;
},
{
horizontal = 1;
place = (592,75);
type = Stem;
},
{
place = (318,100);
type = Stem;
},
{
horizontal = 1;
place = (0,75);
type = Stem;
},
{
horizontal = 1;
place = (305,74);
type = Stem;
},
{
horizontal = 1;
place = (592,75);
type = Stem;
},
{
place = (298,100);
type = Stem;
}
);
layerId = m005;
shapes = (
{
closed = 1;
nodes = (
(-27,0,ls),
(-2,0,o),
(16,11,o),
(31,34,cs),
(53,69,o),
(75,104,o),
(99,139,cs),
(102,145,o),
(106,147,o),
(111,147,cs),
(307,147,ls),
(313,147,o),
(317,143,o),
(314,137,cs),
(304,104,o),
(295,72,o),
(285,39,cs),
(277,14,o),
(301,0,o),
(326,0,cs),
(648,0,ls),
(673,0,o),
(690,14,o),
(695,39,cs),
(701,66,o),
(693,93,o),
(667,90,cs),
(582,81,o),
(498,80,o),
(414,80,cs),
(401,80,o),
(397,87,o),
(400,100,cs),
(420,159,o),
(432,213,o),
(445,272,cs),
(447,284,o),
(455,291,o),
(467,292,cs),
(533,300,o),
(598,300,o),
(662,300,cs),
(687,300,o),
(704,314,o),
(709,339,cs),
(715,366,o),
(707,394,o),
(681,390,cs),
(616,380,o),
(552,380,o),
(486,373,cs),
(473,371,o),
(467,377,o),
(470,390,cs),
(482,447,o),
(495,510,o),
(501,567,cs),
(501,580,o),
(509,587,o),
(522,587,cs),
(602,587,o),
(690,586,o),
(766,577,cs),
(790,574,o),
(810,601,o),
(815,626,cs),
(821,653,o),
(810,667,o),
(785,667,cs),
(439,667,ls),
(415,667,o),
(396,658,o),
(380,637,cs),
(219,442,o),
(73,246,o),
(-56,51,cs),
(-76,21,o),
(-67,0,o),
(-34,0,cs)
);
},
{
closed = 1;
nodes = (
(162,227,o),
(159,232,o),
(165,239,cs),
(233,337,o),
(305,434,o),
(385,532,cs),
(392,541,o),
(400,540,o),
(399,531,cs),
(384,433,o),
(365,335,o),
(340,237,cs),
(339,230,o),
(334,227,o),
(328,227,cs),
(169,227,ls)
);
}
);
width = 774;
},
{
anchors = (
{
name = bottom;
pos = (395,0);
},
{
name = top;
pos = (537,667);
}
);
hints = (
{
horizontal = 1;
place = (0,75);
type = Stem;
},
{
horizontal = 1;
place = (150,75);
type = Stem;
},
{
horizontal = 1;
place = (305,74);
type = Stem;
},
{
horizontal = 1;
place = (592,75);
type = Stem;
},
{
place = (318,100);
type = Stem;
},
{
horizontal = 1;
place = (0,75);
type = Stem;
},
{
horizontal = 1;
place = (305,74);
type = Stem;
},
{
horizontal = 1;
place = (592,75);
type = Stem;
},
{
place = (333,100);
type = Stem;
}
);
layerId = m002;
shapes = (
{
closed = 1;
nodes = (
(19,-25,ls),
(64,-25,o),
(103,-2,o),
(130,40,cs),
(145,65,o),
(160,89,o),
(175,114,cs),
(179,120,o),
(183,122,o),
(188,122,cs),
(358,122,ls),
(364,122,o),
(368,118,o),
(366,112,cs),
(362,98,o),
(357,84,o),
(353,70,cs),
(335,14,o),
(376,-25,o),
(432,-25,cs),
(754,-25,ls),
(807,-25,o),
(850,11,o),
(862,64,cs),
(874,122,o),
(845,171,o),
(788,165,cs),
(706,156,o),
(674,155,o),
(591,155,cs),
(578,155,o),
(572,155,o),
(576,170,cs),
(582,193,o),
(588,211,o),
(592,222,cs),
(597,235,o),
(608,240,o),
(623,242,cs),
(654,246,o),
(698,250,o),
(762,250,cs),
(815,250,o),
(859,286,o),
(870,339,cs),
(883,398,o),
(853,448,o),
(794,439,cs),
(734,430,o),
(699,427,o),
(651,423,cs),
(642,422,o),
(632,427,o),
(636,445,cs),
(639,459,o),
(642,474,o),
(645,488,cs),
(648,502,o),
(654,512,o),
(667,512,cs),
(747,512,o),
(782,511,o),
(855,502,cs),
(910,496,o),
(959,545,o),
(971,601,cs),
(983,656,o),
(954,692,o),
(901,692,cs),
(495,692,ls),
(453,692,o),
(416,674,o),
(388,638,cs),
(226,441,o),
(89,293,o),
(-40,97,cs),
(-84,34,o),
(-58,-25,o),
(12,-25,cs)
);
},
{
closed = 1;
nodes = (
(308,302,o),
(306,307,o),
(311,314,cs),
(350,365,o),
(390,416,o),
(435,467,cs),
(442,476,o),
(450,474,o),
(448,465,cs),
(440,412,o),
(431,363,o),
(419,312,cs),
(418,305,o),
(413,302,o),
(407,302,cs),
(315,302,ls)
);
}
);
width = 923;
},
{
anchors = (
{
name = bottom;
pos = (329,0);
},
{
name = top;
pos = (470,667);
}
);
hints = (
{
horizontal = 1;
place = (0,75);
type = Stem;
},
{
horizontal = 1;
place = (150,75);
type = Stem;
},
{
horizontal = 1;
place = (305,74);
type = Stem;
},
{
horizontal = 1;
place = (592,75);
type = Stem;
},
{
place = (319,100);
type = Stem;
},
{
horizontal = 1;
place = (0,75);
type = Stem;
},
{
horizontal = 1;
place = (305,74);
type = Stem;
},
{
horizontal = 1;
place = (592,75);
type = Stem;
},
{
place = (315,100);
type = Stem;
}
);
layerId = m003;
shapes = (
{
closed = 1;
nodes = (
(-21,-4,ls),
(3,-4,o),
(20,6,o),
(33,28,cs),
(58,67,o),
(83,106,o),
(107,145,cs),
(109,148,o),
(112,150,o),
(116,150,cs),
(344,150,ls),
(348,150,o),
(351,147,o),
(349,143,cs),
(339,104,o),
(328,66,o),
(315,28,cs),
(310,10,o),
(326,0,o),
(349,0,cs),
(671,0,ls),
(692,0,o),
(701,8,o),
(706,29,cs),
(711,54,o),
(705,72,o),
(686,70,cs),
(602,61,o),
(506,60,o),
(422,60,cs),
(403,60,o),
(404,62,o),
(409,81,cs),
(428,140,o),
(447,223,o),
(459,282,cs),
(463,299,o),
(464,301,o),
(481,302,cs),
(546,310,o),
(622,310,o),
(686,310,cs),
(707,310,o),
(717,318,o),
(722,339,cs),
(727,364,o),
(721,383,o),
(703,380,cs),
(637,370,o),
(563,370,o),
(498,363,cs),
(478,360,o),
(476,361,o),
(480,380,cs),
(492,437,o),
(511,529,o),
(517,586,cs),
(518,605,o),
(520,607,o),
(539,607,cs),
(619,607,o),
(717,606,o),
(793,597,cs),
(811,595,o),
(825,613,o),
(830,636,cs),
(835,659,o),
(828,667,o),
(807,667,cs),
(445,667,ls),
(422,667,o),
(405,659,o),
(389,638,c),
(229,444,o),
(81,238,o),
(-48,43,cs),
(-67,15,o),
(-59,-4,o),
(-28,-4,cs)
);
},
{
closed = 1;
nodes = (
(163,224,o),
(162,227,o),
(165,232,cs),
(243,349,o),
(327,461,o),
(430,584,cs),
(434,589,o),
(440,588,o),
(438,582,cs),
(423,468,o),
(401,348,o),
(372,231,cs),
(371,226,o),
(367,224,o),
(363,224,cs),
(168,224,ls)
);
}
);
width = 792;
}
);
metricLeft = "=A";
metricRight = "=E";
note = AE;
unicode = 198;
},
{
glyphname = B;
kernLeft = KO_B;
kernRight = KO_B;
lastChange = "2025-01-04 00:23:34 +0000";
layers = (
{
hints = (
{
horizontal = 1;
place = (0,21);
target = up;
type = BottomGhost;
},
{
horizontal = 1;
place = (282,67);
type = Stem;
},
{
horizontal = 1;
place = (598,69);
type = Stem;
},
{
place = (-2,100);
type = Stem;
},
{
place = (334,99);
type = Stem;
}
);
layerId = m005;
shapes = (
{
closed = 1;
nodes = (
(210,0,ls),
(374,0,o),
(489,68,o),
(505,190,cs),
(514,257,o),
(497,307,o),
(442,336,cs),
(436,340,o),
(437,344,o),
(445,348,cs),
(503,376,o),
(540,422,o),
(553,484,cs),
(578,602,o),
(508,675,o),
(354,677,cs),
(289,678,o),
(186,673,o),
(146,667,cs),
(114,662,o),
(86,639,o),
(84,608,cs),
(82,569,o),
(131,585,o),
(130,576,cs),
(124,486,o),
(61,220,o),
(15,49,cs),
(7,18,o),
(33,0,o),
(64,0,cs)
);
},
{
closed = 1;
nodes = (
(138,90,o),
(135,94,o),
(136,100,cs),
(177,290,ls),
(178,296,o),
(183,300,o),
(189,300,cs),
(275,300,ls),
(380,300,o),
(422,265,o),
(406,190,cs),
(390,115,o),
(335,90,o),
(230,90,cs),
(144,90,ls)
);
},
{
closed = 1;
nodes = (
(201,380,o),
(197,383,o),
(199,390,cs),
(212,452,o),
(216,513,o),
(229,576,cs),
(231,583,o),
(236,587,o),
(242,587,cs),
(336,587,ls),
(431,587,o),
(469,554,o),
(454,484,cs),
(439,413,o),
(387,380,o),
(292,380,cs),
(207,380,ls)
);
}
);
width = 535;
},
{
hints = (
{
horizontal = 1;
place = (0,21);
target = up;
type = BottomGhost;
},
{
horizontal = 1;
place = (282,67);
type = Stem;
},
{
horizontal = 1;
place = (598,69);
type = Stem;
},
{
place = (-1,100);
type = Stem;
},
{
place = (335,99);
type = Stem;
}
);
layerId = m002;
shapes = (
{
closed = 1;
nodes = (
(257,-15,ls),
(444,-15,o),
(593,72,o),
(614,229,cs),
(619,269,o),
(613,290,o),
(599,310,cs),
(583,335,o),
(588,355,o),
(612,381,cs),
(629,398,o),
(639,416,o),
(646,449,cs),
(677,598,o),
(582,682,o),
(405,682,cs),
(315,682,o),
(220,678,o),
(165,667,cs),
(102,655,o),
(79,612,o),
(78,578,cs),
(76,507,o),
(124,534,o),
(119,508,cs),
(100,401,o),
(60,224,o),
(24,87,cs),
(7,26,o),
(52,-15,o),
(111,-15,cs)
);
},
{
closed = 1;
nodes = (
(286,157,o),
(249,158,o),
(256,193,cs),
(261,218,ls),
(268,250,o),
(289,269,o),
(318,268,cs),
(359,266,ls),
(405,264,o),
(418,244,o),
(411,213,cs),
(404,179,o),
(368,160,o),
(345,159,cs),
(309,158,ls)
);
},
{
closed = 1;
nodes = (
(320,412,o),
(300,417,o),
(308,449,cs),
(310,461,o),
(310,455,o),
(315,480,cs),
(319,500,o),
(321,519,o),
(357,519,cs),
(396,519,ls),
(425,519,o),
(459,509,o),
(450,466,cs),
(444,435,o),
(416,412,o),
(372,412,cs),
(349,412,ls)
);
}
);
width = 630;
},
{
hints = (
{
horizontal = 1;
place = (0,21);
target = up;
type = BottomGhost;
},
{
horizontal = 1;
place = (282,67);
type = Stem;
},
{
horizontal = 1;
place = (598,69);
type = Stem;
},
{
place = (-2,100);
type = Stem;
},
{
place = (334,99);
type = Stem;
}
);
layerId = m003;
shapes = (
{
closed = 1;
nodes = (
(184,0,ls),
(345,0,o),
(453,63,o),
(470,189,cs),
(478,254,o),
(464,304,o),
(411,332,cs),
(399,340,o),
(399,344,o),
(415,352,cs),
(471,378,o),
(505,425,o),
(517,484,cs),
(543,604,o),
(477,672,o),
(328,674,cs),
(263,675,o),
(161,670,o),
(121,664,cs),
(93,660,o),
(72,643,o),
(71,617,cs),
(67,574,o),
(119,609,o),
(116,584,cs),
(110,494,o),
(43,210,o),
(-3,38,cs),
(-10,13,o),
(10,0,o),
(38,0,cs)
);
},
{
closed = 1;
nodes = (
(102,70,o),
(96,78,o),
(98,90,cs),
(141,290,ls),
(144,302,o),
(153,310,o),
(165,310,cs),
(251,310,ls),
(361,310,o),
(408,272,o),
(391,190,cs),
(371,98,o),
(309,70,o),
(200,70,cs),
(114,70,ls)
);
},
{
closed = 1;
nodes = (
(167,370,o),
(160,377,o),
(163,390,cs),
(176,451,o),
(182,519,o),
(195,583,cs),
(198,596,o),
(208,604,o),
(220,604,cs),
(314,604,ls),
(414,604,o),
(456,567,o),
(438,484,cs),
(422,407,o),
(364,370,o),
(264,370,cs),
(179,370,ls)
);
}
);
width = 503;
}
);
metricLeft = "=H";
metricRight = "=H/4";
note = P;
unicode = 66;
userData = {
KernOnName = B;
};
},
{
glyphname = C;
kernLeft = KO_O;
kernRight = KO_C;
lastChange = "2025-01-04 00:23:34 +0000";
layers = (
{
anchors = (
{
name = bottom;
pos = (209,0);
},
{
name = top;
pos = (342,625);
}
);
hints = (
{
horizontal = 1;
place = (-10,85);
type = Stem;
},
{
horizontal = 1;
place = (597,80);
type = Stem;
},
{
place = (-36,110);
type = Stem;
}
);
layerId = m005;
shapes = (
{
closed = 1;
nodes = (
(254,-10,o),
(306,-1,o),
(355,17,cs),
(380,26,o),
(398,45,o),
(391,69,cs),
(381,100,o),
(363,114,o),
(340,107,cs),
(305,96,o),
(264,80,o),
(226,80,cs),
(131,80,o),
(103,159,o),
(132,295,cs),
(143,347,ls),
(172,483,o),
(241,597,o),
(336,597,cs),
(363,597,o),
(383,582,o),
(399,571,cs),
(419,559,o),
(447,565,o),
(469,583,cs),
(496,605,o),
(492,627,o),
(473,643,cs),
(443,666,o),
(403,677,o),
(353,677,cs),
(199,677,o),
(81,527,o),
(43,347,cs),
(32,295,ls),
(-6,115,o),
(53,-10,o),
(207,-10,cs)
);
}
);
width = 449;
},
{
anchors = (
{
name = bottom;
pos = (209,0);
},
{
name = top;
pos = (342,625);
}
);
hints = (
{
horizontal = 1;
place = (-10,85);
type = Stem;
},
{
horizontal = 1;
place = (597,80);
type = Stem;
},
{
place = (-36,110);
type = Stem;
}
);
layerId = m002;
shapes = (
{
closed = 1;
nodes = (
(256,-25,o),
(316,-15,o),
(370,6,cs),
(427,26,o),
(459,75,o),
(448,127,cs),
(435,185,o),
(389,204,o),
(342,190,cs),
(304,178,o),
(272,165,o),
(244,165,cs),
(178,165,o),
(163,207,o),
(182,295,cs),
(193,347,ls),
(212,438,o),
(257,512,o),
(318,512,cs),
(330,512,o),
(340,504,o),
(358,492,cs),
(395,469,o),
(448,479,o),
(489,513,cs),
(541,556,o),
(547,614,o),
(502,649,cs),
(464,678,o),
(415,692,o),
(356,692,cs),
(167,692,o),
(28,511,o),
(-7,347,cs),
(-18,295,ls),
(-54,128,o),
(17,-25,o),
(204,-25,cs)
);
}
);
width = 485;
},
{
anchors = (
{
name = bottom;
pos = (209,0);
},
{
name = top;
pos = (342,625);
}
);
hints = (
{
horizontal = 1;
place = (-10,85);
type = Stem;
},
{
horizontal = 1;
place = (597,80);
type = Stem;
},
{
place = (-36,110);
type = Stem;
}
);
layerId = m003;
shapes = (
{
closed = 1;
nodes = (
(255,0,o),
(305,9,o),
(353,26,cs),
(375,34,o),
(386,46,o),
(381,64,cs),
(372,93,o),
(359,103,o),
(341,97,cs),
(307,87,o),
(264,70,o),
(224,70,cs),
(122,70,o),
(92,155,o),
(122,295,cs),
(133,347,ls),
(162,486,o),
(235,607,o),
(338,607,cs),
(368,607,o),
(390,591,o),
(406,580,cs),
(422,570,o),
(444,574,o),
(464,590,cs),
(484,608,o),
(483,621,o),
(465,635,cs),
(437,657,o),
(400,667,o),
(351,667,cs),
(203,667,o),
(90,524,o),
(53,347,cs),
(42,295,ls),
(4,118,o),
(60,0,o),
(209,0,cs)
);
}
);
width = 441;
}
);
metricLeft = "=O";
metricRight = "=O/4";
note = C;
unicode = 67;
userData = {
KernOnName = C;
};
},
{
glyphname = D;
kernLeft = KO_B;
kernRight = KO_D;
lastChange = "2025-01-04 00:23:34 +0000";
layers = (
{
anchors = (
{
name = bottom;
pos = (224,0);
},
{
name = center;
pos = (147,334);
},
{
name = top;
pos = (357,625);
}
);
hints = (
{
horizontal = 1;
place = (-10,80);
type = Stem;
},
{
horizontal = 1;
place = (597,80);
type = Stem;
},
{
place = (-37,110);
type = Stem;
},
{
place = (353,110);
type = Stem;
}
);
layerId = m005;
shapes = (
{
closed = 1;
nodes = (
(213,0,ls),
(367,0,o),
(505,126,o),
(552,347,cs),
(599,571,o),
(536,677,o),
(382,677,cs),
(272,677,o),
(195,673,o),
(154,667,cs),
(122,662,o),
(84,649,o),
(85,610,cs),
(85,574,o),
(129,589,o),
(127,574,cs),
(98,399,o),
(60,224,o),
(13,49,cs),
(5,18,o),
(31,0,o),
(62,0,cs)
);
},
{
closed = 1;
nodes = (
(169,262,o),
(200,409,o),
(226,572,cs),
(226,578,o),
(231,582,o),
(237,582,cs),
(362,582,ls),
(457,582,o),
(490,526,o),
(452,347,cs),
(414,171,o),
(327,90,o),
(232,90,cs),
(132,90,ls),
(126,90,o),
(123,94,o),
(125,100,cs)
);
}
);
width = 589;
},
{
anchors = (
{
name = bottom;
pos = (250,0);
},
{
name = center;
pos = (160,334);
},
{
name = top;
pos = (383,625);
}
);
hints = (
{
horizontal = 1;
place = (-10,80);
type = Stem;
},
{
horizontal = 1;
place = (597,80);
type = Stem;
},
{
place = (-36,110);
type = Stem;
},
{
place = (354,110);
type = Stem;
}
);
layerId = m002;
shapes = (
{
closed = 1;
nodes = (
(260,-25,ls),
(443,-25,o),
(606,124,o),
(654,347,cs),
(702,573,o),
(620,692,o),
(437,692,cs),
(309,692,o),
(256,688,o),
(208,677,cs),
(146,663,o),
(80,639,o),
(78,580,cs),
(77,522,o),
(121,540,o),
(115,503,cs),
(90,347,o),
(66,242,o),
(21,77,cs),
(5,16,o),
(50,-25,o),
(109,-25,cs)
);
},
{
closed = 1;
nodes = (
(267,275,o),
(287,380,o),
(293,408,cs),
(305,464,o),
(304,507,o),
(343,507,cs),
(398,507,ls),
(468,507,o),
(482,480,o),
(454,347,cs),
(426,215,o),
(372,165,o),
(300,165,cs),
(255,165,ls),
(242,165,o),
(237,175,o),
(241,188,cs)
);
}
);
width = 641;
},
{
anchors = (
{
name = bottom;
pos = (210,0);
},
{
name = center;
pos = (140,334);
},
{
name = top;
pos = (343,625);
}
);
hints = (
{
horizontal = 1;
place = (-10,80);
type = Stem;
},
{
horizontal = 1;
place = (597,80);
type = Stem;
},
{
place = (-37,110);
type = Stem;
},
{
place = (353,110);
type = Stem;
}
);
layerId = m003;
shapes = (
{
closed = 1;
nodes = (
(187,0,ls),
(337,0,o),
(468,120,o),
(516,347,cs),
(564,574,o),
(505,674,o),
(356,674,cs),
(246,674,o),
(170,670,o),
(130,664,cs),
(98,659,o),
(71,650,o),
(71,619,cs),
(71,583,o),
(117,609,o),
(113,582,cs),
(84,406,o),
(42,214,o),
(-5,38,cs),
(-12,13,o),
(8,0,o),
(36,0,cs)
);
},
{
closed = 1;
nodes = (
(131,252,o),
(166,416,o),
(191,578,c),
(192,590,o),
(198,599,o),
(210,599,cs),
(340,599,ls),
(441,599,o),
(477,539,o),
(436,347,cs),
(395,154,o),
(302,70,o),
(202,70,cs),
(97,70,ls),
(85,70,o),
(83,79,o),
(88,91,c)
);
}
);
width = 563;
}
);
metricLeft = "=H";
metricRight = "=O";
note = O;
unicode = 68;
},
{
glyphname = Eth;
kernLeft = KO_Eth;
kernRight = KO_D;
lastChange = "2025-01-04 00:23:34 +0000";
layers = (
{
hints = (
{
horizontal = 1;
place = (-10,80);
type = Stem;
},
{
horizontal = 1;
place = (597,80);
type = Stem;
},
{
place = (35,110);
type = Stem;
},
{
place = (425,110);
type = Stem;
}
);
layerId = m005;
shapes = (
{
pos = (-42,0);
ref = D;
},
{
closed = 1;
nodes = (
(-34,339,ls),
(-40,314,o),
(-31,286,o),
(-6,290,cs),
(65,300,o),
(137,310,o),
(203,300,cs),
(228,296,o),
(255,314,o),
(261,339,cs),
(261,341,ls),
(267,366,o),
(248,394,o),
(223,390,cs),
(152,380,o),
(83,380,o),
(14,380,cs),
(-11,380,o),
(-28,366,o),
(-34,341,cs)
);
}
);
width = 547;
},
{
hints = (
{
horizontal = 1;
place = (-10,80);
type = Stem;
},
{
horizontal = 1;
place = (597,80);
type = Stem;
},
{
place = (35,110);
type = Stem;
},
{
place = (425,110);
type = Stem;
}
);
layerId = m002;
shapes = (
{
pos = (-28,0);
ref = D;
},
{
closed = 1;
nodes = (
(-34,339,ls),
(-46,282,o),
(-17,232,o),
(42,241,cs),
(108,250,o),
(173,260,o),
(235,251,cs),
(289,242,o),
(349,283,o),
(361,339,cs),
(361,341,ls),
(373,397,o),
(333,448,o),
(275,439,cs),
(208,430,o),
(143,430,o),
(74,430,cs),
(21,430,o),
(-23,394,o),
(-34,341,cs)
);
}
);
width = 613;
},
{
hints = (
{
horizontal = 1;
place = (-10,80);
type = Stem;
},
{
horizontal = 1;
place = (597,80);
type = Stem;
},
{
place = (35,110);
type = Stem;
},
{
place = (425,110);
type = Stem;
}
);
layerId = m003;
shapes = (
{
pos = (-60,0);
ref = D;
},
{
closed = 1;
nodes = (
(-36,339,ls),
(-41,315,o),
(-34,289,o),
(-10,293,cs),
(61,303,o),
(132,313,o),
(199,303,cs),
(221,299,o),
(248,316,o),
(253,339,cs),
(253,341,ls),
(258,364,o),
(241,391,o),
(217,387,cs),
(146,377,o),
(77,377,o),
(8,377,cs),
(-15,377,o),
(-31,364,o),
(-36,341,cs)
);
}
);
width = 503;
}
);
metricLeft = "=H-60";
metricRight = "=O";
note = O;
unicode = 208;
},
{
glyphname = E;
kernLeft = KO_E;
kernRight = KO_E;
lastChange = "2025-01-04 00:23:34 +0000";
layers = (
{
anchors = (
{
name = bottom;
pos = (209,0);
},
{
name = ogonek;
pos = (407,10);
},
{
name = top;
pos = (342,625);
},
{
name = topleft;
pos = (126,667);
}
);
hints = (
{
horizontal = 1;
place = (0,75);
type = Stem;
},
{
horizontal = 1;
place = (305,74);
type = Stem;
},
{
horizontal = 1;
place = (592,75);
type = Stem;
},
{
place = (-1,100);
type = Stem;
}
);
layerId = m005;
shapes = (
{
closed = 1;
nodes = (
(558,653,o),
(547,667,o),
(522,667,cs),
(205,667,ls),
(180,667,o),
(150,653,o),
(148,628,cs),
(126,432,o),
(84,235,o),
(22,39,cs),
(14,14,o),
(38,0,o),
(63,0,cs),
(385,0,ls),
(410,0,o),
(427,14,o),
(432,39,cs),
(438,66,o),
(430,93,o),
(404,90,cs),
(319,81,o),
(235,80,o),
(151,80,cs),
(138,80,o),
(134,87,o),
(137,100,cs),
(157,159,o),
(169,213,o),
(182,272,cs),
(184,284,o),
(192,291,o),
(204,292,cs),
(270,300,o),
(335,300,o),
(399,300,cs),
(424,300,o),
(441,314,o),
(446,339,cs),
(452,366,o),
(444,394,o),
(418,390,cs),
(353,380,o),
(289,380,o),
(223,373,cs),
(210,371,o),
(204,377,o),
(207,390,cs),
(219,447,o),
(232,510,o),
(238,567,cs),
(238,580,o),
(246,587,o),
(259,587,cs),
(339,587,o),
(427,586,o),
(503,577,cs),
(527,574,o),
(547,601,o),
(552,626,cs)
);
}
);
width = 511;
},
{
anchors = (
{
name = bottom;
pos = (234,0);
},
{
name = ogonek;
pos = (432,10);
},
{
name = top;
pos = (367,625);
},
{
name = topleft;
pos = (151,667);
}
);
hints = (
{
horizontal = 1;
place = (0,75);
type = Stem;
},
{
horizontal = 1;
place = (305,74);
type = Stem;
},
{
horizontal = 1;
place = (592,75);
type = Stem;
},
{
place = (-1,100);
type = Stem;
}
);
layerId = m002;
shapes = (
{
closed = 1;
nodes = (
(634,656,o),
(605,692,o),
(552,692,cs),
(235,692,ls),
(179,692,o),
(122,653,o),
(116,597,cs),
(95,404,o),
(65,263,o),
(4,70,cs),
(-14,14,o),
(27,-25,o),
(83,-25,cs),
(405,-25,ls),
(458,-25,o),
(501,11,o),
(513,64,cs),
(525,122,o),
(496,171,o),
(439,165,cs),
(357,156,o),
(330,155,o),
(247,155,cs),
(234,155,o),
(223,156,o),
(227,170,cs),
(234,193,o),
(239,211,o),
(243,222,cs),
(248,235,o),
(259,240,o),
(274,242,cs),
(305,246,o),
(349,250,o),
(413,250,cs),
(466,250,o),
(510,286,o),
(521,339,cs),
(534,398,o),
(504,448,o),
(445,439,cs),
(385,430,o),
(350,427,o),
(302,423,cs),
(293,422,o),
(283,427,o),
(287,445,cs),
(288,453,o),
(292,468,o),
(296,488,cs),
(299,502,o),
(305,512,o),
(318,512,cs),
(398,512,o),
(433,511,o),
(506,502,cs),
(561,496,o),
(610,545,o),
(622,601,cs)
);
}
);
width = 574;
},
{
anchors = (
{
name = bottom;
pos = (209,0);
},
{
name = ogonek;
pos = (407,10);
},
{
name = top;
pos = (342,625);
},
{
name = topleft;
pos = (126,667);
}
);
hints = (
{
horizontal = 1;
place = (0,75);
type = Stem;
},
{
horizontal = 1;
place = (305,74);
type = Stem;
},
{
horizontal = 1;
place = (592,75);
type = Stem;
},
{
place = (-1,100);
type = Stem;
}
);
layerId = m003;
shapes = (
{
closed = 1;
nodes = (
(549,659,o),
(543,667,o),
(522,667,cs),
(205,667,ls),
(182,667,o),
(162,657,o),
(160,639,cs),
(138,443,o),
(92,224,o),
(30,28,cs),
(24,10,o),
(40,0,o),
(63,0,cs),
(385,0,ls),
(406,0,o),
(416,8,o),
(420,29,cs),
(426,54,o),
(419,72,o),
(401,70,cs),
(316,61,o),
(231,60,o),
(147,60,cs),
(128,60,o),
(120,72,o),
(125,91,cs),
(145,150,o),
(159,213,o),
(172,272,cs),
(176,289,o),
(188,301,o),
(205,302,cs),
(271,310,o),
(337,310,o),
(401,310,cs),
(422,310,o),
(432,318,o),
(436,339,cs),
(441,364,o),
(436,383,o),
(418,380,cs),
(352,370,o),
(288,370,o),
(222,363,cs),
(203,360,o),
(193,371,o),
(197,390,cs),
(209,447,o),
(223,519,o),
(230,576,cs),
(231,595,o),
(244,607,o),
(263,607,cs),
(343,607,o),
(432,606,o),
(508,597,cs),
(526,595,o),
(539,613,o),
(544,636,cs)
);
}
);
width = 506;
}
);
metricLeft = "=|H";
metricRight = "=H/2";
note = E;
unicode = 69;
userData = {
KernOnName = E;
};
},
{
glyphname = Schwa;
kernRight = KO_O;
lastChange = "2025-01-04 00:23:34 +0000";
layers = (
{
layerId = m003;
shapes = (
{
closed = 1;
nodes = (
(362,-7,o),
(473,116,o),
(511,295,cs),
(522,347,ls),
(560,526,o),
(506,674,o),
(354,674,cs),
(304,674,o),
(261,663,o),
(222,641,cs),
(197,625,o),
(186,605,o),
(200,587,cs),
(201,585,ls),
(215,568,o),
(240,562,o),
(263,574,cs),
(283,585,o),
(311,600,o),
(339,600,cs),
(429,600,o),
(453,500,o),
(433,377,c),
(115,377,ls),
(85,377,o),
(55,359,o),
(49,331,cs),
(-15,29,o),
(113,-7,o),
(210,-7,cs)
);
},
{
closed = 1;
nodes = (
(112,297,o),
(120,302,o),
(127,301,cs),
(149,300,o),
(347,298,o),
(417,295,c),
(388,158,o),
(324,77,o),
(227,77,cs),
(137,77,o),
(75,122,o),
(110,288,cs)
);
}
);
width = 569;
},
{
layerId = m005;
shapes = (
{
closed = 1;
nodes = (
(356,-10,o),
(469,115,o),
(507,295,cs),
(518,347,ls),
(556,527,o),
(502,677,o),
(348,677,cs),
(298,677,o),
(254,666,o),
(214,643,cs),
(187,627,o),
(175,605,o),
(190,585,cs),
(192,583,ls),
(206,565,o),
(232,559,o),
(256,571,cs),
(278,582,o),
(304,597,o),
(331,597,cs),
(418,597,o),
(443,501,o),
(424,380,c),
(109,380,ls),
(78,380,o),
(46,361,o),
(39,331,cs),
(-25,26,o),
(104,-10,o),
(202,-10,cs)
);
},
{
closed = 1;
nodes = (
(108,295,o),
(114,299,o),
(119,298,cs),
(141,297,o),
(335,295,o),
(406,292,c),
(377,158,o),
(315,80,o),
(221,80,cs),
(132,80,o),
(71,124,o),
(106,288,cs)
);
}
);
width = 555;
},
{
layerId = m002;
shapes = (
{
closed = 1;
nodes = (
(344,-25,o),
(468,113,o),
(507,295,cs),
(518,347,ls),
(556,528,o),
(497,692,o),
(326,692,cs),
(272,692,o),
(222,680,o),
(177,654,cs),
(131,626,o),
(120,586,o),
(142,557,cs),
(143,555,ls),
(163,530,o),
(200,521,o),
(237,539,cs),
(259,551,o),
(279,562,o),
(299,562,cs),
(362,562,o),
(385,494,o),
(377,405,c),
(89,405,ls),
(40,405,o),
(-2,371,o),
(-11,331,cs),
(-78,14,o),
(70,-25,o),
(174,-25,cs)
);
},
{
closed = 1;
nodes = (
(107,293,o),
(92,274,o),
(86,273,c),
(98,272,o),
(265,270,o),
(350,268,c),
(325,172,o),
(276,115,o),
(204,115,cs),
(126,115,o),
(77,152,o),
(106,288,cs)
);
}
);
width = 505;
}
);
metricLeft = "=O";
metricRight = "=O";
unicode = 399;
},
{
glyphname = F;
kernLeft = KO_E;
kernRight = KO_F;
lastChange = "2025-01-04 00:23:34 +0000";
layers = (
{
hints = (
{
horizontal = 1;
place = (0,75);
type = Stem;
},
{
horizontal = 1;
place = (305,74);
type = Stem;
},
{
horizontal = 1;
place = (592,75);
type = Stem;
},
{
place = (-1,100);
type = Stem;
}
);
layerId = m005;
shapes = (
{
closed = 1;
nodes = (
(558,653,o),
(547,667,o),
(522,667,cs),
(205,667,ls),
(180,667,o),
(152,653,o),
(148,628,cs),
(116,432,o),
(74,235,o),
(22,39,cs),
(16,14,o),
(38,0,o),
(63,0,cs),
(110,0,o),
(140,14,o),
(142,39,cs),
(150,123,o),
(166,197,o),
(184,281,cs),
(185,287,o),
(189,290,o),
(195,291,cs),
(264,300,o),
(332,300,o),
(399,300,cs),
(424,300,o),
(441,314,o),
(446,339,cs),
(452,366,o),
(444,394,o),
(418,390,cs),
(349,380,o),
(282,380,o),
(215,380,cs),
(208,380,o),
(206,383,o),
(207,390,cs),
(220,452,o),
(233,514,o),
(238,576,cs),
(239,583,o),
(243,587,o),
(250,587,cs),
(332,587,o),
(424,587,o),
(503,577,cs),
(527,574,o),
(547,601,o),
(552,626,cs)
);
}
);
width = 506;
},
{
hints = (
{
horizontal = 1;
place = (0,75);
type = Stem;
},
{
horizontal = 1;
place = (305,74);
type = Stem;
},
{
horizontal = 1;
place = (592,75);
type = Stem;
},
{
place = (-1,100);
type = Stem;
}
);
layerId = m002;
shapes = (
{
closed = 1;
nodes = (
(634,656,o),
(605,692,o),
(552,692,cs),
(235,692,ls),
(181,692,o),
(126,655,o),
(117,601,cs),
(85,406,o),
(55,261,o),
(3,66,cs),
(-10,12,o),
(29,-25,o),
(83,-25,cs),
(161,-25,o),
(218,14,o),
(224,70,cs),
(231,151,o),
(234,162,o),
(246,221,cs),
(249,236,o),
(255,240,o),
(267,242,cs),
(303,248,o),
(346,250,o),
(413,250,cs),
(466,250,o),
(510,286,o),
(521,339,cs),
(534,398,o),
(504,448,o),
(445,439,cs),
(381,430,o),
(328,430,o),
(301,430,cs),
(290,430,o),
(287,441,o),
(288,450,cs),
(289,465,o),
(288,455,o),
(291,475,cs),
(294,492,o),
(301,512,o),
(329,512,cs),
(411,512,o),
(430,512,o),
(506,502,cs),
(561,496,o),
(610,545,o),
(622,601,cs)
);
}
);
width = 568;
},
{
hints = (
{
horizontal = 1;
place = (0,75);
type = Stem;
},
{
horizontal = 1;
place = (305,74);
type = Stem;
},
{
horizontal = 1;
place = (592,75);
type = Stem;
},
{
place = (-1,100);
type = Stem;
}
);
layerId = m003;
shapes = (
{
closed = 1;
nodes = (
(549,659,o),
(543,667,o),
(522,667,cs),
(205,667,ls),
(183,667,o),
(163,657,o),
(160,638,cs),
(128,442,o),
(82,225,o),
(30,29,cs),
(25,10,o),
(41,0,o),
(63,0,cs),
(108,0,o),
(128,10,o),
(130,28,cs),
(138,112,o),
(156,197,o),
(174,281,cs),
(176,292,o),
(185,299,o),
(196,301,cs),
(265,310,o),
(334,310,o),
(401,310,cs),
(422,310,o),
(432,318,o),
(436,339,cs),
(441,364,o),
(436,383,o),
(418,380,cs),
(348,370,o),
(280,370,o),
(213,370,cs),
(200,370,o),
(194,377,o),
(197,390,cs),
(210,452,o),
(225,524,o),
(229,585,c),
(232,598,o),
(241,607,o),
(254,607,cs),
(336,607,o),
(429,607,o),
(508,597,cs),
(526,595,o),
(539,613,o),
(544,636,cs)
);
}
);
width = 501;
}
);
metricLeft = "=|H";
metricRight = "=H/2";
note = E;
unicode = 70;
userData = {
KernOnName = F;
};
},
{
glyphname = G;
kernLeft = KO_O;
kernRight = KO_G;
lastChange = "2025-01-04 00:23:34 +0000";
layers = (
{
anchors = (
{
name = bottom;
pos = (209,0);
},
{
name = top;
pos = (342,625);
}
);
hints = (
{
horizontal = 1;
place = (-10,85);
type = Stem;
},
{
horizontal = 1;
place = (597,80);
type = Stem;
},
{
place = (-36,110);
type = Stem;
},
{
horizontal = 1;
place = (-10,85);
type = Stem;
},
{
horizontal = 1;
place = (597,80);
type = Stem;
},
{
place = (-36,110);
type = Stem;
}
);
layerId = m005;
shapes = (
{
closed = 1;
nodes = (
(254,-10,o),
(306,-1,o),
(355,17,cs),
(358,18,o),
(361,20,o),
(365,21,cs),
(408,40,ls),
(435,52,o),
(452,71,o),
(455,98,cs),
(463,181,o),
(481,263,o),
(498,300,cs),
(514,331,ls),
(531,361,o),
(497,380,o),
(466,380,cs),
(329,380,ls),
(304,380,o),
(277,366,o),
(271,339,cs),
(266,314,o),
(284,286,o),
(310,290,cs),
(338,294,o),
(364,297,o),
(390,298,cs),
(397,299,o),
(400,295,o),
(399,288,cs),
(379,153,o),
(382,123,o),
(340,107,cs),
(305,94,o),
(264,80,o),
(226,80,cs),
(131,80,o),
(103,159,o),
(132,295,cs),
(143,347,ls),
(172,483,o),
(241,597,o),
(336,597,cs),
(363,597,o),
(383,582,o),
(399,571,cs),
(419,559,o),
(447,565,o),
(469,583,cs),
(471,585,ls),
(496,605,o),
(492,627,o),
(473,643,cs),
(443,666,o),
(403,677,o),
(353,677,cs),
(199,677,o),
(81,527,o),
(43,347,cs),
(32,295,ls),
(-6,115,o),
(53,-10,o),
(207,-10,cs)
);
}
);
width = 557;
},
{
anchors = (
{
name = bottom;
pos = (208,0);
},
{
name = top;
pos = (350,667);
}
);
hints = (
{
horizontal = 1;
place = (-10,85);
type = Stem;
},
{
horizontal = 1;
place = (597,80);
type = Stem;
},
{
place = (-36,110);
type = Stem;
}
);
layerId = m002;
shapes = (
{
closed = 1;
nodes = (
(256,-25,o),
(316,-15,o),
(371,6,cs),
(376,8,o),
(378,8,o),
(380,9,cs),
(427,30,ls),
(476,51,o),
(508,90,o),
(514,139,cs),
(520,217,o),
(525,255,o),
(543,287,cs),
(559,315,ls),
(593,375,o),
(549,430,o),
(477,430,cs),
(340,430,ls),
(287,430,o),
(233,394,o),
(221,339,cs),
(209,283,o),
(209,232,o),
(267,241,cs),
(295,245,o),
(308,248,o),
(325,248,cs),
(345,248,o),
(339,227,o),
(334,203,cs),
(332,194,o),
(332,186,o),
(313,177,cs),
(288,165,o),
(273,165,o),
(244,165,cs),
(178,165,o),
(163,207,o),
(182,295,cs),
(193,347,ls),
(220,473,o),
(257,512,o),
(318,512,cs),
(330,512,o),
(340,504,o),
(358,492,cs),
(395,469,o),
(448,479,o),
(489,513,cs),
(492,515,ls),
(541,556,o),
(547,614,o),
(502,649,cs),
(464,678,o),
(415,692,o),
(356,692,cs),
(167,692,o),
(28,511,o),
(-7,347,cs),
(-18,295,ls),
(-54,128,o),
(17,-25,o),
(204,-25,cs)
);
}
);
width = 558;
},
{
anchors = (
{
name = bottom;
pos = (209,0);
},
{
name = top;
pos = (342,625);
}
);
hints = (
{
horizontal = 1;
place = (-10,85);
type = Stem;
},
{
horizontal = 1;
place = (597,80);
type = Stem;
},
{
place = (-36,110);
type = Stem;
}
);
layerId = m003;
shapes = (
{
closed = 1;
nodes = (
(254,-7,o),
(296,-2,o),
(352,19,cs),
(353,20,o),
(358,22,o),
(361,23,cs),
(404,42,ls),
(428,53,o),
(441,67,o),
(443,90,cs),
(451,173,o),
(468,265,o),
(489,303,cs),
(505,334,ls),
(517,356,o),
(493,370,o),
(464,370,cs),
(327,370,ls),
(305,370,o),
(286,360,o),
(281,339,cs),
(277,318,o),
(290,297,o),
(310,300,cs),
(339,304,o),
(366,308,o),
(392,308,cs),
(403,308,o),
(411,302,o),
(410,289,cs),
(388,148,o),
(391,110,o),
(340,91,cs),
(306,78,o),
(263,63,o),
(223,63,cs),
(121,63,o),
(91,148,o),
(122,295,cs),
(133,347,ls),
(164,493,o),
(237,614,o),
(340,614,cs),
(370,614,o),
(391,598,o),
(408,587,cs),
(424,577,o),
(446,581,o),
(465,597,cs),
(467,599,ls),
(487,615,o),
(485,628,o),
(467,642,cs),
(438,664,o),
(401,674,o),
(352,674,cs),
(204,674,o),
(92,531,o),
(53,347,cs),
(42,295,ls),
(3,111,o),
(59,-7,o),
(208,-7,cs)
);
}
);
width = 556;
}
);
metricLeft = "=O";
metricRight = "=O";
note = C;
unicode = 71;
},
{
glyphname = H;
kernLeft = KO_H;
kernRight = KO_H;
lastChange = "2025-01-03 22:26:37 +0000";
layers = (
{
hints = (
{
horizontal = 1;
place = (0,21);
target = up;
type = BottomGhost;
},
{
horizontal = 1;
place = (305,75);
type = Stem;
},
{
place = (-1,100);
type = Stem;
},
{
place = (359,100);
type = Stem;
}
);
layerId = m005;
shapes = (
{
closed = 1;
nodes = (
(96,0,o),
(132,18,o),
(135,49,cs),
(138,84,o),
(154,173,o),
(175,273,cs),
(179,289,o),
(183,297,o),
(190,297,cs),
(266,300,o),
(340,300,o),
(416,300,cs),
(422,300,o),
(425,296,o),
(424,290,cs),
(400,185,o),
(377,86,o),
(365,49,cs),
(354,18,o),
(382,0,o),
(415,0,cs),
(446,0,o),
(480,18,o),
(485,49,cs),
(515,239,o),
(555,428,o),
(605,618,cs),
(614,649,o),
(588,667,o),
(557,667,cs),
(524,667,o),
(502,649,o),
(495,618,cs),
(488,585,o),
(470,497,o),
(448,398,cs),
(446,391,o),
(443,388,o),
(435,387,cs),
(360,383,o),
(284,381,o),
(208,380,cs),
(202,380,o),
(199,384,o),
(200,390,cs),
(222,492,o),
(244,584,o),
(255,618,cs),
(266,649,o),
(238,667,o),
(205,667,cs),
(174,667,o),
(140,649,o),
(135,618,cs),
(123,542,o),
(110,466,o),
(95,390,cs),
(94,384,o),
(89,380,o),
(83,380,cs),
(49,380,o),
(32,366,o),
(27,341,cs),
(26,339,ls),
(19,304,o),
(30,290,o),
(65,291,cs),
(71,291,o),
(74,288,o),
(73,281,cs),
(57,204,o),
(41,127,o),
(25,49,cs),
(18,18,o),
(32,0,o),
(63,0,cs)
);
}
);
width = 595;
},
{
hints = (
{
horizontal = 1;
place = (0,21);
target = up;
type = BottomGhost;
},
{
horizontal = 1;
place = (305,75);
type = Stem;
},
{
place = (-1,100);
type = Stem;
},
{
place = (359,100);
type = Stem;
}
);
layerId = m002;
shapes = (
{
closed = 1;
nodes = (
(172,-25,o),
(236,19,o),
(241,80,cs),
(242,100,o),
(255,152,o),
(262,200,cs),
(265,227,o),
(287,249,o),
(320,249,cs),
(335,249,o),
(349,250,o),
(364,250,cs),
(397,250,o),
(414,242,o),
(407,218,cs),
(391,153,o),
(379,105,o),
(371,80,cs),
(350,19,o),
(396,-25,o),
(460,-25,cs),
(519,-25,o),
(582,16,o),
(590,77,cs),
(620,265,o),
(650,402,o),
(700,590,cs),
(716,651,o),
(671,692,o),
(612,692,cs),
(551,692,o),
(503,652,o),
(490,593,cs),
(481,548,o),
(474,519,o),
(465,474,cs),
(458,442,o),
(439,434,o),
(407,433,cs),
(391,432,o),
(376,432,o),
(360,432,cs),
(327,431,o),
(310,439,o),
(319,473,cs),
(332,532,o),
(341,565,o),
(349,587,cs),
(370,648,o),
(324,692,o),
(260,692,cs),
(201,692,o),
(138,651,o),
(130,590,cs),
(121,541,o),
(119,515,o),
(109,466,cs),
(104,438,o),
(86,424,o),
(63,404,cs),
(45,388,o),
(32,366,o),
(27,341,cs),
(26,339,ls),
(20,311,o),
(24,284,o),
(38,265,cs),
(52,246,o),
(63,232,o),
(58,205,cs),
(47,153,o),
(41,126,o),
(30,74,cs),
(17,15,o),
(49,-25,o),
(108,-25,cs)
);
}
);
width = 670;
},
{
hints = (
{
horizontal = 1;
place = (0,21);
target = up;
type = BottomGhost;
},
{
horizontal = 1;
place = (305,75);
type = Stem;
},
{
place = (-1,100);
type = Stem;
},
{
place = (359,100);
type = Stem;
}
);
layerId = m003;
shapes = (
{
closed = 1;
nodes = (
(68,0,o),
(95,13,o),
(97,38,cs),
(101,73,o),
(119,173,o),
(140,273,cs),
(145,296,o),
(154,307,o),
(167,307,cs),
(243,310,o),
(317,310,o),
(393,310,cs),
(405,310,o),
(411,302,o),
(409,290,cs),
(385,185,o),
(360,75,o),
(347,38,cs),
(339,13,o),
(360,0,o),
(390,0,cs),
(418,0,o),
(444,13,o),
(447,38,cs),
(478,229,o),
(522,438,o),
(573,629,cs),
(580,654,o),
(560,667,o),
(532,667,cs),
(503,667,o),
(488,655,o),
(483,628,cs),
(476,595,o),
(455,497,o),
(433,398,cs),
(430,386,o),
(422,379,o),
(409,377,c),
(332,373,o),
(257,371,o),
(181,370,cs),
(169,370,o),
(162,378,o),
(165,390,cs),
(187,492,o),
(212,595,o),
(223,629,cs),
(231,654,o),
(210,667,o),
(180,667,cs),
(152,667,o),
(126,654,o),
(123,629,cs),
(110,552,o),
(95,466,o),
(80,390,cs),
(77,378,o),
(68,370,o),
(56,370,cs),
(26,370,o),
(16,362,o),
(12,341,cs),
(11,339,ls),
(5,308,o),
(11,300,o),
(42,301,cs),
(54,301,o),
(61,294,o),
(58,281,cs),
(42,204,o),
(24,117,o),
(7,39,cs),
(2,12,o),
(11,0,o),
(38,0,cs)
);
}
);
width = 570;
}
);
note = H;
unicode = 72;
userData = {
KernOnName = H;
};
},
{
glyphname = Hbar;
lastChange = "2024-12-25 20:25:25 +0000";
layers = (
{
layerId = m003;
shapes = (
{
ref = H;
},
{
closed = 1;
nodes = (
(19,514,ls),
(19,491,o),
(31,467,o),
(52,471,cs),
(121,481,o),
(460,491,o),
(529,481,cs),
(551,477,o),
(572,493,o),
(572,514,cs),
(572,516,ls),
(572,537,o),
(550,563,o),
(529,559,cs),
(460,549,o),
(121,549,o),
(52,549,cs),
(31,549,o),
(19,537,o),
(19,516,cs)
);
}
);
width = 582;
},
{
layerId = m005;
shapes = (
{
pos = (-6,0);
ref = H;
},
{
closed = 1;
nodes = (
(10,514,ls),
(10,490,o),
(23,464,o),
(46,468,cs),
(115,478,o),
(498,488,o),
(567,478,cs),
(590,474,o),
(613,491,o),
(613,514,cs),
(613,516,ls),
(613,539,o),
(590,566,o),
(567,562,cs),
(498,552,o),
(115,552,o),
(46,552,cs),
(23,552,o),
(10,539,o),
(10,516,cs)
);
}
);
width = 623;
},
{
layerId = m002;
shapes = (
{
ref = H;
},
{
closed = 1;
nodes = (
(32,543,ls),
(32,504,o),
(57,465,o),
(97,472,cs),
(164,482,o),
(544,492,o),
(610,482,cs),
(648,476,o),
(685,504,o),
(685,543,cs),
(685,545,ls),
(685,585,o),
(647,622,o),
(610,616,cs),
(543,606,o),
(162,606,o),
(93,606,cs),
(56,606,o),
(32,582,o),
(32,545,cs)
);
}
);
width = 695;
}
);
unicode = 294;
},
{
glyphname = I;
kernLeft = KO_I;
kernRight = KO_I;
lastChange = "2025-01-04 00:23:34 +0000";
layers = (
{
anchors = (
{
name = bottom;
pos = (98,0);
},
{
name = ogonek;
pos = (188,10);
},
{
name = top;
pos = (231,625);
},
{
name = topleft;
pos = (150,667);
}
);
hints = (
{
horizontal = 1;
place = (0,21);
target = up;
type = BottomGhost;
},
{
place = (-1,100);
type = Stem;
}
);
layerId = m005;
shapes = (
{
closed = 1;
nodes = (
(67,-5,o),
(127,-5,o),
(190,5,cs),
(216,9,o),
(242,19,o),
(248,44,cs),
(255,81,o),
(235,99,o),
(209,95,cs),
(199,94,o),
(189,92,o),
(178,90,cs),
(171,89,o),
(168,92,o),
(169,99,cs),
(272,581,ls),
(273,587,o),
(278,591,o),
(284,590,cs),
(294,589,o),
(304,588,o),
(314,587,cs),
(338,583,o),
(356,601,o),
(361,626,cs),
(367,653,o),
(356,665,o),
(331,667,cs),
(271,672,o),
(211,672,o),
(149,667,cs),
(124,665,o),
(107,653,o),
(102,628,cs),
(96,601,o),
(104,573,o),
(130,577,cs),
(140,578,o),
(151,580,o),
(161,582,cs),
(168,583,o),
(172,580,o),
(170,573,cs),
(68,91,ls),
(66,85,o),
(61,81,o),
(56,82,cs),
(45,83,o),
(35,84,o),
(25,85,cs),
(1,89,o),
(-17,71,o),
(-22,44,cs),
(-28,19,o),
(-19,-5,o),
(6,-5,cs)
);
}
);
width = 350;
},
{
anchors = (
{
name = bottom;
pos = (99,0);
},
{
name = ogonek;
pos = (189,10);
},
{
name = top;
pos = (232,625);
},
{
name = topleft;
pos = (151,667);
}
);
hints = (
{
horizontal = 1;
place = (0,21);
target = up;
type = BottomGhost;
},
{
place = (-1,100);
type = Stem;
}
);
layerId = m002;
shapes = (
{
closed = 1;
nodes = (
(64,-25,o),
(128,-25,o),
(195,-14,cs),
(255,-5,o),
(295,28,o),
(305,74,cs),
(319,141,o),
(308,175,o),
(281,175,cs),
(269,175,o),
(255,169,o),
(248,169,cs),
(240,169,o),
(238,180,o),
(242,199,cs),
(301,481,ls),
(304,493,o),
(308,510,o),
(317,510,cs),
(328,510,o),
(332,508,o),
(337,507,cs),
(362,502,o),
(394,541,o),
(406,596,cs),
(418,651,o),
(388,683,o),
(340,687,cs),
(278,692,o),
(214,692,o),
(150,687,cs),
(100,683,o),
(58,651,o),
(46,596,cs),
(34,540,o),
(23,489,o),
(60,497,cs),
(69,499,o),
(80,500,o),
(89,500,cs),
(100,500,o),
(103,490,o),
(100,473,cs),
(40,191,ls),
(37,179,o),
(33,163,o),
(20,162,c),
(9,163,o),
(2,166,o),
(-11,165,cs),
(-33,163,o),
(-52,135,o),
(-65,74,cs),
(-76,21,o),
(-50,-25,o),
(3,-25,cs)
);
}
);
width = 350;
},
{
anchors = (
{
name = bottom;
pos = (99,0);
},
{
name = ogonek;
pos = (189,10);
},
{
name = top;
pos = (232,625);
},
{
name = topleft;
pos = (151,667);
}
);
hints = (
{
horizontal = 1;
place = (0,21);
target = up;
type = BottomGhost;
},
{
place = (-1,100);
type = Stem;
}
);
layerId = m003;
shapes = (
{
closed = 1;
nodes = (
(69,-2,o),
(128,-2,o),
(190,8,cs),
(214,12,o),
(233,19,o),
(237,37,cs),
(244,69,o),
(229,81,o),
(208,78,cs),
(197,77,o),
(188,75,o),
(177,73,cs),
(163,71,o),
(156,79,o),
(158,92,cs),
(265,591,ls),
(267,603,o),
(279,612,o),
(290,610,cs),
(300,609,o),
(310,608,o),
(320,607,cs),
(339,604,o),
(349,614,o),
(354,636,cs),
(359,658,o),
(352,665,o),
(331,667,cs),
(272,672,o),
(212,672,o),
(151,667,cs),
(128,665,o),
(119,658,o),
(114,636,cs),
(109,613,o),
(115,594,o),
(134,597,cs),
(144,598,o),
(153,600,o),
(164,602,cs),
(178,604,o),
(186,596,o),
(183,583,cs),
(77,84,ls),
(74,72,o),
(62,63,o),
(52,65,cs),
(41,66,o),
(31,67,o),
(21,68,cs),
(2,71,o),
(-8,61,o),
(-13,37,cs),
(-18,15,o),
(-11,-2,o),
(8,-2,cs)
);
}
);
width = 350;
}
);
metricLeft = "=O";
metricRight = "=O";
note = I;
unicode = 73;
userData = {
KernOnName = I;
};
},
{
glyphname = J;
kernLeft = KO_J;
kernRight = KO_J;
lastChange = "2025-01-04 00:23:34 +0000";
layers = (
{
anchors = (
{
name = bottom;
pos = (200,0);
},
{
name = top;
pos = (333,625);
}
);
hints = (
{
horizontal = 1;
place = (-10,85);
type = Stem;
},
{
horizontal = 1;
place = (597,80);
type = Stem;
},
{
place = (-35,110);
type = Stem;
}
);
layerId = m005;
shapes = (
{
closed = 1;
nodes = (
(268,-10,o),
(375,90,o),
(414,270,cs),
(479,576,ls),
(480,582,o),
(485,586,o),
(491,586,cs),
(503,586,ls),
(525,587,o),
(544,603,o),
(549,625,cs),
(554,650,o),
(541,667,o),
(518,667,cs),
(282,667,ls),
(257,667,o),
(234,648,o),
(228,622,cs),
(223,597,o),
(238,575,o),
(265,579,cs),
(301,584,o),
(336,586,o),
(371,586,cs),
(377,586,o),
(380,582,o),
(379,576,cs),
(314,270,ls),
(285,134,o),
(228,80,o),
(133,80,cs),
(99,80,o),
(67,93,o),
(41,101,cs),
(13,109,o),
(-16,83,o),
(-28,67,cs),
(-45,42,o),
(-41,13,o),
(-17,6,cs),
(24,-7,o),
(70,-10,o),
(114,-10,cs)
);
}
);
width = 527;
},
{
anchors = (
{
name = bottom;
pos = (231,0);
},
{
name = top;
pos = (364,625);
}
);
hints = (
{
horizontal = 1;
place = (-10,85);
type = Stem;
},
{
horizontal = 1;
place = (597,80);
type = Stem;
},
{
place = (-33,110);
type = Stem;
}
);
layerId = m002;
shapes = (
{
closed = 1;
nodes = (
(332,-25,o),
(465,100,o),
(509,305,cs),
(540,451,ls),
(542,463,o),
(547,486,o),
(566,486,cs),
(580,486,ls),
(613,486,o),
(641,526,o),
(651,575,cs),
(662,628,o),
(632,667,o),
(581,667,cs),
(320,667,ls),
(267,667,o),
(217,626,o),
(205,572,cs),
(193,516,o),
(230,471,o),
(289,480,cs),
(308,483,o),
(327,486,o),
(337,486,cs),
(347,486,o),
(342,462,o),
(339,450,cs),
(309,305,ls),
(284,187,o),
(261,165,o),
(189,165,cs),
(164,165,o),
(138,176,o),
(110,184,cs),
(61,198,o),
(6,165,o),
(-24,122,cs),
(-60,72,o),
(-48,9,o),
(4,-7,cs),
(50,-22,o),
(103,-25,o),
(148,-25,cs)
);
}
);
width = 590;
},
{
anchors = (
{
name = bottom;
pos = (201,0);
},
{
name = top;
pos = (334,625);
}
);
hints = (
{
horizontal = 1;
place = (-10,85);
type = Stem;
},
{
horizontal = 1;
place = (597,80);
type = Stem;
},
{
place = (-35,110);
type = Stem;
}
);
layerId = m003;
shapes = (
{
closed = 1;
nodes = (
(256,-7,o),
(357,87,o),
(395,263,cs),
(464,591,ls),
(466,600,o),
(474,606,o),
(483,606,cs),
(500,606,ls),
(518,606,o),
(530,617,o),
(534,635,cs),
(538,656,o),
(530,667,o),
(511,667,cs),
(275,667,ls),
(254,667,o),
(238,654,o),
(233,632,cs),
(229,611,o),
(240,596,o),
(261,599,cs),
(297,604,o),
(338,606,o),
(373,606,cs),
(382,606,o),
(386,600,o),
(384,591,cs),
(315,263,ls),
(285,121,o),
(222,63,o),
(122,63,cs),
(86,63,o),
(53,76,o),
(27,84,cs),
(5,91,o),
(-18,70,o),
(-30,54,cs),
(-44,34,o),
(-40,14,o),
(-20,9,cs),
(19,-4,o),
(63,-7,o),
(107,-7,cs)
);
}
);
width = 520;
}
);
metricLeft = "=O/4";
metricRight = "=I";
note = C;
unicode = 74;
userData = {
KernOnName = J;
};
},
{
glyphname = K;
kernLeft = KO_N;
kernRight = KO_K;
lastChange = "2025-01-04 00:23:34 +0000";
layers = (
{
anchors = (
{
name = bottom;
pos = (177,0);
},
{
name = top;
pos = (310,625);
}
);
hints = (
{
horizontal = 1;
place = (0,21);
target = up;
type = BottomGhost;
},
{
horizontal = 1;
place = (282,67);
type = Stem;
},
{
horizontal = 1;
place = (598,69);
type = Stem;
},
{
place = (-2,100);
type = Stem;
},
{
place = (334,99);
type = Stem;
}
);
layerId = m005;
shapes = (
{
closed = 1;
nodes = (
(42,0,o),
(80,20,o),
(84,49,cs),
(93,107,o),
(104,165,o),
(114,223,cs),
(115,228,o),
(117,232,o),
(121,236,cs),
(142,259,o),
(163,281,o),
(185,303,cs),
(190,308,o),
(195,309,o),
(199,305,cs),
(226,286,o),
(315,209,o),
(305,40,cs),
(304,16,o),
(328,0,o),
(353,0,cs),
(386,0,o),
(426,28,o),
(426,62,cs),
(420,238,o),
(306,339,o),
(265,369,cs),
(260,373,o),
(260,378,o),
(266,383,cs),
(336,452,o),
(406,517,o),
(485,592,cs),
(516,621,o),
(510,652,o),
(494,665,cs),
(474,681,o),
(444,675,o),
(410,640,cs),
(327,553,o),
(241,465,o),
(157,378,cs),
(149,371,o),
(144,373,o),
(146,382,cs),
(196,618,ls),
(202,647,o),
(185,667,o),
(154,667,cs),
(126,667,o),
(90,646,o),
(85,618,cs),
(54,428,o),
(14,239,o),
(-36,49,cs),
(-43,21,o),
(-16,0,o),
(12,0,cs)
);
}
);
width = 484;
},
{
anchors = (
{
name = bottom;
pos = (225,0);
},
{
name = top;
pos = (358,625);
}
);
hints = (
{
horizontal = 1;
place = (0,21);
target = up;
type = BottomGhost;
},
{
horizontal = 1;
place = (282,67);
type = Stem;
},
{
horizontal = 1;
place = (598,69);
type = Stem;
},
{
place = (-2,100);
type = Stem;
},
{
place = (334,99);
type = Stem;
}
);
layerId = m002;
shapes = (
{
closed = 1;
nodes = (
(117,-25,o),
(182,18,o),
(191,77,cs),
(200,134,o),
(198,136,o),
(209,194,cs),
(208,191,o),
(212,209,o),
(216,220,cs),
(219,226,o),
(224,233,o),
(232,237,cs),
(240,241,o),
(247,241,o),
(263,226,c),
(279,206,o),
(321,162,o),
(311,57,cs),
(305,-3,o),
(349,-25,o),
(399,-25,cs),
(464,-25,o),
(534,33,o),
(534,99,cs),
(527,293,o),
(435,350,o),
(403,373,cs),
(397,377,o),
(390,386,o),
(401,399,cs),
(444,447,o),
(482,459,o),
(562,535,cs),
(617,586,o),
(614,651,o),
(576,681,cs),
(538,711,o),
(478,703,o),
(423,645,cs),
(339,559,o),
(310,535,o),
(288,516,cs),
(276,506,o),
(275,516,o),
(277,525,cs),
(292,593,ls),
(304,650,o),
(270,692,o),
(214,692,cs),
(154,692,o),
(90,648,o),
(80,591,cs),
(50,402,o),
(21,265,o),
(-29,76,cs),
(-43,19,o),
(1,-25,o),
(58,-25,cs)
);
}
);
width = 579;
},
{
anchors = (
{
name = bottom;
pos = (161,0);
},
{
name = top;
pos = (294,625);
}
);
hints = (
{
horizontal = 1;
place = (0,21);
target = up;
type = BottomGhost;
},
{
horizontal = 1;
place = (282,67);
type = Stem;
},
{
horizontal = 1;
place = (598,69);
type = Stem;
},
{
place = (-2,100);
type = Stem;
},
{
place = (334,99);
type = Stem;
}
);
layerId = m003;
shapes = (
{
closed = 1;
nodes = (
(14,0,o),
(44,15,o),
(46,38,cs),
(56,97,o),
(68,165,o),
(79,223,cs),
(80,229,o),
(84,236,o),
(89,242,cs),
(111,265,o),
(140,295,o),
(162,318,cs),
(166,322,o),
(171,322,o),
(177,318,cs),
(206,299,o),
(298,204,o),
(288,32,cs),
(287,12,o),
(306,0,o),
(326,0,cs),
(357,0,o),
(389,22,o),
(388,50,cs),
(383,222,o),
(262,337,o),
(223,368,cs),
(217,372,o),
(219,375,o),
(224,380,cs),
(289,448,o),
(378,534,o),
(456,608,cs),
(482,633,o),
(478,655,o),
(463,667,cs),
(447,680,o),
(425,676,o),
(394,644,cs),
(311,557,o),
(207,444,o),
(122,357,cs),
(106,342,o),
(104,351,o),
(108,369,cs),
(163,628,ls),
(168,653,o),
(156,667,o),
(129,667,cs),
(104,667,o),
(76,651,o),
(72,628,cs),
(41,438,o),
(-3,229,o),
(-53,39,cs),
(-59,16,o),
(-38,0,o),
(-13,0,cs)
);
}
);
width = 451;
}
);
metricLeft = "=H";
metricRight = "=H/4";
note = P;
unicode = 75;
},
{
glyphname = L;
kernLeft = KO_N;
kernRight = KO_L;
lastChange = "2025-01-04 00:23:34 +0000";
layers = (
{
anchors = (
{
name = bottom;
pos = (122,0);
},
{
name = center;
pos = (193,334);
},
{
name = top;
pos = (255,625);
},
{
name = topright;
pos = (356,667);
}
);
hints = (
{
horizontal = 1;
place = (0,75);
type = Stem;
},
{
horizontal = 1;
place = (305,74);
type = Stem;
},
{
horizontal = 1;
place = (592,75);
type = Stem;
},
{
place = (-1,100);
type = Stem;
}
);
layerId = m005;
shapes = (
{
closed = 1;
nodes = (
(265,0,ls),
(300,0,o),
(328,19,o),
(333,44,cs),
(339,71,o),
(322,104,o),
(286,100,cs),
(218,92,o),
(148,81,o),
(81,80,cs),
(75,80,o),
(72,84,o),
(73,90,cs),
(111,266,o),
(148,442,o),
(195,618,cs),
(204,649,o),
(188,667,o),
(155,667,cs),
(124,667,o),
(90,649,o),
(85,618,cs),
(55,428,o),
(15,239,o),
(-35,49,cs),
(-44,18,o),
(-18,0,o),
(13,0,cs)
);
}
);
width = 385;
},
{
anchors = (
{
name = bottom;
pos = (157,0);
},
{
name = center;
pos = (228,334);
},
{
name = top;
pos = (290,625);
},
{
name = topright;
pos = (391,667);
}
);
hints = (
{
horizontal = 1;
place = (0,75);
type = Stem;
},
{
horizontal = 1;
place = (305,74);
type = Stem;
},
{
horizontal = 1;
place = (592,75);
type = Stem;
},
{
place = (-4,100);
type = Stem;
}
);
layerId = m002;
shapes = (
{
closed = 1;
nodes = (
(315,0,ls),
(378,0,o),
(433,41,o),
(444,94,cs),
(457,151,o),
(418,207,o),
(352,200,cs),
(316,196,o),
(271,191,o),
(236,187,cs),
(202,183,o),
(197,201,o),
(204,235,cs),
(232,365,o),
(252,448,o),
(290,590,cs),
(307,650,o),
(273,692,o),
(213,692,cs),
(152,692,o),
(89,651,o),
(80,590,cs),
(50,402,o),
(26,290,o),
(-24,102,cs),
(-41,41,o),
(4,0,o),
(63,0,cs)
);
}
);
width = 498;
},
{
anchors = (
{
name = bottom;
pos = (109,0);
},
{
name = center;
pos = (180,334);
},
{
name = top;
pos = (242,625);
},
{
name = topright;
pos = (343,667);
}
);
hints = (
{
horizontal = 1;
place = (0,75);
type = Stem;
},
{
horizontal = 1;
place = (305,74);
type = Stem;
},
{
horizontal = 1;
place = (592,75);
type = Stem;
},
{
place = (-2,100);
type = Stem;
}
);
layerId = m003;
shapes = (
{
closed = 1;
nodes = (
(240,0,ls),
(272,0,o),
(292,14,o),
(297,34,cs),
(302,58,o),
(288,83,o),
(258,80,cs),
(186,72,o),
(111,60,o),
(39,60,cs),
(34,60,o),
(33,62,o),
(34,67,cs),
(72,247,o),
(116,455,o),
(165,636,cs),
(172,662,o),
(161,674,o),
(132,674,cs),
(104,674,o),
(78,661,o),
(75,636,cs),
(44,445,o),
(-2,229,o),
(-53,38,cs),
(-60,13,o),
(-40,0,o),
(-12,0,cs)
);
}
);
width = 361;
}
);
metricLeft = "=H";
note = E;
unicode = 76;
userData = {
KernOnName = L;
};
},
{
glyphname = Lslash;
kernRight = KO_Lslash;
lastChange = "2025-01-04 00:23:46 +0000";
layers = (
{
hints = (
{
horizontal = 1;
place = (-10,80);
type = Stem;
},
{
horizontal = 1;
place = (597,80);
type = Stem;
},
{
place = (35,110);
type = Stem;
},
{
place = (425,110);
type = Stem;
}
);
layerId = m005;
shapes = (
{
pos = (57,0);
ref = L;
},
{
closed = 1;
nodes = (
(167,398,o),
(92,336,o),
(-6,264,cs),
(-28,247,o),
(-34,216,o),
(-20,198,cs),
(-19,197,ls),
(-5,180,o),
(15,178,o),
(36,197,cs),
(113,269,o),
(211,341,o),
(308,413,cs),
(331,430,o),
(334,451,o),
(320,469,cs),
(319,470,ls),
(305,487,o),
(276,488,o),
(254,470,cs)
);
}
);
width = 447;
},
{
hints = (
{
horizontal = 1;
place = (-10,80);
type = Stem;
},
{
horizontal = 1;
place = (597,80);
type = Stem;
},
{
place = (35,110);
type = Stem;
},
{
place = (425,110);
type = Stem;
}
);
layerId = m002;
shapes = (
{
pos = (51,0);
ref = L;
},
{
closed = 1;
nodes = (
(237,416,o),
(162,354,o),
(65,283,cs),
(32,258,o),
(19,210,o),
(42,180,c),
(44,179,l),
(69,149,o),
(106,154,o),
(136,181,cs),
(212,251,o),
(307,322,o),
(405,394,cs),
(436,418,o),
(450,455,o),
(426,487,c),
(424,488,l),
(400,517,o),
(354,513,o),
(324,488,cs)
);
}
);
width = 549;
},
{
hints = (
{
horizontal = 1;
place = (-10,80);
type = Stem;
},
{
horizontal = 1;
place = (597,80);
type = Stem;
},
{
place = (35,110);
type = Stem;
},
{
place = (425,110);
type = Stem;
}
);
layerId = m003;
shapes = (
{
pos = (99,0);
ref = L;
},
{
closed = 1;
nodes = (
(230,396,o),
(155,334,o),
(58,262,cs),
(37,246,o),
(31,217,o),
(45,200,cs),
(46,199,ls),
(59,183,o),
(77,181,o),
(97,199,cs),
(174,271,o),
(271,343,o),
(368,415,cs),
(390,431,o),
(393,450,o),
(379,467,cs),
(379,468,ls),
(365,484,o),
(338,485,o),
(318,468,cs)
);
}
);
width = 460;
}
);
metricRight = "=L";
note = O;
unicode = 321;
},
{
glyphname = M;
kernLeft = KO_M;
kernRight = KO_M;
lastChange = "2025-01-03 23:58:33 +0000";
layers = (
{
hints = (
{
horizontal = 1;
place = (0,21);
target = up;
type = BottomGhost;
},
{
place = (-36,724);
type = Stem;
},
{
horizontal = 1;
place = (0,150);
type = Stem;
}
);
layerId = m005;
shapes = (
{
closed = 1;
nodes = (
(245,274,o),
(249,120,o),
(246,48,cs),
(245,19,o),
(263,0,o),
(292,0,cs),
(323,0,o),
(349,19,o),
(361,48,cs),
(396,137,o),
(473,306,o),
(584,534,cs),
(586,540,o),
(595,540,o),
(595,535,cs),
(595,440,o),
(571,246,o),
(530,52,cs),
(523,19,o),
(551,0,o),
(584,0,cs),
(615,0,o),
(646,19,o),
(649,52,cs),
(672,290,o),
(675,503,o),
(669,622,cs),
(667,650,o),
(642,667,o),
(614,667,cs),
(584,667,o),
(549,649,o),
(537,621,cs),
(462,449,o),
(388,293,o),
(336,178,cs),
(334,173,o),
(326,173,o),
(326,178,cs),
(322,293,o),
(316,449,o),
(313,621,cs),
(313,649,o),
(286,667,o),
(256,667,cs),
(228,667,o),
(195,650,o),
(181,622,cs),
(125,503,o),
(38,290,o),
(-41,52,cs),
(-52,19,o),
(-29,0,o),
(3,0,cs),
(35,0,o),
(68,17,o),
(74,48,cs),
(123,268,o),
(177,441,o),
(219,537,cs),
(222,543,o),
(229,542,o),
(230,536,cs)
);
}
);
width = 730;
},
{
hints = (
{
horizontal = 1;
place = (0,21);
target = up;
type = BottomGhost;
},
{
place = (-36,724);
type = Stem;
},
{
horizontal = 1;
place = (0,150);
type = Stem;
}
);
layerId = m002;
shapes = (
{
closed = 1;
nodes = (
(206,160,o),
(202,108,o),
(201,64,cs),
(199,12,o),
(234,-25,o),
(287,-25,cs),
(342,-25,o),
(391,11,o),
(414,63,cs),
(433,111,o),
(452,166,o),
(503,255,cs),
(513,271,o),
(519,268,o),
(517,255,cs),
(509,198,o),
(500,146,o),
(485,77,cs),
(473,16,o),
(518,-25,o),
(579,-25,cs),
(640,-25,o),
(699,20,o),
(706,83,cs),
(728,323,o),
(721,490,o),
(715,610,cs),
(711,660,o),
(669,692,o),
(619,692,cs),
(565,692,o),
(507,658,o),
(485,607,cs),
(448,521,o),
(425,459,o),
(381,388,cs),
(377,382,o),
(371,382,o),
(371,388,cs),
(357,459,o),
(360,521,o),
(359,607,cs),
(359,658,o),
(315,692,o),
(261,692,cs),
(211,692,o),
(155,660,o),
(131,610,cs),
(73,490,o),
(-4,323,o),
(-84,83,cs),
(-105,20,o),
(-64,-25,o),
(-2,-25,cs),
(58,-25,o),
(117,14,o),
(130,73,cs),
(148,153,o),
(162,207,o),
(179,268,cs),
(183,280,o),
(191,280,o),
(192,268,cs)
);
}
);
width = 731;
},
{
hints = (
{
horizontal = 1;
place = (0,21);
target = up;
type = BottomGhost;
},
{
place = (-36,724);
type = Stem;
},
{
horizontal = 1;
place = (0,150);
type = Stem;
}
);
layerId = m003;
shapes = (
{
closed = 1;
nodes = (
(255,291,o),
(257,116,o),
(255,40,cs),
(253,14,o),
(267,0,o),
(292,0,cs),
(319,0,o),
(339,14,o),
(350,40,cs),
(388,134,o),
(475,337,o),
(596,586,cs),
(598,591,o),
(605,592,o),
(605,587,cs),
(614,515,o),
(586,269,o),
(538,42,cs),
(532,15,o),
(554,0,o),
(584,0,cs),
(612,0,o),
(634,14,o),
(637,41,cs),
(659,278,o),
(667,511,o),
(661,629,cs),
(659,653,o),
(639,667,o),
(612,667,cs),
(587,667,o),
(559,653,o),
(549,629,cs),
(463,435,o),
(372,247,o),
(326,125,cs),
(323,117,o),
(313,117,o),
(314,125,cs),
(320,247,o),
(309,435,o),
(305,629,cs),
(305,653,o),
(283,667,o),
(256,667,cs),
(231,667,o),
(205,653,o),
(193,629,cs),
(137,511,o),
(45,278,o),
(-33,41,cs),
(-42,14,o),
(-26,0,o),
(3,0,cs),
(32,0,o),
(57,13,o),
(62,38,cs),
(118,291,o),
(185,500,o),
(231,588,cs),
(233,593,o),
(240,592,o),
(240,587,cs)
);
}
);
width = 731;
}
);
metricLeft = "=V";
metricRight = "=V";
note = W;
unicode = 77;
userData = {
KernOnName = M;
};
},
{
glyphname = N;
kernLeft = KO_N;
kernRight = KO_N;
lastChange = "2025-01-04 00:23:34 +0000";
layers = (
{
anchors = (
{
name = bottom;
pos = (202,0);
},
{
name = top;
pos = (335,625);
}
);
hints = (
{
horizontal = 1;
place = (0,21);
target = up;
type = BottomGhost;
},
{
place = (-2,100);
type = Stem;
},
{
place = (381,97.5);
type = Stem;
}
);
layerId = m005;
shapes = (
{
closed = 1;
nodes = (
(386,0,o),
(420,28,o),
(428,67,cs),
(467,251,o),
(508,444,o),
(558,628,cs),
(565,656,o),
(537,677,o),
(507,677,cs),
(479,677,o),
(441,656,o),
(438,628,cs),
(416,484,o),
(393,373,o),
(364,234,cs),
(361,223,o),
(354,221,o),
(352,232,cs),
(329,386,o),
(265,555,o),
(224,626,cs),
(207,655,o),
(187,667,o),
(161,667,cs),
(130,667,o),
(88,639,o),
(82,600,cs),
(52,416,o),
(14,233,o),
(-36,49,cs),
(-43,21,o),
(-15,0,o),
(13,0,cs),
(43,0,o),
(81,21,o),
(84,49,cs),
(107,200,o),
(134,331,o),
(166,481,cs),
(167,486,o),
(174,488,o),
(176,484,cs),
(214,401,o),
(235,341,o),
(296,39,cs),
(301,15,o),
(319,0,o),
(344,0,cs)
);
}
);
width = 545;
},
{
anchors = (
{
name = bottom;
pos = (239,0);
},
{
name = top;
pos = (381,667);
}
);
hints = (
{
horizontal = 1;
place = (0,21);
target = up;
type = BottomGhost;
},
{
place = (-2,100);
type = Stem;
},
{
place = (381,97.5);
type = Stem;
}
);
layerId = m002;
shapes = (
{
closed = 1;
nodes = (
(459,-25,o),
(519,25,o),
(534,92,cs),
(573,276,o),
(603,418,o),
(652,600,cs),
(668,658,o),
(621,702,o),
(562,702,cs),
(505,702,o),
(440,658,o),
(432,600,cs),
(423,544,o),
(417,492,o),
(406,443,cs),
(404,432,o),
(397,435,o),
(395,440,cs),
(368,521,o),
(338,591,o),
(314,632,cs),
(289,677,o),
(253,692,o),
(216,692,cs),
(156,692,o),
(87,640,o),
(76,572,cs),
(47,390,o),
(19,259,o),
(-30,77,cs),
(-46,19,o),
(1,-25,o),
(58,-25,cs),
(117,-25,o),
(182,19,o),
(190,77,cs),
(202,157,o),
(215,233,o),
(231,308,cs),
(233,320,o),
(241,319,o),
(243,311,cs),
(260,254,o),
(276,169,o),
(302,45,cs),
(310,2,o),
(344,-25,o),
(389,-25,cs)
);
}
);
width = 620;
},
{
anchors = (
{
name = bottom;
pos = (189,0);
},
{
name = top;
pos = (331,667);
}
);
hints = (
{
horizontal = 1;
place = (0,21);
target = up;
type = BottomGhost;
},
{
place = (-2,100);
type = Stem;
},
{
place = (381,97.5);
type = Stem;
}
);
layerId = m003;
shapes = (
{
closed = 1;
nodes = (
(357,0,o),
(384,22,o),
(391,57,cs),
(431,241,o),
(475,451,o),
(525,636,cs),
(531,658,o),
(509,674,o),
(482,674,cs),
(457,674,o),
(427,658,o),
(425,636,cs),
(400,467,o),
(371,339,o),
(334,162,cs),
(332,152,o),
(323,149,o),
(321,160,cs),
(295,329,o),
(230,548,o),
(192,630,cs),
(178,659,o),
(160,667,o),
(136,667,cs),
(108,667,o),
(74,644,o),
(69,611,cs),
(40,426,o),
(-3,223,o),
(-53,38,cs),
(-59,16,o),
(-37,0,o),
(-12,0,cs),
(15,0,o),
(45,16,o),
(47,38,cs),
(71,200,o),
(105,358,o),
(140,521,cs),
(141,526,o),
(149,529,o),
(151,524,cs),
(193,415,o),
(227,285,o),
(279,33,cs),
(284,11,o),
(297,0,o),
(319,0,cs)
);
}
);
width = 520;
}
);
metricLeft = "=H";
metricRight = "=H";
note = N;
unicode = 78;
userData = {
KernOnName = N;
};
},
{
glyphname = O;
kernLeft = KO_O;
kernRight = KO_O;
lastChange = "2025-01-03 22:26:37 +0000";
layers = (
{
anchors = (
{
name = bottom;
pos = (214,0);
},
{
name = center;
pos = (285,334);
},
{
name = ogonek;
pos = (444,10);
},
{
name = top;
pos = (347,625);
},
{
name = topleft;
pos = (91,667);
},
{
name = topright;
pos = (621,667);
}
);
hints = (
{
horizontal = 1;
place = (-10,80);
type = Stem;
},
{
horizontal = 1;
place = (597,80);
type = Stem;
},
{
place = (-36,110);
type = Stem;
},
{
place = (354,110);
type = Stem;
}
);
layerId = m005;
shapes = (
{
closed = 1;
nodes = (
(533,347,cs),
(572,530,o),
(512,677,o),
(358,677,cs),
(204,677,o),
(84,539,o),
(43,347,cs),
(-7,110,o),
(36,-21,o),
(222,-10,cs),
(388,0,o),
(483,110,o)
);
},
{
closed = 1;
nodes = (
(143,347,ls),
(172,483,o),
(246,597,o),
(341,597,cs),
(436,597,o),
(462,483,o),
(433,347,cs),
(427,320,ls),
(394,163,o),
(328,90,o),
(231,80,cs),
(135,70,o),
(104,163,o),
(137,320,cs)
);
}
);
width = 570;
},
{
anchors = (
{
name = bottom;
pos = (214,0);
},
{
name = center;
pos = (285,334);
},
{
name = ogonek;
pos = (444,10);
},
{
name = top;
pos = (347,625);
},
{
name = topleft;
pos = (91,667);
},
{
name = topright;
pos = (621,667);
}
);
hints = (
{
horizontal = 1;
place = (-10,80);
type = Stem;
},
{
horizontal = 1;
place = (597,80);
type = Stem;
},
{
place = (-36,110);
type = Stem;
},
{
place = (354,110);
type = Stem;
}
);
layerId = m002;
shapes = (
{
closed = 1;
nodes = (
(583,347,cs),
(619,516,o),
(549,690,o),
(364,692,cs),
(178,694,o),
(32,529,o),
(-7,347,cs),
(-55,123,o),
(-2,-38,o),
(222,-25,cs),
(419,-13,o),
(536,124,o)
);
},
{
closed = 1;
nodes = (
(193,347,ls),
(212,438,o),
(261,512,o),
(323,512,cs),
(385,512,o),
(402,438,o),
(383,347,cs),
(377,320,ls),
(354,213,o),
(318,172,o),
(244,165,cs),
(182,158,o),
(164,211,o),
(187,320,cs)
);
}
);
width = 570;
},
{
anchors = (
{
name = bottom;
pos = (214,0);
},
{
name = center;
pos = (285,334);
},
{
name = ogonek;
pos = (444,10);
},
{
name = top;
pos = (347,625);
},
{
name = topleft;
pos = (91,667);
},
{
name = topright;
pos = (621,667);
}
);
hints = (
{
horizontal = 1;
place = (-10,80);
type = Stem;
},
{
horizontal = 1;
place = (597,80);
type = Stem;
},
{
place = (-36,110);
type = Stem;
},
{
place = (354,110);
type = Stem;
}
);
layerId = m003;
shapes = (
{
closed = 1;
nodes = (
(523,347,cs),
(563,534,o),
(505,674,o),
(356,674,cs),
(208,674,o),
(95,543,o),
(53,347,cs),
(2,106,o),
(42,-18,o),
(222,-7,cs),
(383,3,o),
(472,106,o)
);
},
{
closed = 1;
nodes = (
(133,347,ls),
(164,493,o),
(242,614,o),
(345,614,cs),
(448,614,o),
(474,493,o),
(443,347,cs),
(437,320,ls),
(401,152,o),
(332,74,o),
(229,63,cs),
(124,52,o),
(91,151,o),
(127,320,cs)
);
}
);
width = 570;
}
);
note = O;
unicode = 79;
userData = {
KernOnName = O;
};
},
{
glyphname = Oslash;
kernLeft = KO_O;
kernRight = KO_O;
lastChange = "2024-12-25 18:47:36 +0000";
layers = (
{
hints = (
{
horizontal = 1;
place = (-10,80);
type = Stem;
},
{
horizontal = 1;
place = (597,80);
type = Stem;
},
{
place = (35,110);
type = Stem;
},
{
place = (425,110);
type = Stem;
}
);
layerId = m005;
shapes = (
{
closed = 1;
nodes = (
(140,-35,o),
(168,-19,o),
(177,3,cs),
(265,213,o),
(363,423,o),
(471,633,cs),
(482,654,o),
(465,671,o),
(444,681,cs),
(441,682,ls),
(420,692,o),
(403,686,o),
(393,664,cs),
(295,454,o),
(197,244,o),
(89,34,cs),
(78,13,o),
(95,-14,o),
(116,-24,cs),
(119,-25,ls)
);
},
{
ref = O;
}
);
width = 570;
},
{
hints = (
{
horizontal = 1;
place = (-10,80);
type = Stem;
},
{
horizontal = 1;
place = (597,80);
type = Stem;
},
{
place = (35,110);
type = Stem;
},
{
place = (425,110);
type = Stem;
}
);
layerId = m002;
shapes = (
{
closed = 1;
nodes = (
(147,-91,o),
(208,-64,o),
(223,-16,cs),
(286,193,o),
(388,401,o),
(515,610,cs),
(542,654,o),
(517,703,o),
(462,728,cs),
(459,729,ls),
(414,748,o),
(365,733,o),
(348,685,cs),
(275,475,o),
(177,266,o),
(45,57,cs),
(17,12,o),
(49,-49,o),
(98,-71,cs),
(101,-72,ls)
);
},
{
ref = O;
}
);
width = 570;
},
{
hints = (
{
horizontal = 1;
place = (-10,80);
type = Stem;
},
{
horizontal = 1;
place = (597,80);
type = Stem;
},
{
place = (35,110);
type = Stem;
},
{
place = (425,110);
type = Stem;
}
);
layerId = m003;
shapes = (
{
closed = 1;
nodes = (
(140,-31,o),
(166,-17,o),
(174,4,cs),
(262,214,o),
(360,424,o),
(468,634,cs),
(478,653,o),
(463,669,o),
(443,678,cs),
(440,679,ls),
(420,689,o),
(405,683,o),
(396,663,cs),
(298,453,o),
(200,243,o),
(92,33,cs),
(82,13,o),
(97,-12,o),
(117,-21,cs),
(120,-22,ls)
);
},
{
ref = O;
}
);
width = 570;
}
);
note = O;
unicode = 216;
},
{
glyphname = OE;
kernLeft = KO_O;
kernRight = KO_E;
lastChange = "2025-01-04 00:23:34 +0000";
layers = (
{
hints = (
{
horizontal = 1;
place = (0,75);
type = Stem;
},
{
horizontal = 1;
place = (305,74);
type = Stem;
},
{
horizontal = 1;
place = (592,75);
type = Stem;
},
{
place = (35,110);
type = Stem;
},
{
place = (425,100);
type = Stem;
},
{
horizontal = 1;
place = (-10,80);
type = Stem;
},
{
horizontal = 1;
place = (597,80);
type = Stem;
}
);
layerId = m005;
shapes = (
{
pos = (337,0);
ref = E;
},
{
closed = 1;
nodes = (
(388,0,o),
(433,110,o),
(483,347,cs),
(522,530,o),
(512,677,o),
(358,677,cs),
(204,677,o),
(84,539,o),
(43,347,cs),
(-7,110,o),
(36,-21,o),
(222,-10,cs)
);
},
{
closed = 1;
nodes = (
(143,347,ls),
(172,483,o),
(246,597,o),
(341,597,cs),
(436,597,o),
(462,483,o),
(433,347,cs),
(427,320,ls),
(394,163,o),
(328,90,o),
(231,80,cs),
(135,70,o),
(104,163,o),
(137,320,cs)
);
}
);
width = 848;
},
{
hints = (
{
horizontal = 1;
place = (0,75);
type = Stem;
},
{
horizontal = 1;
place = (305,74);
type = Stem;
},
{
horizontal = 1;
place = (592,75);
type = Stem;
},
{
place = (35,110);
type = Stem;
},
{
place = (425,100);
type = Stem;
},
{
horizontal = 1;
place = (-10,80);
type = Stem;
},
{
horizontal = 1;
place = (597,80);
type = Stem;
}
);
layerId = m002;
shapes = (
{
pos = (338,0);
ref = E;
},
{
closed = 1;
nodes = (
(420,-13,o),
(486,124,o),
(533,347,cs),
(569,516,o),
(549,690,o),
(364,692,cs),
(178,694,o),
(32,529,o),
(-7,347,cs),
(-55,123,o),
(-2,-38,o),
(222,-25,cs)
);
},
{
closed = 1;
nodes = (
(193,347,ls),
(212,438,o),
(261,512,o),
(323,512,cs),
(385,512,o),
(402,438,o),
(383,347,cs),
(377,320,ls),
(355,213,o),
(318,172,o),
(244,165,cs),
(182,158,o),
(164,211,o),
(187,320,cs)
);
}
);
width = 912;
},
{
hints = (
{
horizontal = 1;
place = (0,75);
type = Stem;
},
{
horizontal = 1;
place = (305,74);
type = Stem;
},
{
horizontal = 1;
place = (592,75);
type = Stem;
},
{
place = (35,110);
type = Stem;
},
{
place = (425,100);
type = Stem;
},
{
horizontal = 1;
place = (-10,80);
type = Stem;
},
{
horizontal = 1;
place = (597,80);
type = Stem;
}
);
layerId = m003;
shapes = (
{
pos = (363,0);
ref = E;
},
{
closed = 1;
nodes = (
(383,3,o),
(422,106,o),
(473,347,c),
(513,534,o),
(506,674,o),
(357,674,cs),
(209,674,o),
(95,543,o),
(53,347,cs),
(2,106,o),
(42,-18,o),
(222,-7,cs)
);
},
{
closed = 1;
nodes = (
(133,347,ls),
(164,493,o),
(242,614,o),
(345,614,cs),
(448,614,o),
(474,493,o),
(443,347,cs),
(437,320,ls),
(402,152,o),
(332,74,o),
(229,63,cs),
(124,52,o),
(91,151,o),
(127,320,cs)
);
}
);
width = 869;
}
);
metricLeft = "=O";
metricRight = "=E";
note = OE;
unicode = 338;
},
{
glyphname = P;
kernLeft = KO_N;
kernRight = KO_P;
lastChange = "2025-01-04 00:23:34 +0000";
layers = (
{
hints = (
{
horizontal = 1;
place = (0,21);
target = up;
type = BottomGhost;
},
{
horizontal = 1;
place = (282,67);
type = Stem;
},
{
horizontal = 1;
place = (598,69);
type = Stem;
},
{
place = (-2,100);
type = Stem;
},
{
place = (334,99);
type = Stem;
}
);
layerId = m005;
shapes = (
{
closed = 1;
nodes = (
(44,0,o),
(84,21,o),
(86,50,cs),
(93,125,o),
(107,199,o),
(123,274,cs),
(125,281,o),
(132,286,o),
(138,284,cs),
(154,282,o),
(182,277,o),
(208,277,cs),
(372,277,o),
(490,355,o),
(515,477,cs),
(541,599,o),
(466,677,o),
(303,677,cs),
(227,677,o),
(187,673,o),
(156,667,cs),
(129,662,o),
(89,646,o),
(85,617,cs),
(55,428,o),
(14,239,o),
(-35,50,cs),
(-42,21,o),
(-15,0,o),
(14,0,cs)
);
},
{
closed = 1;
nodes = (
(222,597,o),
(255,597,o),
(287,597,cs),
(392,597,o),
(432,552,o),
(416,477,cs),
(400,402,o),
(340,357,o),
(236,357,cs),
(196,357,o),
(163,363,o),
(150,365,cs),
(145,366,o),
(143,370,o),
(144,375,cs),
(158,442,o),
(173,511,o),
(178,578,cs),
(178,584,o),
(182,588,o),
(187,589,cs)
);
}
);
width = 484;
},
{
hints = (
{
horizontal = 1;
place = (0,21);
target = up;
type = BottomGhost;
},
{
horizontal = 1;
place = (282,67);
type = Stem;
},
{
horizontal = 1;
place = (598,69);
type = Stem;
},
{
place = (-1,100);
type = Stem;
},
{
place = (335,99);
type = Stem;
}
);
layerId = m002;
shapes = (
{
closed = 1;
nodes = (
(119,-25,o),
(188,21,o),
(193,82,cs),
(195,128,o),
(201,158,o),
(209,200,cs),
(211,217,o),
(226,228,o),
(241,227,cs),
(243,227,o),
(245,227,o),
(247,227,cs),
(435,227,o),
(585,334,o),
(612,460,cs),
(647,627,o),
(544,692,o),
(356,692,cs),
(277,692,o),
(233,687,o),
(199,681,cs),
(146,671,o),
(85,636,o),
(77,579,cs),
(47,392,o),
(19,265,o),
(-30,77,cs),
(-44,19,o),
(1,-25,o),
(59,-25,cs)
);
},
{
closed = 1;
nodes = (
(302,512,o),
(310,512,o),
(319,512,cs),
(405,512,o),
(417,478,o),
(413,460,cs),
(408,435,o),
(382,407,o),
(297,407,cs),
(289,407,o),
(281,407,o),
(273,408,cs),
(260,409,o),
(253,419,o),
(256,433,cs),
(259,452,o),
(261,464,o),
(264,483,cs),
(266,499,o),
(279,512,o),
(293,512,cs)
);
}
);
width = 578;
},
{
hints = (
{
horizontal = 1;
place = (0,21);
target = up;
type = BottomGhost;
},
{
horizontal = 1;
place = (282,67);
type = Stem;
},
{
horizontal = 1;
place = (598,69);
type = Stem;
},
{
place = (-2,100);
type = Stem;
},
{
place = (334,99);
type = Stem;
}
);
layerId = m003;
shapes = (
{
closed = 1;
nodes = (
(16,0,o),
(47,16,o),
(49,39,cs),
(55,120,o),
(75,209,o),
(92,290,cs),
(93,295,o),
(98,298,o),
(102,297,cs),
(125,292,o),
(158,287,o),
(185,287,cs),
(346,287,o),
(457,364,o),
(482,481,cs),
(508,605,o),
(437,674,o),
(278,674,cs),
(203,674,o),
(163,670,o),
(133,664,cs),
(106,659,o),
(75,647,o),
(72,625,cs),
(42,435,o),
(-3,229,o),
(-52,40,cs),
(-58,16,o),
(-37,0,o),
(-11,0,cs)
);
},
{
closed = 1;
nodes = (
(192,614,o),
(230,614,o),
(266,614,cs),
(377,614,o),
(421,568,o),
(403,481,cs),
(385,400,o),
(318,347,o),
(209,347,cs),
(169,347,o),
(131,353,o),
(110,358,cs),
(108,359,o),
(106,361,o),
(107,364,cs),
(123,440,o),
(140,521,o),
(146,595,cs),
(146,599,o),
(148,602,o),
(152,603,cs)
);
}
);
width = 452;
}
);
metricLeft = "=H";
metricRight = "=H/4";
note = P;
unicode = 80;
userData = {
KernOnName = P;
};
},
{
glyphname = Thorn;
lastChange = "2025-01-04 00:23:34 +0000";
layers = (
{
hints = (
{
horizontal = 1;
place = (0,21);
target = up;
type = BottomGhost;
},
{
horizontal = 1;
place = (140,67);
type = Stem;
},
{
horizontal = 1;
place = (456,69);
type = Stem;
},
{
place = (-1,100);
type = Stem;
},
{
place = (335,99);
type = Stem;
}
);
layerId = m005;
shapes = (
{
closed = 1;
nodes = (
(15,0,ls),
(46,0,o),
(68,18,o),
(75,49,cs),
(96,150,l),
(188,140,ls),
(347,123,o),
(459,218,o),
(485,340,cs),
(511,462,o),
(435,530,o),
(271,530,cs),
(176,530,l),
(194,618,ls),
(201,649,o),
(197,667,o),
(166,667,cs),
(164,667,ls),
(133,667,o),
(101,649,o),
(94,618,cs),
(54,428,o),
(14,239,o),
(-36,49,cs),
(-45,18,o),
(-19,0,o),
(12,0,cs)
);
},
{
closed = 1;
nodes = (
(255,450,ls),
(360,450,o),
(402,415,o),
(386,340,cs),
(370,265,o),
(311,219,o),
(207,225,cs),
(113,230,l),
(159,450,l)
);
}
);
width = 483;
},
{
hints = (
{
horizontal = 1;
place = (0,21);
target = up;
type = BottomGhost;
},
{
horizontal = 1;
place = (140,67);
type = Stem;
},
{
horizontal = 1;
place = (456,69);
type = Stem;
},
{
place = (-1,100);
type = Stem;
},
{
place = (335,99);
type = Stem;
}
);
layerId = m002;
shapes = (
{
closed = 1;
nodes = (
(61,-25,ls),
(120,-25,o),
(168,15,o),
(181,74,cs),
(190,119,l),
(229,115,ls),
(419,95,o),
(560,215,o),
(586,340,cs),
(613,467,o),
(517,555,o),
(327,555,cs),
(282,555,l),
(290,593,ls),
(306,669,o),
(265,692,o),
(222,692,cs),
(220,692,ls),
(161,692,o),
(103,652,o),
(90,593,cs),
(50,403,o),
(20,265,o),
(-30,77,cs),
(-46,17,o),
(-3,-25,o),
(58,-25,cs)
);
},
{
closed = 1;
nodes = (
(290,375,ls),
(369,375,o),
(391,358,o),
(387,340,cs),
(383,320,o),
(352,296,o),
(277,300,cs),
(229,302,l),
(244,375,l)
);
}
);
width = 578;
},
{
hints = (
{
horizontal = 1;
place = (0,21);
target = up;
type = BottomGhost;
},
{
horizontal = 1;
place = (140,67);
type = Stem;
},
{
horizontal = 1;
place = (456,69);
type = Stem;
},
{
place = (-1,100);
type = Stem;
},
{
place = (335,99);
type = Stem;
}
);
layerId = m003;
shapes = (
{
closed = 1;
nodes = (
(-3,-4,ls),
(26,-4,o),
(47,13,o),
(53,42,cs),
(77,153,l),
(172,143,ls),
(329,126,o),
(440,220,o),
(465,340,cs),
(491,460,o),
(416,527,o),
(253,527,cs),
(155,527,l),
(176,625,ls),
(182,655,o),
(179,671,o),
(150,671,cs),
(148,671,ls),
(118,671,o),
(88,654,o),
(82,625,cs),
(42,435,o),
(-2,232,o),
(-52,42,cs),
(-60,13,o),
(-36,-4,o),
(-6,-4,cs)
);
},
{
closed = 1;
nodes = (
(238,453,ls),
(344,453,o),
(389,417,o),
(372,340,cs),
(356,263,o),
(294,216,o),
(189,222,cs),
(92,227,l),
(139,453,l)
);
}
);
width = 465;
}
);
metricLeft = "=P";
metricRight = "=P";
note = Thorn;
unicode = 222;
},
{
glyphname = Q;
kernLeft = KO_O;
kernRight = KO_O;
lastChange = "2025-01-04 00:23:34 +0000";
layers = (
{
anchors = (
{
name = bottom;
pos = (214,0);
},
{
name = center;
pos = (285,334);
},
{
name = ogonek;
pos = (444,10);
},
{
name = top;
pos = (347,625);
},
{
name = topleft;
pos = (91,667);
},
{
name = topright;
pos = (621,667);
}
);
hints = (
{
horizontal = 1;
place = (-200,70);
type = Stem;
},
{
horizontal = 1;
place = (-7,21);
target = up;
type = BottomGhost;
},
{
horizontal = 1;
place = (597,80);
type = Stem;
},
{
place = (-16,110);
type = Stem;
},
{
place = (374,110);
type = Stem;
},
{
horizontal = 1;
place = (-7,77);
type = Stem;
},
{
horizontal = 1;
place = (-10,80);
type = Stem;
},
{
horizontal = 1;
place = (597,80);
type = Stem;
},
{
place = (-16,110);
type = Stem;
},
{
place = (374,110);
type = Stem;
}
);
layerId = m005;
shapes = (
{
closed = 1;
nodes = (
(533,347,cs),
(572,530,o),
(512,677,o),
(358,677,cs),
(204,677,o),
(84,539,o),
(43,347,cs),
(-2,138,o),
(29,22,o),
(159,-4,cs),
(165,-6,o),
(167,-9,o),
(166,-15,cs),
(150,-116,o),
(203,-184,o),
(303,-198,cs),
(325,-200,o),
(344,-184,o),
(348,-163,cs),
(353,-143,o),
(342,-131,o),
(325,-127,cs),
(272,-117,o),
(247,-80,o),
(256,-18,cs),
(257,-11,o),
(260,-8,o),
(267,-7,cs),
(404,14,o),
(487,132,o)
);
},
{
closed = 1;
nodes = (
(143,347,ls),
(172,483,o),
(246,597,o),
(341,597,cs),
(436,597,o),
(462,483,o),
(433,347,cs),
(427,320,ls),
(394,163,o),
(328,90,o),
(231,80,cs),
(135,70,o),
(104,163,o),
(137,320,cs)
);
}
);
width = 570;
},
{
anchors = (
{
name = bottom;
pos = (214,0);
},
{
name = center;
pos = (285,334);
},
{
name = ogonek;
pos = (444,10);
},
{
name = top;
pos = (347,625);
},
{
name = topleft;
pos = (91,667);
},
{
name = topright;
pos = (621,667);
}
);
hints = (
{
horizontal = 1;
place = (-200,70);
type = Stem;
},
{
horizontal = 1;
place = (-7,21);
target = up;
type = BottomGhost;
},
{
horizontal = 1;
place = (597,80);
type = Stem;
},
{
place = (-12,110);
type = Stem;
},
{
place = (378,110);
type = Stem;
},
{
horizontal = 1;
place = (-7,77);
type = Stem;
},
{
horizontal = 1;
place = (-10,80);
type = Stem;
},
{
horizontal = 1;
place = (597,80);
type = Stem;
},
{
place = (-12,110);
type = Stem;
},
{
place = (378,110);
type = Stem;
}
);
layerId = m002;
shapes = (
{
closed = 1;
nodes = (
(583,347,cs),
(619,516,o),
(549,690,o),
(364,692,cs),
(178,694,o),
(32,529,o),
(-7,347,cs),
(-46,166,o),
(-17,35,o),
(109,-9,cs),
(114,-10,o),
(116,-14,o),
(115,-20,cs),
(97,-147,o),
(167,-234,o),
(294,-250,cs),
(343,-256,o),
(388,-214,o),
(398,-165,cs),
(409,-113,o),
(378,-88,o),
(333,-77,cs),
(308,-71,o),
(301,-56,o),
(305,-23,cs),
(305,-17,o),
(309,-13,o),
(316,-11,cs),
(456,30,o),
(543,161,o)
);
},
{
closed = 1;
nodes = (
(193,347,ls),
(212,438,o),
(261,512,o),
(323,512,cs),
(385,512,o),
(402,438,o),
(383,347,cs),
(377,320,ls),
(354,213,o),
(318,172,o),
(244,165,cs),
(182,159,o),
(164,211,o),
(187,320,cs)
);
}
);
width = 570;
},
{
anchors = (
{
name = bottom;
pos = (214,0);
},
{
name = center;
pos = (285,334);
},
{
name = ogonek;
pos = (444,10);
},
{
name = top;
pos = (347,625);
},
{
name = topleft;
pos = (91,667);
},
{
name = topright;
pos = (621,667);
}
);
hints = (
{
horizontal = 1;
place = (-200,70);
type = Stem;
},
{
horizontal = 1;
place = (-7,21);
target = up;
type = BottomGhost;
},
{
horizontal = 1;
place = (597,80);
type = Stem;
},
{
place = (-17,110);
type = Stem;
},
{
place = (373,110);
type = Stem;
},
{
horizontal = 1;
place = (-7,77);
type = Stem;
},
{
horizontal = 1;
place = (-10,80);
type = Stem;
},
{
horizontal = 1;
place = (597,80);
type = Stem;
},
{
place = (-17,110);
type = Stem;
},
{
place = (373,110);
type = Stem;
}
);
layerId = m003;
shapes = (
{
closed = 1;
nodes = (
(523,347,cs),
(563,534,o),
(506,674,o),
(357,674,cs),
(209,674,o),
(95,543,o),
(53,347,cs),
(7,129,o),
(37,16,o),
(174,-3,cs),
(178,-4,o),
(179,-6,o),
(179,-10,cs),
(166,-115,o),
(214,-176,o),
(306,-188,cs),
(321,-190,o),
(336,-178,o),
(339,-163,cs),
(342,-149,o),
(335,-140,o),
(323,-138,cs),
(268,-128,o),
(241,-88,o),
(249,-13,cs),
(249,-8,o),
(251,-6,o),
(256,-5,cs),
(395,11,o),
(476,124,o)
);
},
{
closed = 1;
nodes = (
(133,347,ls),
(164,493,o),
(242,614,o),
(345,614,cs),
(448,614,o),
(474,493,o),
(443,347,cs),
(437,320,ls),
(402,152,o),
(330,64,o),
(229,63,cs),
(126,62,o),
(91,151,o),
(127,320,cs)
);
}
);
width = 570;
}
);
metricLeft = "=O";
metricRight = "=O";
note = Q;
unicode = 81;
userData = {
KernOnName = Q;
};
},
{
glyphname = R;
kernLeft = KO_N;
kernRight = KO_R;
lastChange = "2025-01-04 00:23:34 +0000";
layers = (
{
anchors = (
{
name = bottom;
pos = (184,0);
},
{
name = top;
pos = (316,625);
}
);
hints = (
{
horizontal = 1;
place = (0,21);
target = up;
type = BottomGhost;
},
{
horizontal = 1;
place = (282,67);
type = Stem;
},
{
horizontal = 1;
place = (598,69);
type = Stem;
},
{
place = (-2,100);
type = Stem;
},
{
place = (334,99);
type = Stem;
}
);
layerId = m005;
shapes = (
{
closed = 1;
nodes = (
(43,0,o),
(81,21,o),
(84,49,cs),
(91,129,o),
(108,208,o),
(125,288,cs),
(126,295,o),
(132,299,o),
(139,298,cs),
(158,295,o),
(197,290,o),
(220,290,cs),
(227,290,o),
(229,289,o),
(230,288,cs),
(254,258,o),
(304,178,o),
(305,40,cs),
(305,16,o),
(330,0,o),
(353,0,cs),
(387,0,o),
(427,29,o),
(425,65,cs),
(421,205,o),
(358,274,o),
(330,298,cs),
(327,301,o),
(328,304,o),
(332,305,cs),
(424,334,o),
(483,398,o),
(501,484,cs),
(526,602,o),
(457,682,o),
(303,682,cs),
(231,682,o),
(178,673,o),
(154,667,cs),
(127,660,o),
(90,646,o),
(85,618,cs),
(54,428,o),
(14,239,o),
(-36,49,cs),
(-43,21,o),
(-15,0,o),
(13,0,cs)
);
},
{
closed = 1;
nodes = (
(194,370,o),
(164,375,o),
(152,378,cs),
(148,379,o),
(146,383,o),
(147,387,cs),
(160,451,o),
(174,514,o),
(178,577,c),
(179,583,o),
(184,588,o),
(190,589,cs),
(208,591,o),
(249,597,o),
(286,597,cs),
(381,597,o),
(417,554,o),
(402,484,cs),
(387,413,o),
(333,370,o),
(238,370,cs)
);
}
);
width = 500;
},
{
anchors = (
{
name = bottom;
pos = (228,0);
},
{
name = top;
pos = (361,625);
}
);
hints = (
{
horizontal = 1;
place = (0,21);
target = up;
type = BottomGhost;
},
{
horizontal = 1;
place = (282,67);
type = Stem;
},
{
horizontal = 1;
place = (598,69);
type = Stem;
},
{
place = (-1,100);
type = Stem;
},
{
place = (335,99);
type = Stem;
}
);
layerId = m002;
shapes = (
{
closed = 1;
nodes = (
(118,-25,o),
(185,21,o),
(191,80,cs),
(195,132,o),
(201,166,o),
(210,213,cs),
(212,223,o),
(217,232,o),
(223,237,cs),
(228,240,o),
(232,241,o),
(237,241,cs),
(242,240,o),
(246,238,o),
(248,235,cs),
(291,179,o),
(310,131,o),
(310,55,cs),
(310,7,o),
(351,-25,o),
(398,-25,cs),
(465,-25,o),
(535,35,o),
(533,102,cs),
(531,178,o),
(511,232,o),
(484,273,cs),
(477,285,o),
(481,300,o),
(495,310,cs),
(549,350,o),
(585,403,o),
(598,464,cs),
(625,590,o),
(538,692,o),
(356,692,cs),
(280,692,o),
(219,682,o),
(194,675,cs),
(142,662,o),
(86,632,o),
(77,576,cs),
(46,387,o),
(20,265,o),
(-30,76,cs),
(-44,19,o),
(1,-25,o),
(58,-25,cs)
);
},
{
closed = 1;
nodes = (
(292,420,o),
(284,420,o),
(277,421,cs),
(264,421,o),
(257,432,o),
(260,446,cs),
(261,457,o),
(263,467,o),
(265,478,cs),
(266,493,o),
(277,505,o),
(293,506,cs),
(301,507,o),
(310,507,o),
(318,507,cs),
(393,507,o),
(405,493,o),
(399,464,cs),
(392,434,o),
(374,420,o),
(299,420,cs)
);
}
);
width = 588;
},
{
anchors = (
{
name = bottom;
pos = (169,0);
},
{
name = top;
pos = (301,625);
}
);
hints = (
{
horizontal = 1;
place = (0,21);
target = up;
type = BottomGhost;
},
{
horizontal = 1;
place = (282,67);
type = Stem;
},
{
horizontal = 1;
place = (598,69);
type = Stem;
},
{
place = (-2,100);
type = Stem;
},
{
place = (334,99);
type = Stem;
}
);
layerId = m003;
shapes = (
{
closed = 1;
nodes = (
(15,0,o),
(44,16,o),
(47,38,cs),
(55,123,o),
(75,217,o),
(93,303,cs),
(94,308,o),
(99,311,o),
(103,310,cs),
(134,305,o),
(174,300,o),
(197,300,cs),
(208,300,o),
(210,299,o),
(211,298,cs),
(233,271,o),
(288,179,o),
(288,32,cs),
(288,12,o),
(308,0,o),
(328,0,cs),
(358,0,o),
(389,23,o),
(388,53,cs),
(384,208,o),
(307,281,o),
(283,301,cs),
(281,303,o),
(282,307,o),
(286,308,cs),
(386,334,o),
(449,400,o),
(467,489,cs),
(494,613,o),
(428,682,o),
(278,682,cs),
(207,682,o),
(155,673,o),
(132,667,cs),
(105,661,o),
(75,649,o),
(72,628,cs),
(42,438,o),
(-3,229,o),
(-53,39,cs),
(-59,16,o),
(-37,0,o),
(-12,0,cs)
);
},
{
closed = 1;
nodes = (
(165,360,o),
(129,366,o),
(113,372,c),
(111,372,o),
(109,375,o),
(110,378,cs),
(125,448,o),
(142,528,o),
(147,598,cs),
(146,602,o),
(150,606,o),
(154,606,c),
(183,611,o),
(229,617,o),
(266,617,cs),
(366,617,o),
(407,575,o),
(388,489,cs),
(372,412,o),
(311,360,o),
(211,360,cs)
);
}
);
width = 470;
}
);
metricLeft = "=H";
metricRight = "=H/2";
note = P;
unicode = 82;
userData = {
KernOnName = R;
};
},
{
glyphname = S;
kernLeft = KO_S;
kernRight = KO_S;
lastChange = "2025-01-04 00:23:34 +0000";
layers = (
{
anchors = (
{
name = bottom;
pos = (126,0);
},
{
name = top;
pos = (268,625);
}
);
hints = (
{
horizontal = 1;
place = (-10,85);
type = Stem;
},
{
horizontal = 1;
place = (597,80);
type = Stem;
},
{
place = (-30,90);
type = Stem;
},
{
place = (260,110);
type = Stem;
}
);
layerId = m005;
shapes = (
{
closed = 1;
nodes = (
(422,298,o),
(366,369,o),
(241,400,cs),
(172,416,o),
(144,448,o),
(155,500,cs),
(169,562,o),
(207,597,o),
(263,597,cs),
(291,597,o),
(311,582,o),
(327,571,cs),
(346,558,o),
(374,565,o),
(395,582,cs),
(401,587,ls),
(424,606,o),
(420,627,o),
(402,642,cs),
(370,665,o),
(331,677,o),
(280,677,cs),
(172,677,o),
(88,607,o),
(65,499,cs),
(46,408,o),
(90,340,o),
(192,310,cs),
(273,286,o),
(311,246,o),
(302,200,cs),
(284,116,o),
(229,80,o),
(143,80,cs),
(106,80,o),
(73,96,o),
(45,116,cs),
(27,129,o),
(-20,99,o),
(-28,67,cs),
(-34,45,o),
(-32,26,o),
(-10,16,cs),
(30,-1,o),
(77,-10,o),
(124,-10,cs),
(265,-10,o),
(375,73,o),
(402,200,cs)
);
}
);
width = 442;
},
{
anchors = (
{
name = bottom;
pos = (152,0);
},
{
name = top;
pos = (294,625);
}
);
hints = (
{
horizontal = 1;
place = (-10,85);
type = Stem;
},
{
horizontal = 1;
place = (597,80);
type = Stem;
},
{
place = (-30,90);
type = Stem;
},
{
place = (260,110);
type = Stem;
}
);
layerId = m002;
shapes = (
{
closed = 1;
nodes = (
(504,324,o),
(432,413,o),
(289,449,cs),
(242,460,o),
(227,470,o),
(229,490,cs),
(232,504,o),
(247,512,o),
(271,512,cs),
(284,512,o),
(293,505,o),
(311,493,cs),
(347,468,o),
(400,478,o),
(441,512,cs),
(447,517,ls),
(496,557,o),
(500,614,o),
(456,649,cs),
(418,677,o),
(369,692,o),
(309,692,cs),
(173,692,o),
(70,634,o),
(41,499,cs),
(17,385,o),
(72,298,o),
(194,262,cs),
(263,242,o),
(283,227,o),
(278,200,cs),
(272,174,o),
(249,165,o),
(202,165,cs),
(160,165,o),
(138,175,o),
(113,193,cs),
(65,228,o),
(-31,171,o),
(-45,102,cs),
(-54,59,o),
(-46,23,o),
(-6,5,cs),
(39,-15,o),
(94,-25,o),
(147,-25,cs),
(314,-25,o),
(444,44,o),
(478,200,cs)
);
}
);
width = 493;
},
{
anchors = (
{
name = bottom;
pos = (121,0);
},
{
name = top;
pos = (263,625);
}
);
hints = (
{
horizontal = 1;
place = (-10,85);
type = Stem;
},
{
horizontal = 1;
place = (597,80);
type = Stem;
},
{
place = (-30,90);
type = Stem;
},
{
place = (260,110);
type = Stem;
}
);
layerId = m003;
shapes = (
{
closed = 1;
nodes = (
(407,294,o),
(353,360,o),
(231,390,cs),
(159,407,o),
(128,443,o),
(140,500,cs),
(155,567,o),
(200,614,o),
(262,614,cs),
(293,614,o),
(314,598,o),
(331,587,cs),
(347,576,o),
(368,581,o),
(386,596,cs),
(392,601,ls),
(409,615,o),
(408,628,o),
(390,641,cs),
(361,663,o),
(324,674,o),
(274,674,cs),
(170,674,o),
(92,603,o),
(70,499,cs),
(52,412,o),
(92,349,o),
(191,320,cs),
(275,295,o),
(318,252,o),
(307,200,cs),
(287,110,o),
(226,63,o),
(135,63,cs),
(96,63,o),
(59,80,o),
(32,101,cs),
(18,110,o),
(-18,87,o),
(-24,60,cs),
(-29,39,o),
(-29,26,o),
(-11,18,cs),
(29,2,o),
(74,-7,o),
(120,-7,cs),
(257,-7,o),
(360,77,o),
(387,200,cs)
);
}
);
width = 432;
}
);
metricLeft = "=O/2";
metricRight = "=O/2";
note = S;
unicode = 83;
userData = {
KernOnName = S;
};
},
{
glyphname = Germandbls;
kernLeft = KO_N;
kernRight = KO_S;
lastChange = "2025-01-04 00:23:34 +0000";
layers = (
{
layerId = m005;
shapes = (
{
closed = 1;
nodes = (
(113,229,o),
(151,408,o),
(189,587,c),
(406,587,l),
(238,401,ls),
(212,372,o),
(216,346,o),
(249,337,cs),
(289,325,l),
(337,310,ls),
(416,285,o),
(459,257,o),
(449,211,cs),
(431,127,o),
(374,81,o),
(288,81,cs),
(250,81,o),
(228,107,o),
(197,118,cs),
(178,125,o),
(146,100,o),
(131,81,cs),
(128,77,ls),
(113,56,o),
(114,37,o),
(134,28,cs),
(175,10,o),
(221,-9,o),
(269,-9,cs),
(410,-9,o),
(522,84,o),
(549,211,cs),
(570,309,o),
(511,369,o),
(386,400,cs),
(360,406,l),
(545,617,ls),
(564,638,o),
(569,667,o),
(544,667,cs),
(155,667,ls),
(124,667,o),
(90,649,o),
(85,618,cs),
(55,428,o),
(15,240,o),
(-35,50,cs),
(-44,19,o),
(-20,-9,o),
(11,-9,cs),
(13,-9,ls),
(44,-9,o),
(80,19,o),
(85,50,cs)
);
}
);
width = 586;
},
{
layerId = m002;
shapes = (
{
closed = 1;
nodes = (
(220,258,o),
(239,350,o),
(273,512,c),
(435,512,l),
(343,429,ls),
(286,378,o),
(301,307,o),
(366,289,cs),
(405,277,l),
(453,262,ls),
(517,242,o),
(543,230,o),
(540,215,cs),
(532,179,o),
(504,159,o),
(446,165,cs),
(425,167,o),
(409,186,o),
(370,199,cs),
(328,215,o),
(273,182,o),
(240,139,cs),
(236,134,ls),
(202,87,o),
(208,36,o),
(253,16,cs),
(294,-3,o),
(349,-25,o),
(406,-25,cs),
(575,-25,o),
(713,91,o),
(746,245,cs),
(772,368,o),
(704,401,o),
(602,435,cs),
(589,439,l),
(716,564,ls),
(768,615,o),
(757,692,o),
(689,692,cs),
(210,692,ls),
(149,692,o),
(88,650,o),
(80,590,cs),
(50,402,o),
(25,285,o),
(-25,97,cs),
(-42,37,o),
(0,-15,o),
(60,-15,cs),
(62,-15,ls),
(122,-15,o),
(186,37,o),
(195,97,cs)
);
}
);
width = 751;
},
{
layerId = m003;
shapes = (
{
closed = 1;
nodes = (
(92,229,o),
(131,413,o),
(169,593,c),
(395,593,l),
(222,402,ls),
(199,375,o),
(202,351,o),
(233,343,cs),
(273,331,l),
(321,316,ls),
(401,291,o),
(442,248,o),
(431,200,cs),
(413,114,o),
(355,67,o),
(267,67,cs),
(228,67,o),
(205,93,o),
(175,104,cs),
(158,111,o),
(127,87,o),
(114,69,cs),
(111,65,ls),
(95,45,o),
(97,28,o),
(115,20,cs),
(156,2,o),
(202,-17,o),
(249,-17,cs),
(388,-17,o),
(499,75,o),
(525,200,cs),
(547,300,o),
(490,369,o),
(367,400,cs),
(337,407,l),
(526,622,ls),
(543,642,o),
(548,667,o),
(526,667,cs),
(137,667,ls),
(107,667,o),
(75,650,o),
(71,621,cs),
(41,431,o),
(0,239,o),
(-51,49,cs),
(-59,20,o),
(-36,-7,o),
(-7,-7,cs),
(-5,-7,ls),
(24,-7,o),
(59,20,o),
(63,49,cs)
);
}
);
width = 570;
}
);
metricLeft = "=H";
metricRight = "=S";
unicode = 7838;
},
{
glyphname = T;
kernLeft = KO_T;
kernRight = KO_T;
lastChange = "2025-01-04 00:23:34 +0000";
layers = (
{
anchors = (
{
name = bottom;
pos = (183,0);
},
{
name = center;
pos = (254,334);
},
{
name = top;
pos = (316,625);
}
);
hints = (
{
horizontal = 1;
place = (0,21);
target = up;
type = BottomGhost;
},
{
place = (-1,100);
type = Stem;
}
);
layerId = m005;
shapes = (
{
closed = 1;
nodes = (
(280,217,o),
(317,395,o),
(355,574,cs),
(356,580,o),
(361,584,o),
(367,584,cs),
(409,583,o),
(451,581,o),
(492,577,cs),
(516,575,o),
(536,601,o),
(541,626,cs),
(547,653,o),
(538,679,o),
(513,677,cs),
(387,667,o),
(261,657,o),
(139,667,cs),
(114,669,o),
(97,653,o),
(91,626,cs),
(86,601,o),
(94,575,o),
(120,577,cs),
(163,581,o),
(205,583,o),
(247,584,cs),
(253,584,o),
(256,580,o),
(255,574,cs),
(217,394,o),
(179,221,o),
(131,39,cs),
(124,8,o),
(149,-10,o),
(182,-10,cs),
(213,-10,o),
(246,8,o),
(251,39,cs)
);
}
);
width = 490;
},
{
anchors = (
{
name = bottom;
pos = (207,0);
},
{
name = center;
pos = (278,334);
},
{
name = top;
pos = (340,625);
}
);
hints = (
{
horizontal = 1;
place = (0,21);
target = up;
type = BottomGhost;
},
{
place = (-1,100);
type = Stem;
}
);
layerId = m002;
shapes = (
{
closed = 1;
nodes = (
(356,221,o),
(373,311,o),
(402,445,cs),
(409,479,o),
(431,497,o),
(463,495,cs),
(473,494,o),
(483,493,o),
(493,492,cs),
(547,488,o),
(596,536,o),
(608,591,cs),
(620,648,o),
(591,696,o),
(535,692,cs),
(409,682,o),
(288,672,o),
(170,682,cs),
(116,686,o),
(70,647,o),
(58,591,cs),
(46,536,o),
(74,488,o),
(130,492,cs),
(143,493,o),
(157,494,o),
(170,495,cs),
(198,497,o),
(208,479,o),
(201,445,cs),
(172,312,o),
(152,225,o),
(113,76,cs),
(98,16,o),
(141,-25,o),
(203,-25,cs),
(262,-25,o),
(321,16,o),
(332,76,cs)
);
}
);
width = 540;
},
{
anchors = (
{
name = bottom;
pos = (178,0);
},
{
name = center;
pos = (249,334);
},
{
name = top;
pos = (311,625);
}
);
hints = (
{
horizontal = 1;
place = (0,21);
target = up;
type = BottomGhost;
},
{
place = (-1,100);
type = Stem;
}
);
layerId = m003;
shapes = (
{
closed = 1;
nodes = (
(264,214,o),
(306,414,o),
(345,597,cs),
(345,602,o),
(348,604,o),
(353,604,cs),
(398,603,o),
(446,601,o),
(492,597,cs),
(509,595,o),
(523,614,o),
(528,636,cs),
(533,660,o),
(527,679,o),
(509,677,cs),
(383,667,o),
(255,657,o),
(133,667,cs),
(113,669,o),
(103,659,o),
(98,636,cs),
(93,614,o),
(99,595,o),
(118,597,cs),
(165,601,o),
(213,603,o),
(258,604,cs),
(263,604,o),
(266,602,o),
(264,597,cs),
(225,413,o),
(182,218,o),
(135,32,cs),
(128,6,o),
(147,-7,o),
(177,-7,cs),
(205,-7,o),
(230,6,o),
(235,32,cs)
);
}
);
width = 480;
}
);
metricLeft = "=O/2";
metricRight = "=O/2";
note = I;
unicode = 84;
userData = {
KernOnName = T;
};
},
{
glyphname = U;
kernLeft = KO_U;
kernRight = KO_U;
lastChange = "2025-01-04 00:23:34 +0000";
layers = (
{
anchors = (
{
name = bottom;
pos = (189,0);
},
{
name = ogonek;
pos = (303,10);
},
{
name = top;
pos = (322,625);
},
{
name = topright;
pos = (596,667);
}
);
hints = (
{
horizontal = 1;
place = (-10,85);
type = Stem;
},
{
place = (-21,105);
type = Stem;
},
{
place = (344,105);
type = Stem;
}
);
layerId = m005;
shapes = (
{
closed = 1;
nodes = (
(127,667,o),
(89,646,o),
(85,617,cs),
(71,501,o),
(46,386,o),
(22,270,cs),
(-17,90,o),
(44,-1,o),
(187,-10,cs),
(340,-20,o),
(433,90,o),
(472,270,cs),
(496,386,o),
(523,511,o),
(557,627,cs),
(566,656,o),
(537,677,o),
(508,677,cs),
(479,677,o),
(442,656,o),
(437,627,cs),
(423,511,o),
(396,386,o),
(372,270,cs),
(343,134,o),
(291,80,o),
(206,80,cs),
(121,80,o),
(93,134,o),
(122,270,cs),
(146,386,o),
(171,501,o),
(195,617,cs),
(201,646,o),
(185,667,o),
(156,667,cs)
);
}
);
width = 544;
},
{
anchors = (
{
name = bottom;
pos = (239,0);
},
{
name = ogonek;
pos = (395,10);
},
{
name = top;
pos = (372,625);
},
{
name = topright;
pos = (646,667);
}
);
hints = (
{
horizontal = 1;
place = (-10,85);
type = Stem;
},
{
place = (-22,105);
type = Stem;
},
{
place = (343,105);
type = Stem;
}
);
layerId = m002;
shapes = (
{
closed = 1;
nodes = (
(153,692,o),
(88,648,o),
(79,588,cs),
(65,474,o),
(54,421,o),
(29,305,cs),
(-15,100,o),
(61,-14,o),
(231,-25,cs),
(416,-37,o),
(535,100,o),
(579,305,cs),
(604,421,o),
(617,484,o),
(651,598,cs),
(668,658,o),
(621,702,o),
(563,702,cs),
(505,702,o),
(440,658,o),
(431,598,cs),
(417,484,o),
(404,421,o),
(379,305,cs),
(360,216,o),
(334,165,o),
(274,165,cs),
(214,165,o),
(210,216,o),
(229,305,cs),
(254,421,o),
(265,476,o),
(290,592,cs),
(302,649,o),
(268,692,o),
(211,692,cs)
);
}
);
width = 619;
},
{
anchors = (
{
name = bottom;
pos = (163,0);
},
{
name = ogonek;
pos = (276,10);
},
{
name = top;
pos = (296,625);
},
{
name = topright;
pos = (570,667);
}
);
hints = (
{
horizontal = 1;
place = (-10,85);
type = Stem;
},
{
place = (-21,105);
type = Stem;
},
{
place = (344,105);
type = Stem;
}
);
layerId = m003;
shapes = (
{
closed = 1;
nodes = (
(104,667,o),
(75,651,o),
(72,628,cs),
(57,511,o),
(28,376,o),
(3,260,cs),
(-34,84,o),
(23,-1,o),
(162,-10,cs),
(309,-20,o),
(396,83,o),
(433,260,cs),
(458,376,o),
(489,521,o),
(524,638,cs),
(531,661,o),
(508,677,o),
(482,677,cs),
(456,677,o),
(427,661,o),
(424,638,cs),
(409,521,o),
(378,376,o),
(353,260,cs),
(323,118,o),
(267,60,o),
(176,60,cs),
(85,60,o),
(53,118,o),
(83,260,cs),
(108,376,o),
(137,511,o),
(161,627,cs),
(167,652,o),
(155,667,o),
(130,667,cs)
);
}
);
width = 519;
}
);
metricLeft = "=H";
metricRight = "=H";
note = U;
unicode = 85;
},
{
glyphname = V;
kernLeft = KO_V;
kernRight = KO_V;
lastChange = "2025-01-03 22:26:37 +0000";
layers = (
{
hints = (
{
horizontal = 1;
place = (0,21);
target = up;
type = BottomGhost;
},
{
horizontal = 1;
place = (150,75);
type = Stem;
},
{
horizontal = 1;
place = (557,110);
type = Stem;
},
{
place = (-60,516);
type = Stem;
}
);
layerId = m005;
shapes = (
{
closed = 1;
nodes = (
(200,255,o),
(190,428,o),
(194,612,cs),
(195,645,o),
(179,667,o),
(141,667,cs),
(111,667,o),
(74,633,o),
(77,594,cs),
(93,419,o),
(113,215,o),
(144,45,cs),
(149,17,o),
(171,0,o),
(203,0,cs),
(233,0,o),
(263,17,o),
(280,45,cs),
(383,215,o),
(489,419,o),
(579,594,cs),
(600,633,o),
(593,677,o),
(537,677,cs),
(511,677,o),
(474,650,o),
(465,624,cs),
(400,436,o),
(314,258,o),
(232,121,cs),
(230,117,o),
(224,117,o),
(224,121,cs)
);
}
);
width = 549;
},
{
hints = (
{
horizontal = 1;
place = (0,21);
target = up;
type = BottomGhost;
},
{
horizontal = 1;
place = (150,75);
type = Stem;
},
{
horizontal = 1;
place = (557,110);
type = Stem;
},
{
place = (-60,516);
type = Stem;
}
);
layerId = m002;
shapes = (
{
closed = 1;
nodes = (
(242,403,o),
(238,474,o),
(240,596,cs),
(242,653,o),
(208,692,o),
(146,692,cs),
(82,692,o),
(14,625,o),
(21,554,cs),
(37,379,o),
(57,223,o),
(98,52,cs),
(109,6,o),
(146,-25,o),
(198,-25,cs),
(248,-25,o),
(297,6,o),
(328,52,cs),
(441,223,o),
(529,379,o),
(619,554,cs),
(658,629,o),
(628,702,o),
(542,702,cs),
(491,702,o),
(430,657,o),
(412,606,cs),
(368,481,o),
(334,406,o),
(274,304,cs),
(269,298,o),
(261,297,o),
(260,304,cs)
);
}
);
width = 549;
},
{
hints = (
{
horizontal = 1;
place = (0,21);
target = up;
type = BottomGhost;
},
{
horizontal = 1;
place = (150,75);
type = Stem;
},
{
horizontal = 1;
place = (557,110);
type = Stem;
},
{
place = (-60,516);
type = Stem;
}
);
layerId = m003;
shapes = (
{
closed = 1;
nodes = (
(190,222,o),
(181,425,o),
(186,620,cs),
(187,650,o),
(175,667,o),
(141,667,cs),
(116,667,o),
(86,641,o),
(90,607,cs),
(106,432,o),
(120,208,o),
(151,39,cs),
(156,14,o),
(174,0,o),
(203,0,cs),
(230,0,o),
(254,14,o),
(269,39,cs),
(372,208,o),
(482,432,o),
(572,607,cs),
(591,643,o),
(586,677,o),
(537,677,cs),
(515,677,o),
(484,655,o),
(477,633,cs),
(407,433,o),
(310,225,o),
(224,83,cs),
(221,79,o),
(217,79,o),
(216,83,cs)
);
}
);
width = 549;
}
);
note = A;
unicode = 86;
userData = {
KernOnName = V;
};
},
{
glyphname = W;
kernLeft = KO_W;
kernRight = KO_W;
lastChange = "2025-01-03 23:58:33 +0000";
layers = (
{
anchors = (
{
name = bottom;
pos = (306,0);
},
{
name = top;
pos = (439,625);
}
);
hints = (
{
horizontal = 1;
place = (0,21);
target = up;
type = BottomGhost;
},
{
place = (-37,724);
type = Stem;
},
{
horizontal = 1;
place = (0,150);
type = Stem;
}
);
layerId = m005;
shapes = (
{
closed = 1;
nodes = (
(177,0,o),
(218,17,o),
(229,46,cs),
(275,161,o),
(342,307,o),
(401,458,cs),
(403,461,o),
(405,461,o),
(405,458,cs),
(400,307,o),
(405,161,o),
(403,46,cs),
(402,17,o),
(435,0,o),
(464,0,cs),
(493,0,o),
(532,17,o),
(545,45,cs),
(630,235,o),
(729,458,o),
(806,625,cs),
(821,658,o),
(796,677,o),
(763,677,cs),
(731,677,o),
(702,662,o),
(691,632,cs),
(640,479,o),
(574,291,o),
(491,117,cs),
(489,114,o),
(487,114,o),
(487,117,cs),
(478,290,o),
(480,468,o),
(493,621,cs),
(495,651,o),
(482,667,o),
(444,667,cs),
(414,667,o),
(393,651,o),
(383,621,cs),
(332,468,o),
(258,290,o),
(175,117,cs),
(173,114,o),
(171,114,o),
(171,117,cs),
(162,291,o),
(174,469,o),
(187,622,cs),
(190,652,o),
(167,667,o),
(137,667,cs),
(101,667,o),
(81,648,o),
(80,615,cs),
(75,448,o),
(82,235,o),
(87,45,cs),
(88,17,o),
(119,0,o),
(148,0,cs)
);
}
);
width = 767;
},
{
anchors = (
{
name = bottom;
pos = (306,0);
},
{
name = top;
pos = (439,625);
}
);
hints = (
{
horizontal = 1;
place = (0,21);
target = up;
type = BottomGhost;
},
{
place = (-37,724);
type = Stem;
},
{
horizontal = 1;
place = (0,150);
type = Stem;
}
);
layerId = m002;
shapes = (
{
closed = 1;
nodes = (
(199,-25,o),
(261,9,o),
(281,62,cs),
(300,108,o),
(322,160,o),
(346,215,cs),
(350,225,o),
(358,225,o),
(358,215,cs),
(358,160,o),
(358,108,o),
(357,62,cs),
(355,9,o),
(403,-25,o),
(460,-25,cs),
(512,-25,o),
(572,8,o),
(596,58,cs),
(692,249,o),
(771,421,o),
(847,588,cs),
(877,655,o),
(831,702,o),
(768,702,cs),
(711,702,o),
(657,669,o),
(637,613,cs),
(609,528,o),
(582,454,o),
(545,362,cs),
(541,352,o),
(532,352,o),
(532,362,cs),
(532,450,o),
(531,519,o),
(539,602,cs),
(543,657,o),
(512,692,o),
(449,692,cs),
(394,692,o),
(349,657,o),
(329,602,cs),
(301,519,o),
(271,449,o),
(234,360,cs),
(228,350,o),
(220,350,o),
(221,360,cs),
(222,449,o),
(225,519,o),
(233,603,cs),
(237,659,o),
(197,692,o),
(142,692,cs),
(75,692,o),
(25,645,o),
(24,581,cs),
(19,412,o),
(26,248,o),
(40,58,cs),
(44,8,o),
(90,-25,o),
(142,-25,cs)
);
}
);
width = 767;
},
{
anchors = (
{
name = bottom;
pos = (306,0);
},
{
name = top;
pos = (439,625);
}
);
hints = (
{
horizontal = 1;
place = (0,21);
target = up;
type = BottomGhost;
},
{
place = (-37,724);
type = Stem;
},
{
horizontal = 1;
place = (0,150);
type = Stem;
}
);
layerId = m003;
shapes = (
{
closed = 1;
nodes = (
(175,0,o),
(208,14,o),
(217,38,cs),
(270,167,o),
(352,355,o),
(416,526,cs),
(417,529,o),
(419,529,o),
(420,526,cs),
(412,355,o),
(414,167,o),
(411,38,cs),
(410,14,o),
(437,0,o),
(465,0,cs),
(491,0,o),
(522,14,o),
(533,37,cs),
(618,227,o),
(722,470,o),
(798,637,cs),
(811,664,o),
(793,677,o),
(761,677,cs),
(734,677,o),
(712,666,o),
(703,641,cs),
(648,477,o),
(572,253,o),
(481,69,cs),
(479,66,o),
(477,66,o),
(477,69,cs),
(465,253,o),
(470,466,o),
(485,630,cs),
(487,656,o),
(478,667,o),
(444,667,cs),
(418,667,o),
(403,656,o),
(395,630,cs),
(340,466,o),
(255,253,o),
(165,69,cs),
(163,66,o),
(161,66,o),
(161,69,cs),
(148,255,o),
(164,467,o),
(179,631,cs),
(181,656,o),
(164,667,o),
(137,667,cs),
(106,667,o),
(93,655,o),
(92,627,cs),
(88,460,o),
(90,227,o),
(95,37,cs),
(96,14,o),
(121,0,o),
(147,0,cs)
);
}
);
width = 766;
}
);
metricLeft = "=V";
metricRight = "=V";
note = W;
unicode = 87;
userData = {
KernOnName = W;
};
},
{
glyphname = X;
kernLeft = KO_X;
kernRight = KO_X;
lastChange = "2025-01-04 00:23:34 +0000";
layers = (
{
hints = (
{
horizontal = 1;
place = (0,21);
target = up;
type = BottomGhost;
},
{
place = (-51,498);
type = Stem;
}
);
layerId = m005;
shapes = (
{
closed = 1;
nodes = (
(19,0,o),
(55,12,o),
(71,39,cs),
(121,119,o),
(179,204,o),
(254,281,cs),
(255,283,o),
(257,283,o),
(258,281,cs),
(297,194,o),
(323,129,o),
(339,49,cs),
(345,22,o),
(373,0,o),
(404,0,cs),
(433,0,o),
(459,23,o),
(450,57,cs),
(425,149,o),
(379,254,o),
(330,338,cs),
(329,339,o),
(330,341,o),
(331,342,cs),
(414,423,o),
(496,522,o),
(557,610,cs),
(579,642,o),
(566,677,o),
(537,677,cs),
(502,677,o),
(467,645,o),
(450,618,cs),
(403,541,o),
(356,471,o),
(282,397,cs),
(281,395,o),
(279,395,o),
(278,397,cs),
(236,471,o),
(217,533,o),
(202,608,cs),
(192,660,o),
(171,667,o),
(143,667,cs),
(111,667,o),
(96,644,o),
(105,610,cs),
(128,522,o),
(158,423,o),
(207,342,cs),
(208,341,o),
(207,339,o),
(206,338,cs),
(122,254,o),
(31,149,o),
(-34,57,cs),
(-57,23,o),
(-41,0,o),
(-12,0,cs)
);
}
);
width = 519;
},
{
hints = (
{
horizontal = 1;
place = (0,21);
target = up;
type = BottomGhost;
},
{
place = (-51,498);
type = Stem;
}
);
layerId = m002;
shapes = (
{
closed = 1;
nodes = (
(85,-25,o),
(141,-1,o),
(169,45,cs),
(203,100,o),
(240,155,o),
(278,187,cs),
(284,192,o),
(289,192,o),
(292,188,cs),
(319,156,o),
(339,111,o),
(345,55,cs),
(351,-1,o),
(398,-25,o),
(449,-25,cs),
(515,-25,o),
(573,36,o),
(555,104,cs),
(534,186,o),
(489,255,o),
(446,333,cs),
(443,338,o),
(444,342,o),
(449,347,cs),
(523,421,o),
(588,485,o),
(642,564,cs),
(687,629,o),
(658,702,o),
(592,702,cs),
(535,702,o),
(481,658,o),
(453,612,cs),
(421,558,o),
(403,533,o),
(356,488,cs),
(351,482,o),
(346,482,o),
(342,488,cs),
(315,531,o),
(307,551,o),
(297,602,cs),
(284,669,o),
(250,692,o),
(198,692,cs),
(132,692,o),
(81,635,o),
(100,564,cs),
(120,487,o),
(152,423,o),
(191,347,cs),
(194,342,o),
(193,338,o),
(188,333,cs),
(112,256,o),
(39,186,o),
(-19,104,cs),
(-65,36,o),
(-33,-25,o),
(36,-25,cs)
);
}
);
width = 611;
},
{
hints = (
{
horizontal = 1;
place = (0,21);
target = up;
type = BottomGhost;
},
{
place = (-51,498);
type = Stem;
}
);
layerId = m003;
shapes = (
{
closed = 1;
nodes = (
(3,0,o),
(32,10,o),
(47,33,cs),
(99,117,o),
(164,217,o),
(244,298,cs),
(246,300,o),
(248,300,o),
(248,298,cs),
(291,205,o),
(317,127,o),
(333,43,cs),
(338,19,o),
(362,0,o),
(387,0,cs),
(415,0,o),
(431,15,o),
(424,43,cs),
(398,136,o),
(354,253,o),
(303,338,cs),
(302,339,o),
(303,341,o),
(304,342,cs),
(389,424,o),
(475,534,o),
(537,624,cs),
(556,652,o),
(546,677,o),
(523,677,cs),
(493,677,o),
(463,650,o),
(447,624,cs),
(398,544,o),
(346,460,o),
(265,381,cs),
(264,379,o),
(262,379,o),
(261,381,cs),
(215,460,o),
(196,535,o),
(181,614,cs),
(172,662,o),
(156,667,o),
(129,667,cs),
(104,667,o),
(95,654,o),
(103,624,cs),
(127,534,o),
(155,423,o),
(206,342,cs),
(207,341,o),
(206,339,o),
(205,338,cs),
(119,253,o),
(24,136,o),
(-42,43,cs),
(-61,15,o),
(-51,0,o),
(-23,0,cs)
);
}
);
width = 499;
}
);
metricLeft = "=H/3";
metricRight = "=H/3";
note = X;
unicode = 88;
userData = {
KernOnName = X;
};
},
{
glyphname = Y;
kernLeft = KO_Y;
kernRight = KO_Y;
lastChange = "2025-01-03 23:58:33 +0000";
layers = (
{
anchors = (
{
name = bottom;
pos = (195,0);
},
{
name = top;
pos = (328,625);
},
{
name = topleft;
pos = (90,667);
}
);
hints = (
{
horizontal = 1;
place = (0,21);
target = up;
type = BottomGhost;
},
{
place = (145,100);
type = Stem;
}
);
layerId = m005;
shapes = (
{
closed = 1;
nodes = (
(221,0,o),
(257,18,o),
(259,49,cs),
(265,120,o),
(279,190,o),
(294,260,cs),
(295,265,o),
(297,268,o),
(301,273,cs),
(391,375,o),
(485,501,o),
(564,610,cs),
(588,643,o),
(578,677,o),
(544,677,cs),
(516,677,o),
(482,654,o),
(465,617,cs),
(420,518,o),
(342,428,o),
(262,336,cs),
(261,334,o),
(259,334,o),
(258,336,cs),
(218,428,o),
(200,530,o),
(187,627,cs),
(184,654,o),
(158,667,o),
(123,667,cs),
(93,667,o),
(76,644,o),
(84,610,cs),
(107,501,o),
(147,375,o),
(193,273,cs),
(195,268,o),
(195,265,o),
(194,260,cs),
(179,190,o),
(165,120,o),
(139,49,cs),
(129,18,o),
(157,0,o),
(190,0,cs)
);
}
);
width = 533;
},
{
anchors = (
{
name = bottom;
pos = (189,0);
},
{
name = top;
pos = (322,625);
},
{
name = topleft;
pos = (76,667);
}
);
hints = (
{
horizontal = 1;
place = (0,21);
target = up;
type = BottomGhost;
},
{
place = (145,100);
type = Stem;
}
);
layerId = m002;
shapes = (
{
closed = 1;
nodes = (
(247,-25,o),
(311,19,o),
(316,81,cs),
(321,140,o),
(327,177,o),
(339,235,cs),
(342,247,o),
(346,256,o),
(355,266,cs),
(442,364,o),
(534,460,o),
(598,562,cs),
(641,632,o),
(621,702,o),
(549,702,cs),
(498,702,o),
(447,661,o),
(413,604,cs),
(374,538,o),
(351,499,o),
(291,438,cs),
(286,432,o),
(280,432,o),
(277,438,cs),
(249,502,o),
(242,549,o),
(232,618,cs),
(227,664,o),
(186,692,o),
(135,692,cs),
(63,692,o),
(13,634,o),
(28,565,cs),
(50,462,o),
(91,364,o),
(137,266,cs),
(140,256,o),
(142,247,o),
(139,235,cs),
(127,177,o),
(117,140,o),
(96,81,cs),
(75,19,o),
(121,-25,o),
(185,-25,cs)
);
}
);
width = 530;
},
{
anchors = (
{
name = bottom;
pos = (190,0);
},
{
name = top;
pos = (323,625);
},
{
name = topleft;
pos = (77,667);
}
);
hints = (
{
horizontal = 1;
place = (0,21);
target = up;
type = BottomGhost;
},
{
place = (145,100);
type = Stem;
}
);
layerId = m003;
shapes = (
{
closed = 1;
nodes = (
(219,0,o),
(246,13,o),
(248,38,cs),
(253,110,o),
(271,192,o),
(286,265,cs),
(287,269,o),
(289,271,o),
(291,274,cs),
(382,377,o),
(479,514,o),
(559,625,cs),
(580,653,o),
(573,677,o),
(545,677,cs),
(520,677,o),
(493,658,o),
(478,625,cs),
(429,519,o),
(343,414,o),
(260,318,cs),
(258,316,o),
(256,316,o),
(256,318,cs),
(211,415,o),
(193,532,o),
(181,634,cs),
(178,657,o),
(157,667,o),
(131,667,cs),
(100,667,o),
(90,654,o),
(97,624,cs),
(119,513,o),
(158,377,o),
(205,274,cs),
(207,271,o),
(207,269,o),
(206,265,cs),
(191,192,o),
(173,110,o),
(148,38,cs),
(140,13,o),
(161,0,o),
(191,0,cs)
);
}
);
width = 535;
}
);
metricLeft = "=V";
metricRight = "=V";
note = Y;
unicode = 89;
userData = {
KernOnName = Y;
};
},
{
glyphname = Z;
kernLeft = KO_Z;
kernRight = KO_Z;
lastChange = "2025-01-04 00:23:34 +0000";
layers = (
{
anchors = (
{
name = bottom;
pos = (187,0);
},
{
name = center;
pos = (258,334);
},
{
name = top;
pos = (320,625);
}
);
hints = (
{
horizontal = 1;
place = (0,85);
type = Stem;
},
{
horizontal = 1;
place = (587,80);
type = Stem;
},
{
place = (-41,475);
type = Stem;
}
);
layerId = m005;
shapes = (
{
closed = 1;
nodes = (
(107,626,cs),
(102,601,o),
(120,574,o),
(146,577,cs),
(236,586,o),
(315,587,o),
(401,587,cs),
(410,587,o),
(411,581,o),
(405,575,cs),
(-9,108,ls),
(-26,88,o),
(-36,70,o),
(-41,46,cs),
(-48,14,o),
(-27,0,o),
(-2,0,cs),
(129,0,o),
(249,0,o),
(378,-10,cs),
(403,-12,o),
(432,14,o),
(437,39,cs),
(447,86,o),
(417,102,o),
(391,100,cs),
(290,90,o),
(201,90,o),
(103,90,cs),
(94,90,o),
(94,96,o),
(99,102,cs),
(543,607,ls),
(562,628,o),
(569,666,o),
(534,667,cs),
(409,670,o),
(280,664,o),
(157,677,cs),
(133,680,o),
(113,653,o)
);
}
);
width = 499;
},
{
anchors = (
{
name = bottom;
pos = (236,0);
},
{
name = center;
pos = (307,334);
},
{
name = top;
pos = (369,625);
}
);
hints = (
{
horizontal = 1;
place = (0,85);
type = Stem;
},
{
horizontal = 1;
place = (587,80);
type = Stem;
},
{
place = (-41,475);
type = Stem;
}
);
layerId = m002;
shapes = (
{
closed = 1;
nodes = (
(96,576,cs),
(84,521,o),
(123,471,o),
(179,477,cs),
(233,483,o),
(282,486,o),
(333,487,cs),
(342,487,o),
(342,480,o),
(336,474,cs),
(37,196,ls),
(8,169,o),
(-24,130,o),
(-31,96,cs),
(-44,36,o),
(-9,-13,o),
(44,-13,cs),
(175,-13,o),
(293,-15,o),
(420,-25,cs),
(474,-29,o),
(536,36,o),
(547,89,cs),
(563,165,o),
(512,204,o),
(458,200,cs),
(391,194,o),
(331,191,o),
(268,190,cs),
(260,190,o),
(260,196,o),
(266,202,cs),
(618,529,ls),
(676,583,o),
(661,681,o),
(586,681,cs),
(460,681,o),
(333,681,o),
(209,692,cs),
(157,697,o),
(107,631,o)
);
}
);
width = 592;
},
{
anchors = (
{
name = bottom;
pos = (173,0);
},
{
name = center;
pos = (244,334);
},
{
name = top;
pos = (306,625);
}
);
hints = (
{
horizontal = 1;
place = (0,85);
type = Stem;
},
{
horizontal = 1;
place = (587,80);
type = Stem;
},
{
place = (-41,475);
type = Stem;
}
);
layerId = m003;
shapes = (
{
closed = 1;
nodes = (
(105,636,cs),
(101,615,o),
(115,595,o),
(135,597,cs),
(234,608,o),
(318,607,o),
(415,607,cs),
(421,607,o),
(422,603,o),
(418,599,cs),
(-18,92,ls),
(-34,74,o),
(-43,58,o),
(-47,36,cs),
(-53,10,o),
(-39,-5,o),
(-17,-4,cs),
(115,0,o),
(236,3,o),
(366,-7,cs),
(385,-9,o),
(407,8,o),
(412,31,cs),
(420,70,o),
(397,82,o),
(374,80,cs),
(264,69,o),
(169,70,o),
(61,70,cs),
(55,70,o),
(54,74,o),
(58,78,cs),
(525,623,ls),
(539,641,o),
(545,667,o),
(520,667,cs),
(394,667,o),
(267,667,o),
(142,674,cs),
(122,675,o),
(110,659,o)
);
}
);
width = 478;
}
);
metricLeft = "=H/4";
metricRight = "=H/4";
note = Z;
unicode = 90;
userData = {
KernOnName = Z;
};
},
{
glyphname = A.salt;
kernLeft = KO_A.salt;
kernRight = KO_A.salt;
lastChange = "2025-01-03 22:27:25 +0000";
layers = (
{
anchors = (
{
name = bottom;
pos = (203,0);
},
{
name = ogonek;
pos = (425,10);
},
{
name = top;
pos = (336,625);
}
);
hints = (
{
horizontal = 1;
place = (0,21);
target = up;
type = BottomGhost;
},
{
horizontal = 1;
place = (150,75);
type = Stem;
},
{
horizontal = 1;
place = (557,110);
type = Stem;
},
{
place = (-60,516);
type = Stem;
}
);
layerId = m005;
shapes = (
{
closed = 1;
nodes = (
(6,0,ls),
(38,0,o),
(61,16,o),
(74,48,cs),
(85,77,o),
(98,106,o),
(110,134,cs),
(112,140,o),
(116,143,o),
(122,143,cs),
(197,146,o),
(271,147,o),
(344,147,cs),
(350,147,o),
(354,144,o),
(353,138,cs),
(354,113,o),
(354,87,o),
(353,62,cs),
(353,21,o),
(368,0,o),
(400,0,cs),
(406,0,ls),
(440,0,o),
(461,22,o),
(460,59,cs),
(454,243,o),
(435,451,o),
(403,633,cs),
(398,663,o),
(380,677,o),
(348,677,cs),
(346,677,ls),
(314,677,o),
(290,663,o),
(273,633,cs),
(197,508,o),
(-19,81,o),
(-28,59,cs),
(-45,22,o),
(-32,0,o),
(5,0,cs)
);
},
{
closed = 1;
nodes = (
(154,227,o),
(152,231,o),
(156,238,cs),
(206,354,o),
(261,463,o),
(313,550,cs),
(319,558,o),
(325,558,o),
(327,550,cs),
(341,464,o),
(349,359,o),
(352,246,cs),
(353,238,o),
(349,233,o),
(341,232,cs),
(282,229,o),
(222,228,o),
(161,227,cs)
);
}
);
width = 550;
},
{
anchors = (
{
name = bottom;
pos = (204,0);
},
{
name = ogonek;
pos = (426,10);
},
{
name = top;
pos = (337,625);
}
);
hints = (
{
horizontal = 1;
place = (0,21);
target = up;
type = BottomGhost;
},
{
horizontal = 1;
place = (150,75);
type = Stem;
},
{
horizontal = 1;
place = (557,110);
type = Stem;
},
{
place = (-59,516);
type = Stem;
}
);
layerId = m002;
shapes = (
{
closed = 1;
nodes = (
(2,-25,ls),
(58,-25,o),
(111,8,o),
(128,64,cs),
(131,75,o),
(129,70,o),
(131,75,cs),
(137,90,o),
(152,93,o),
(164,93,cs),
(239,96,o),
(222,97,o),
(295,97,cs),
(305,97,o),
(308,91,o),
(309,84,cs),
(309,76,o),
(309,77,o),
(309,77,cs),
(301,13,o),
(343,-25,o),
(396,-25,cs),
(402,-25,ls),
(468,-25,o),
(519,27,o),
(518,96,cs),
(511,281,o),
(479,432,o),
(447,616,cs),
(438,665,o),
(405,692,o),
(352,692,cs),
(350,692,ls),
(297,692,o),
(252,665,o),
(223,616,cs),
(147,489,o),
(-56,121,o),
(-69,95,cs),
(-100,28,o),
(-68,-25,o),
(1,-25,cs)
);
},
{
closed = 1;
nodes = (
(232,277,o),
(234,293,o),
(241,310,cs),
(252,338,o),
(259,351,o),
(277,379,cs),
(284,390,o),
(290,384,o),
(291,379,cs),
(295,356,o),
(294,334,o),
(296,307,cs),
(297,296,o),
(291,283,o),
(274,279,cs),
(262,276,o),
(255,277,o),
(243,277,cs)
);
}
);
width = 550;
},
{
anchors = (
{
name = bottom;
pos = (203,0);
},
{
name = ogonek;
pos = (425,10);
},
{
name = top;
pos = (336,625);
}
);
hints = (
{
horizontal = 1;
place = (0,21);
target = up;
type = BottomGhost;
},
{
horizontal = 1;
place = (150,75);
type = Stem;
},
{
horizontal = 1;
place = (557,110);
type = Stem;
},
{
place = (-60,516);
type = Stem;
}
);
layerId = m003;
shapes = (
{
closed = 1;
nodes = (
(6,0,ls),
(34,0,o),
(52,11,o),
(63,40,cs),
(78,76,o),
(91,111,o),
(107,147,cs),
(108,151,o),
(111,153,o),
(115,153,cs),
(197,157,o),
(277,157,o),
(357,157,cs),
(361,157,o),
(363,156,o),
(362,151,cs),
(363,119,o),
(362,86,o),
(362,54,cs),
(361,16,o),
(372,0,o),
(400,0,cs),
(406,0,ls),
(435,0,o),
(448,14,o),
(447,47,cs),
(441,230,o),
(427,455,o),
(395,636,cs),
(390,663,o),
(377,674,o),
(348,674,cs),
(346,674,ls),
(317,674,o),
(298,663,o),
(283,636,cs),
(207,510,o),
(-7,77,o),
(-21,47,cs),
(-36,14,o),
(-27,0,o),
(5,0,cs)
);
},
{
closed = 1;
nodes = (
(139,217,o),
(138,220,o),
(140,225,cs),
(200,362,o),
(265,493,o),
(324,590,cs),
(328,595,o),
(332,595,o),
(334,589,cs),
(351,495,o),
(358,367,o),
(362,233,cs),
(362,227,o),
(359,223,o),
(354,223,cs),
(285,219,o),
(214,218,o),
(144,217,cs)
);
}
);
width = 550;
}
);
note = A;
},
{
glyphname = B.salt;
kernLeft = KO_N;
kernRight = KO_B;
lastChange = "2025-01-04 00:23:34 +0000";
layers = (
{
hints = (
{
horizontal = 1;
place = (0,21);
target = up;
type = BottomGhost;
},
{
horizontal = 1;
place = (282,67);
type = Stem;
},
{
horizontal = 1;
place = (598,69);
type = Stem;
},
{
place = (-1,100);
type = Stem;
},
{
place = (335,99);
type = Stem;
}
);
layerId = m005;
shapes = (
{
closed = 1;
nodes = (
(159,0,ls),
(323,0,o),
(439,68,o),
(454,190,cs),
(463,257,o),
(446,307,o),
(392,336,cs),
(385,340,o),
(386,344,o),
(394,348,cs),
(452,376,o),
(489,422,o),
(502,484,cs),
(527,602,o),
(455,667,o),
(301,667,cs),
(155,667,ls),
(124,667,o),
(89,649,o),
(85,618,cs),
(74,518,o),
(15,239,o),
(-35,49,cs),
(-44,18,o),
(-18,0,o),
(13,0,cs)
);
},
{
closed = 1;
nodes = (
(87,90,o),
(84,94,o),
(85,100,cs),
(126,290,ls),
(127,296,o),
(132,300,o),
(138,300,cs),
(224,300,ls),
(329,300,o),
(371,265,o),
(355,190,cs),
(340,115,o),
(284,90,o),
(179,90,cs),
(93,90,ls)
);
},
{
closed = 1;
nodes = (
(150,380,o),
(147,383,o),
(148,390,cs),
(161,452,o),
(165,513,o),
(179,576,cs),
(180,583,o),
(185,587,o),
(191,587,cs),
(285,587,ls),
(380,587,o),
(418,554,o),
(403,484,cs),
(388,413,o),
(336,380,o),
(241,380,cs),
(156,380,ls)
);
}
);
width = 485;
},
{
hints = (
{
horizontal = 1;
place = (0,21);
target = up;
type = BottomGhost;
},
{
horizontal = 1;
place = (282,67);
type = Stem;
},
{
horizontal = 1;
place = (598,69);
type = Stem;
},
{
place = (-1,100);
type = Stem;
},
{
place = (335,99);
type = Stem;
}
);
layerId = m002;
shapes = (
{
closed = 1;
nodes = (
(206,-15,ls),
(393,-15,o),
(542,72,o),
(563,229,cs),
(568,269,o),
(562,290,o),
(548,310,cs),
(532,335,o),
(537,355,o),
(561,381,cs),
(578,398,o),
(588,416,o),
(595,449,cs),
(626,598,o),
(531,682,o),
(354,682,cs),
(208,682,ls),
(147,682,o),
(84,639,o),
(77,578,cs),
(66,481,o),
(23,275,o),
(-27,87,cs),
(-44,26,o),
(1,-15,o),
(60,-15,cs)
);
},
{
closed = 1;
nodes = (
(235,157,o),
(198,158,o),
(205,193,cs),
(210,218,ls),
(217,250,o),
(238,269,o),
(267,268,cs),
(308,266,ls),
(354,264,o),
(367,244,o),
(360,213,cs),
(353,179,o),
(317,160,o),
(294,159,cs),
(258,158,ls)
);
},
{
closed = 1;
nodes = (
(269,412,o),
(249,417,o),
(257,449,cs),
(259,461,o),
(259,455,o),
(264,480,cs),
(268,500,o),
(270,519,o),
(306,519,cs),
(345,519,ls),
(374,519,o),
(408,509,o),
(399,466,cs),
(393,435,o),
(365,412,o),
(321,412,cs),
(298,412,ls)
);
}
);
width = 579;
},
{
hints = (
{
horizontal = 1;
place = (0,21);
target = up;
type = BottomGhost;
},
{
horizontal = 1;
place = (282,67);
type = Stem;
},
{
horizontal = 1;
place = (598,69);
type = Stem;
},
{
place = (-1,100);
type = Stem;
},
{
place = (335,99);
type = Stem;
}
);
layerId = m003;
shapes = (
{
closed = 1;
nodes = (
(134,0,ls),
(295,0,o),
(403,63,o),
(419,189,cs),
(429,263,o),
(407,312,o),
(337,337,cs),
(331,339,o),
(331,343,o),
(337,345,cs),
(410,370,o),
(452,415,o),
(467,484,cs),
(493,607,o),
(427,667,o),
(276,667,cs),
(130,667,ls),
(102,667,o),
(76,654,o),
(73,629,cs),
(61,528,o),
(-2,229,o),
(-53,38,cs),
(-60,13,o),
(-40,0,o),
(-12,0,cs)
);
},
{
closed = 1;
nodes = (
(52,70,o),
(46,78,o),
(48,90,cs),
(94,303,ls),
(94,307,o),
(98,310,o),
(102,310,cs),
(201,310,ls),
(311,310,o),
(358,272,o),
(340,190,cs),
(321,98,o),
(259,70,o),
(150,70,cs),
(64,70,ls)
);
},
{
closed = 1;
nodes = (
(112,370,o),
(109,372,o),
(110,377,cs),
(124,444,o),
(140,519,o),
(145,585,c),
(148,598,o),
(158,607,o),
(170,607,cs),
(264,607,ls),
(364,607,o),
(406,570,o),
(388,484,cs),
(372,407,o),
(314,370,o),
(214,370,cs),
(116,370,ls)
);
}
);
width = 452;
}
);
metricLeft = "=H";
metricRight = "=H/4";
note = P;
},
{
glyphname = D.salt;
kernLeft = KO_E;
kernRight = KO_O;
lastChange = "2025-01-04 00:23:34 +0000";
layers = (
{
hints = (
{
horizontal = 1;
place = (-10,80);
type = Stem;
},
{
horizontal = 1;
place = (597,80);
type = Stem;
},
{
place = (-36,110);
type = Stem;
},
{
place = (354,110);
type = Stem;
}
);
layerId = m005;
shapes = (
{
closed = 1;
nodes = (
(249,0,ls),
(403,0,o),
(516,126,o),
(563,347,cs),
(610,571,o),
(545,667,o),
(391,667,cs),
(215,667,ls),
(184,667,o),
(150,649,o),
(145,618,cs),
(115,428,o),
(75,239,o),
(25,49,cs),
(16,18,o),
(42,0,o),
(73,0,cs)
);
},
{
closed = 1;
nodes = (
(180,262,o),
(211,409,o),
(237,572,cs),
(237,578,o),
(242,582,o),
(248,582,cs),
(373,582,ls),
(468,582,o),
(501,526,o),
(463,347,cs),
(425,171,o),
(363,90,o),
(268,90,cs),
(143,90,ls),
(137,90,o),
(134,94,o),
(136,100,cs)
);
}
);
width = 600;
},
{
hints = (
{
horizontal = 1;
place = (-10,80);
type = Stem;
},
{
horizontal = 1;
place = (597,80);
type = Stem;
},
{
place = (-36,110);
type = Stem;
},
{
place = (354,110);
type = Stem;
}
);
layerId = m002;
shapes = (
{
closed = 1;
nodes = (
(269,-25,ls),
(452,-25,o),
(590,124,o),
(638,347,cs),
(686,573,o),
(604,692,o),
(421,692,cs),
(245,692,ls),
(186,692,o),
(123,651,o),
(115,590,cs),
(85,402,o),
(55,265,o),
(5,77,cs),
(-11,16,o),
(34,-25,o),
(93,-25,cs)
);
},
{
closed = 1;
nodes = (
(252,285,o),
(271,380,o),
(277,408,cs),
(289,464,o),
(288,507,o),
(327,507,cs),
(382,507,ls),
(452,507,o),
(466,480,o),
(438,347,cs),
(410,215,o),
(381,165,o),
(309,165,cs),
(254,165,ls),
(241,165,o),
(222,180,o),
(227,198,cs)
);
}
);
width = 625;
},
{
hints = (
{
horizontal = 1;
place = (-10,80);
type = Stem;
},
{
horizontal = 1;
place = (597,80);
type = Stem;
},
{
place = (-36,110);
type = Stem;
},
{
place = (354,110);
type = Stem;
}
);
layerId = m003;
shapes = (
{
closed = 1;
nodes = (
(249,0,ls),
(399,0,o),
(505,120,o),
(553,347,cs),
(602,577,o),
(541,667,o),
(391,667,cs),
(215,667,ls),
(187,667,o),
(161,654,o),
(158,629,cs),
(127,438,o),
(83,229,o),
(32,38,cs),
(25,13,o),
(45,0,o),
(73,0,cs)
);
},
{
closed = 1;
nodes = (
(168,252,o),
(203,419,o),
(229,581,c),
(229,593,o),
(240,602,o),
(252,602,cs),
(377,602,ls),
(478,602,o),
(514,542,o),
(473,347,cs),
(432,154,o),
(364,70,o),
(264,70,cs),
(139,70,ls),
(127,70,o),
(120,79,o),
(124,91,c)
);
}
);
width = 600;
}
);
metricLeft = "=|H";
metricRight = "=O";
note = O;
},
{
glyphname = H.salt;
kernRight = KO_H;
lastChange = "2025-01-03 22:27:25 +0000";
layers = (
{
hints = (
{
horizontal = 1;
place = (0,21);
target = up;
type = BottomGhost;
},
{
horizontal = 1;
place = (305,75);
type = Stem;
},
{
place = (-1,100);
type = Stem;
},
{
place = (359,100);
type = Stem;
}
);
layerId = m005;
shapes = (
{
closed = 1;
nodes = (
(40,0,ls),
(71,0,o),
(107,18,o),
(110,49,cs),
(117,130,o),
(134,209,o),
(151,290,cs),
(152,297,o),
(157,300,o),
(163,300,cs),
(393,300,ls),
(399,300,o),
(402,296,o),
(401,290,cs),
(384,209,o),
(367,130,o),
(340,49,cs),
(329,18,o),
(357,0,o),
(388,0,cs),
(390,0,ls),
(421,0,o),
(455,18,o),
(460,49,cs),
(490,239,o),
(530,428,o),
(580,618,cs),
(589,649,o),
(563,667,o),
(532,667,cs),
(530,667,ls),
(499,667,o),
(477,649,o),
(470,618,cs),
(422,390,ls),
(421,384,o),
(416,380,o),
(410,380,cs),
(180,380,ls),
(174,380,o),
(171,383,o),
(172,390,cs),
(188,466,o),
(204,542,o),
(230,618,cs),
(241,649,o),
(213,667,o),
(182,667,cs),
(180,667,ls),
(149,667,o),
(115,649,o),
(110,618,cs),
(80,428,o),
(40,239,o),
(0,49,cs),
(-7,18,o),
(7,0,o),
(38,0,cs)
);
}
);
width = 570;
},
{
hints = (
{
horizontal = 1;
place = (0,21);
target = up;
type = BottomGhost;
},
{
horizontal = 1;
place = (305,75);
type = Stem;
},
{
place = (-1,100);
type = Stem;
},
{
place = (359,100);
type = Stem;
}
);
layerId = m002;
shapes = (
{
closed = 1;
nodes = (
(60,-25,ls),
(122,-25,o),
(186,19,o),
(191,80,cs),
(195,128,o),
(197,151,o),
(206,199,cs),
(213,232,o),
(235,250,o),
(267,250,cs),
(317,250,ls),
(349,250,o),
(363,232,o),
(357,200,cs),
(345,151,o),
(337,128,o),
(321,80,cs),
(300,19,o),
(346,-25,o),
(408,-25,cs),
(410,-25,ls),
(469,-25,o),
(532,16,o),
(540,77,cs),
(570,265,o),
(600,402,o),
(650,590,cs),
(666,651,o),
(621,692,o),
(562,692,cs),
(560,692,ls),
(501,692,o),
(453,652,o),
(440,593,cs),
(416,480,ls),
(409,448,o),
(388,430,o),
(356,430,cs),
(306,430,ls),
(274,430,o),
(259,448,o),
(267,480,cs),
(278,525,o),
(284,543,o),
(299,587,cs),
(320,648,o),
(274,692,o),
(212,692,cs),
(210,692,ls),
(151,692,o),
(88,651,o),
(80,590,cs),
(50,402,o),
(20,264,o),
(-20,74,cs),
(-33,15,o),
(-1,-25,o),
(58,-25,cs)
);
}
);
width = 620;
},
{
hints = (
{
horizontal = 1;
place = (0,21);
target = up;
type = BottomGhost;
},
{
horizontal = 1;
place = (305,75);
type = Stem;
},
{
place = (-1,100);
type = Stem;
},
{
place = (359,100);
type = Stem;
}
);
layerId = m003;
shapes = (
{
closed = 1;
nodes = (
(40,0,ls),
(71,0,o),
(107,18,o),
(110,49,cs),
(117,130,o),
(134,209,o),
(151,290,cs),
(152,297,o),
(157,300,o),
(163,300,cs),
(393,300,ls),
(399,300,o),
(402,296,o),
(401,290,cs),
(384,209,o),
(367,130,o),
(340,49,cs),
(329,18,o),
(357,0,o),
(388,0,cs),
(390,0,ls),
(421,0,o),
(455,18,o),
(460,49,cs),
(490,239,o),
(530,428,o),
(580,618,cs),
(589,649,o),
(563,667,o),
(532,667,cs),
(530,667,ls),
(499,667,o),
(477,649,o),
(470,618,cs),
(422,390,ls),
(421,384,o),
(416,380,o),
(410,380,cs),
(180,380,ls),
(174,380,o),
(171,383,o),
(172,390,cs),
(188,466,o),
(204,542,o),
(230,618,cs),
(241,649,o),
(213,667,o),
(182,667,cs),
(180,667,ls),
(149,667,o),
(115,649,o),
(110,618,cs),
(80,428,o),
(40,239,o),
(0,49,cs),
(-7,18,o),
(7,0,o),
(38,0,cs)
);
}
);
width = 570;
}
);
note = H;
},
{
glyphname = I.salt;
kernRight = KO_H;
lastChange = "2025-01-04 00:23:34 +0000";
layers = (
{
anchors = (
{
name = bottom;
pos = (38,0);
},
{
name = ogonek;
pos = (128,10);
},
{
name = top;
pos = (171,625);
},
{
name = topleft;
pos = (90,667);
}
);
hints = (
{
horizontal = 1;
place = (0,21);
target = up;
type = BottomGhost;
},
{
place = (-1,100);
type = Stem;
}
);
layerId = m005;
shapes = (
{
closed = 1;
nodes = (
(39,0,ls),
(70,0,o),
(104,18,o),
(109,49,cs),
(139,239,o),
(179,428,o),
(229,618,cs),
(238,649,o),
(212,667,o),
(181,667,cs),
(179,667,ls),
(148,667,o),
(126,649,o),
(119,618,cs),
(79,428,o),
(39,239,o),
(-11,49,cs),
(-20,18,o),
(6,0,o),
(37,0,cs)
);
}
);
width = 219;
},
{
anchors = (
{
name = bottom;
pos = (64,0);
},
{
name = ogonek;
pos = (154,10);
},
{
name = top;
pos = (197,625);
},
{
name = topleft;
pos = (116,667);
}
);
hints = (
{
horizontal = 1;
place = (0,21);
target = up;
type = BottomGhost;
},
{
place = (-1,100);
type = Stem;
}
);
layerId = m002;
shapes = (
{
closed = 1;
nodes = (
(54,-50,ls),
(113,-50,o),
(176,-9,o),
(185,52,cs),
(215,240,o),
(255,427,o),
(305,615,cs),
(322,676,o),
(277,717,o),
(218,717,cs),
(216,717,ls),
(157,717,o),
(108,677,o),
(95,618,cs),
(55,428,o),
(15,240,o),
(-35,52,cs),
(-52,-9,o),
(-7,-50,o),
(52,-50,cs)
);
}
);
width = 270;
},
{
anchors = (
{
name = bottom;
pos = (38,0);
},
{
name = ogonek;
pos = (128,10);
},
{
name = top;
pos = (171,625);
},
{
name = topleft;
pos = (90,667);
}
);
hints = (
{
horizontal = 1;
place = (0,21);
target = up;
type = BottomGhost;
},
{
place = (-1,100);
type = Stem;
}
);
layerId = m003;
shapes = (
{
closed = 1;
nodes = (
(39,0,ls),
(70,0,o),
(104,18,o),
(109,49,cs),
(139,239,o),
(179,428,o),
(229,618,cs),
(238,649,o),
(212,667,o),
(181,667,cs),
(179,667,ls),
(148,667,o),
(126,649,o),
(119,618,cs),
(79,428,o),
(39,239,o),
(-11,49,cs),
(-20,18,o),
(6,0,o),
(37,0,cs)
);
}
);
width = 229;
}
);
metricLeft = "=H.salt";
metricRight = "=H";
note = I;
},
{
glyphname = a;
kernLeft = KO_a;
kernRight = KO_a;
lastChange = "2025-01-04 00:23:34 +0000";
layers = (
{
anchors = (
{
name = bottom;
pos = (205,0);
},
{
name = ogonek;
pos = (413,10);
},
{
name = top;
pos = (311,500);
}
);
hints = (
{
horizontal = 1;
place = (0,21);
target = up;
type = BottomGhost;
},
{
horizontal = 1;
place = (435,75);
type = Stem;
},
{
place = (-13,100);
type = Stem;
},
{
place = (277,95);
type = Stem;
},
{
horizontal = 1;
place = (-10,80);
type = Stem;
}
);
layerId = m005;
shapes = (
{
closed = 1;
nodes = (
(234,-10,o),
(294,55,o),
(309,55,cs),
(318,55,o),
(321,46,o),
(321,32,cs),
(321,11,o),
(329,0,o),
(353,0,cs),
(375,0,o),
(401,12,o),
(404,34,cs),
(413,124,o),
(450,297,o),
(488,429,cs),
(496,457,o),
(476,475,o),
(452,485,cs),
(416,499,o),
(374,510,o),
(310,510,cs),
(150,510,o),
(72,355,o),
(50,250,cs),
(45,225,ls),
(13,75,o),
(38,-10,o),
(145,-10,cs)
);
},
{
closed = 1;
nodes = (
(132,75,o),
(123,124,o),
(145,225,cs),
(150,250,ls),
(166,323,o),
(202,435,o),
(294,435,cs),
(330,435,o),
(363,430,o),
(379,427,cs),
(384,426,o),
(387,422,o),
(384,416,cs),
(365,344,o),
(345,272,o),
(329,200,cs),
(315,132,o),
(245,75,o),
(188,75,cs)
);
}
);
width = 515;
},
{
anchors = (
{
name = bottom;
pos = (210,0);
},
{
name = ogonek;
pos = (422,10);
},
{
name = top;
pos = (316,500);
}
);
hints = (
{
horizontal = 1;
place = (0,21);
target = up;
type = BottomGhost;
},
{
horizontal = 1;
place = (435,75);
type = Stem;
},
{
place = (-13,100);
type = Stem;
},
{
place = (277,95);
type = Stem;
},
{
horizontal = 1;
place = (-10,80);
type = Stem;
}
);
layerId = m002;
shapes = (
{
closed = 1;
nodes = (
(269,-25,o),
(297,40,o),
(315,40,cs),
(327,40,o),
(323,26,o),
(331,8,cs),
(337,-6,o),
(348,-15,o),
(360,-15,cs),
(412,-15,o),
(466,21,o),
(473,74,cs),
(481,162,o),
(502,260,o),
(540,390,cs),
(555,442,o),
(525,479,o),
(482,497,cs),
(444,512,o),
(394,525,o),
(323,525,cs),
(122,525,o),
(35,367,o),
(10,250,cs),
(5,225,ls),
(-31,57,o),
(8,-25,o),
(152,-25,cs)
);
},
{
closed = 1;
nodes = (
(186,160,o),
(196,186,o),
(205,225,cs),
(210,250,ls),
(217,281,o),
(239,350,o),
(286,350,cs),
(293,350,o),
(300,350,o),
(307,349,cs),
(321,349,o),
(323,330,o),
(314,298,cs),
(303,254,o),
(299,244,o),
(289,200,cs),
(284,176,o),
(242,160,o),
(216,160,cs)
);
}
);
width = 526;
},
{
anchors = (
{
name = bottom;
pos = (205,0);
},
{
name = ogonek;
pos = (413,10);
},
{
name = top;
pos = (311,500);
}
);
hints = (
{
horizontal = 1;
place = (0,21);
target = up;
type = BottomGhost;
},
{
horizontal = 1;
place = (435,75);
type = Stem;
},
{
place = (-13,100);
type = Stem;
},
{
place = (277,95);
type = Stem;
},
{
horizontal = 1;
place = (-10,80);
type = Stem;
}
);
layerId = m003;
shapes = (
{
closed = 1;
nodes = (
(233,-7,o),
(285,58,o),
(309,58,cs),
(323,58,o),
(330,47,o),
(330,27,cs),
(330,9,o),
(333,3,o),
(353,3,cs),
(373,3,o),
(390,11,o),
(392,26,cs),
(402,116,o),
(441,304,o),
(480,437,cs),
(486,459,o),
(470,473,o),
(449,483,cs),
(412,496,o),
(373,507,o),
(310,507,cs),
(158,507,o),
(82,354,o),
(60,250,cs),
(55,225,ls),
(23,77,o),
(44,-7,o),
(145,-7,cs)
);
},
{
closed = 1;
nodes = (
(120,58,o),
(113,121,o),
(135,225,cs),
(140,250,ls),
(156,324,o),
(196,452,o),
(298,452,cs),
(335,452,o),
(369,447,o),
(384,444,cs),
(395,442,o),
(400,433,o),
(396,422,c),
(376,350,o),
(354,271,o),
(339,200,cs),
(324,127,o),
(247,58,o),
(184,58,cs)
);
}
);
width = 515;
}
);
metricLeft = "=o";
metricRight = "=|n";
note = d;
unicode = 97;
userData = {
KernOnName = a;
};
},
{
glyphname = ae;
kernLeft = KO_ae;
kernRight = KO_e;
lastChange = "2025-01-04 00:23:46 +0000";
layers = (
{
anchors = (
{
name = bottom;
pos = (324,0);
},
{
name = top;
pos = (430,500);
}
);
hints = (
{
horizontal = 1;
place = (-10,75);
type = Stem;
},
{
horizontal = 1;
place = (215,65);
type = Stem;
},
{
horizontal = 1;
place = (440,70);
type = Stem;
},
{
place = (-23,90);
type = Stem;
},
{
place = (247,95);
type = Stem;
},
{
place = (527,100);
type = Stem;
},
{
horizontal = 1;
place = (250,60);
type = Stem;
},
{
horizontal = 1;
place = (-10,80);
type = Stem;
},
{
horizontal = 1;
place = (-10,75);
type = Stem;
},
{
horizontal = 1;
place = (215,65);
type = Stem;
},
{
horizontal = 1;
place = (440,70);
type = Stem;
},
{
place = (-13,100);
type = Stem;
},
{
place = (272,100);
type = Stem;
},
{
horizontal = 1;
place = (0,21);
target = up;
type = BottomGhost;
},
{
horizontal = 1;
place = (435,75);
type = Stem;
},
{
place = (-275,100);
type = Stem;
},
{
place = (15,95);
type = Stem;
},
{
horizontal = 1;
place = (-10,80);
type = Stem;
}
);
layerId = m005;
shapes = (
{
closed = 1;
nodes = (
(532,-10,o),
(590,9,o),
(615,19,cs),
(622,22,o),
(637,30,o),
(636,61,cs),
(636,83,o),
(614,108,o),
(590,100,cs),
(568,93,o),
(529,65,o),
(486,65,cs),
(399,65,o),
(385,122,o),
(401,208,cs),
(402,214,o),
(406,218,o),
(413,218,cs),
(511,218,o),
(697,223,o),
(725,352,cs),
(736,405,o),
(726,510,o),
(580,510,cs),
(420,510,o),
(342,355,o),
(320,250,cs),
(315,225,ls),
(292,120,o),
(310,-10,o),
(470,-10,cs)
);
},
{
closed = 1;
nodes = (
(422,288,o),
(419,292,o),
(420,298,cs),
(439,378,o),
(479,440,o),
(565,440,cs),
(619,440,o),
(632,398,o),
(624,350,cs),
(616,307,o),
(568,289,o),
(429,288,cs)
);
},
{
closed = 1;
nodes = (
(214,-10,o),
(354,59,o),
(395,249,c),
(400,275,ls),
(428,404,o),
(460,510,o),
(310,510,cs),
(260,510,o),
(214,498,o),
(185,488,cs),
(162,480,o),
(151,464,o),
(154,443,cs),
(154,442,o),
(155,441,o),
(154,440,cs),
(156,417,o),
(169,403,o),
(192,411,cs),
(214,418,o),
(245,435,o),
(279,435,cs),
(359,435,o),
(353,405,o),
(333,310,c),
(197,310,o),
(57,282,o),
(30,155,cs),
(9,59,o),
(10,-10,o),
(120,-10,cs)
);
},
{
closed = 1;
nodes = (
(116,65,o),
(108,99,o),
(120,155,cs),
(137,238,o),
(248,249,o),
(320,250,c),
(309,200,ls),
(295,132,o),
(223,65,o),
(166,65,cs)
);
}
);
width = 753;
},
{
anchors = (
{
name = bottom;
pos = (334,0);
},
{
name = top;
pos = (440,500);
}
);
hints = (
{
horizontal = 1;
place = (-10,75);
type = Stem;
},
{
horizontal = 1;
place = (215,65);
type = Stem;
},
{
horizontal = 1;
place = (440,70);
type = Stem;
},
{
place = (-23,90);
type = Stem;
},
{
place = (247,95);
type = Stem;
},
{
place = (527,100);
type = Stem;
},
{
horizontal = 1;
place = (250,60);
type = Stem;
},
{
horizontal = 1;
place = (-10,80);
type = Stem;
}
);
layerId = m002;
shapes = (
{
closed = 1;
nodes = (
(548,-25,o),
(615,-2,o),
(643,9,cs),
(674,22,o),
(705,54,o),
(704,108,cs),
(702,158,o),
(655,200,o),
(601,182,cs),
(574,174,o),
(540,150,o),
(513,150,cs),
(486,150,o),
(469,158,o),
(472,171,cs),
(476,189,o),
(487,203,o),
(526,207,cs),
(635,218,o),
(758,221,o),
(786,352,cs),
(799,417,o),
(778,525,o),
(592,525,cs),
(391,525,o),
(304,367,o),
(279,250,cs),
(274,225,ls),
(256,143,o),
(276,-25,o),
(476,-25,cs)
);
},
{
closed = 1;
nodes = (
(529,338,o),
(510,344,o),
(513,359,cs),
(518,382,o),
(544,390,o),
(564,390,cs),
(578,390,o),
(591,385,o),
(587,368,cs),
(584,353,o),
(579,341,o),
(544,339,cs)
);
},
{
closed = 1;
nodes = (
(245,-25,o),
(413,52,o),
(455,249,cs),
(460,275,ls),
(487,400,o),
(524,525,o),
(323,525,cs),
(266,525,o),
(211,511,o),
(179,500,cs),
(133,483,o),
(112,479,o),
(113,436,cs),
(113,437,o),
(113,437,o),
(113,438,cs),
(112,378,o),
(153,345,o),
(209,364,cs),
(237,373,o),
(258,385,o),
(279,385,cs),
(300,385,o),
(306,385,o),
(302,359,c),
(168,351,o),
(22,307,o),
(-10,155,cs),
(-27,75,o),
(-25,-25,o),
(127,-25,cs)
);
},
{
closed = 1;
nodes = (
(179,140,o),
(177,143,o),
(180,155,cs),
(185,181,o),
(224,192,o),
(269,197,c),
(269,200,ls),
(260,158,o),
(219,140,o),
(192,140,cs)
);
}
);
width = 774;
},
{
anchors = (
{
name = bottom;
pos = (331,0);
},
{
name = top;
pos = (437,500);
}
);
hints = (
{
horizontal = 1;
place = (-10,75);
type = Stem;
},
{
horizontal = 1;
place = (215,65);
type = Stem;
},
{
horizontal = 1;
place = (440,70);
type = Stem;
},
{
place = (-23,90);
type = Stem;
},
{
place = (247,95);
type = Stem;
},
{
place = (527,100);
type = Stem;
},
{
horizontal = 1;
place = (250,60);
type = Stem;
},
{
horizontal = 1;
place = (-10,80);
type = Stem;
}
);
layerId = m003;
shapes = (
{
closed = 1;
nodes = (
(538,-7,o),
(596,12,o),
(622,22,cs),
(628,25,o),
(641,31,o),
(640,60,cs),
(639,81,o),
(619,104,o),
(597,97,cs),
(575,90,o),
(536,62,o),
(492,62,cs),
(403,62,o),
(389,121,o),
(405,208,cs),
(407,215,o),
(412,221,o),
(421,221,cs),
(519,221,o),
(702,226,o),
(729,352,cs),
(740,404,o),
(731,507,o),
(587,507,cs),
(429,507,o),
(352,354,o),
(330,250,cs),
(325,225,ls),
(303,121,o),
(319,-7,o),
(477,-7,cs)
);
},
{
closed = 1;
nodes = (
(426,285,o),
(423,290,o),
(424,298,cs),
(443,379,o),
(485,443,o),
(573,443,cs),
(629,443,o),
(643,399,o),
(634,350,cs),
(626,305,o),
(576,286,o),
(435,285,cs)
);
},
{
closed = 1;
nodes = (
(220,-7,o),
(359,61,o),
(399,249,cs),
(404,275,ls),
(432,404,o),
(464,507,o),
(317,507,cs),
(267,507,o),
(221,495,o),
(192,485,cs),
(170,478,o),
(161,464,o),
(164,443,c),
(164,441,o),
(165,441,o),
(164,440,c),
(167,419,o),
(177,407,o),
(199,414,cs),
(220,421,o),
(252,438,o),
(287,438,cs),
(371,438,o),
(363,404,o),
(342,307,c),
(205,307,o),
(66,280,o),
(40,155,cs),
(19,59,o),
(19,-7,o),
(127,-7,cs)
);
},
{
closed = 1;
nodes = (
(120,62,o),
(112,98,o),
(124,155,cs),
(142,242,o),
(258,252,o),
(331,253,c),
(319,200,ls),
(304,130,o),
(231,62,o),
(172,62,cs)
);
}
);
width = 767;
}
);
metricLeft = "=a";
metricRight = "=e";
note = ae;
unicode = 230;
},
{
glyphname = b;
kernLeft = KO_h;
kernRight = KO_p;
lastChange = "2025-01-04 00:23:34 +0000";
layers = (
{
hints = (
{
horizontal = 1;
place = (-10,70);
type = Stem;
},
{
horizontal = 1;
place = (430,80);
type = Stem;
},
{
place = (-14,95);
type = Stem;
},
{
place = (271,100);
type = Stem;
},
{
horizontal = 1;
place = (0,21);
target = up;
type = BottomGhost;
}
);
layerId = m005;
shapes = (
{
closed = 1;
nodes = (
(364,-10,o),
(442,145,o),
(465,250,cs),
(470,275,ls),
(502,425,o),
(477,510,o),
(370,510,cs),
(281,510,o),
(239,461,o),
(230,461,cs),
(221,461,o),
(221,469,o),
(228,500,cs),
(239,550,o),
(256,611,o),
(272,661,cs),
(282,692,o),
(255,710,o),
(224,710,cs),
(191,710,o),
(169,692,o),
(162,661,cs),
(119,460,o),
(75,249,o),
(22,48,cs),
(13,17,o),
(39,0,o),
(69,-2,cs),
(107,-5,o),
(142,-10,o),
(204,-10,cs)
);
},
{
closed = 1;
nodes = (
(193,80,o),
(164,83,o),
(146,88,cs),
(143,89,o),
(141,93,o),
(143,99,cs),
(185,300,ls),
(200,368,o),
(272,435,o),
(329,435,cs),
(385,435,o),
(392,376,o),
(370,275,cs),
(365,250,ls),
(349,177,o),
(316,80,o),
(224,80,cs)
);
}
);
width = 515;
},
{
hints = (
{
horizontal = 1;
place = (-10,70);
type = Stem;
},
{
horizontal = 1;
place = (430,80);
type = Stem;
},
{
place = (-14,95);
type = Stem;
},
{
place = (271,100);
type = Stem;
},
{
horizontal = 1;
place = (0,21);
target = up;
type = BottomGhost;
}
);
layerId = m002;
shapes = (
{
closed = 1;
nodes = (
(402,-25,o),
(497,168,o),
(515,250,cs),
(520,275,ls),
(556,443,o),
(517,525,o),
(383,525,cs),
(353,525,o),
(316,513,o),
(297,506,cs),
(289,503,o),
(278,502,o),
(281,514,cs),
(287,542,o),
(298,571,o),
(314,621,cs),
(333,682,o),
(288,725,o),
(227,725,cs),
(166,725,o),
(117,685,o),
(105,626,cs),
(62,425,o),
(32,285,o),
(-20,86,cs),
(-35,32,o),
(-2,-13,o),
(62,-17,cs),
(98,-20,o),
(136,-25,o),
(201,-25,cs)
);
},
{
closed = 1;
nodes = (
(235,165,o),
(226,164,o),
(220,171,cs),
(214,177,o),
(211,184,o),
(215,204,cs),
(228,265,ls),
(238,314,o),
(277,350,o),
(311,350,cs),
(331,350,o),
(332,329,o),
(320,275,cs),
(315,250,ls),
(307,215,o),
(290,165,o),
(242,165,cs)
);
}
);
width = 525;
},
{
hints = (
{
horizontal = 1;
place = (-10,70);
type = Stem;
},
{
horizontal = 1;
place = (430,80);
type = Stem;
},
{
place = (-14,95);
type = Stem;
},
{
place = (271,100);
type = Stem;
},
{
horizontal = 1;
place = (0,21);
target = up;
type = BottomGhost;
}
);
layerId = m003;
shapes = (
{
closed = 1;
nodes = (
(357,-7,o),
(433,146,o),
(455,250,cs),
(460,275,ls),
(493,430,o),
(470,507,o),
(369,507,cs),
(286,507,o),
(243,458,o),
(229,458,cs),
(213,458,o),
(211,468,o),
(219,507,cs),
(230,557,o),
(248,619,o),
(264,669,cs),
(271,694,o),
(251,707,o),
(223,707,cs),
(194,707,o),
(179,695,o),
(174,668,cs),
(131,467,o),
(83,242,o),
(30,40,cs),
(23,16,o),
(42,3,o),
(71,1,cs),
(108,-2,o),
(144,-7,o),
(205,-7,cs)
);
},
{
closed = 1;
nodes = (
(188,63,o),
(159,66,o),
(141,71,cs),
(132,73,o),
(129,81,o),
(131,92,cs),
(177,307,ls),
(192,379,o),
(269,452,o),
(333,452,cs),
(397,452,o),
(404,386,o),
(380,275,cs),
(375,250,ls),
(359,176,o),
(321,63,o),
(220,63,cs)
);
}
);
width = 515;
}
);
metricLeft = "=n";
metricRight = "=o";
note = b;
unicode = 98;
},
{
glyphname = c;
kernLeft = KO_e;
kernRight = KO_c;
lastChange = "2025-01-04 00:23:34 +0000";
layers = (
{
anchors = (
{
name = bottom;
pos = (202,0);
},
{
name = top;
pos = (308,500);
}
);
hints = (
{
horizontal = 1;
place = (-10,80);
type = Stem;
},
{
horizontal = 1;
place = (435,75);
type = Stem;
},
{
place = (-13,100);
type = Stem;
}
);
layerId = m005;
shapes = (
{
closed = 1;
nodes = (
(247,-10,o),
(298,5,o),
(324,16,cs),
(334,20,o),
(352,33,o),
(351,60,cs),
(348,83,o),
(329,107,o),
(304,99,cs),
(283,92,o),
(250,65,o),
(216,65,cs),
(126,65,o),
(130,157,o),
(145,225,cs),
(150,250,ls),
(164,318,o),
(204,435,o),
(294,435,cs),
(313,435,o),
(329,432,o),
(341,426,cs),
(359,418,o),
(372,416,o),
(390,430,cs),
(405,441,ls),
(426,458,o),
(432,479,o),
(411,490,cs),
(387,503,o),
(353,510,o),
(310,510,cs),
(150,510,o),
(72,355,o),
(50,250,cs),
(45,225,ls),
(22,120,o),
(40,-10,o),
(200,-10,cs)
);
}
);
width = 406;
},
{
anchors = (
{
name = bottom;
pos = (212,0);
},
{
name = top;
pos = (318,500);
}
);
hints = (
{
horizontal = 1;
place = (-10,80);
type = Stem;
},
{
horizontal = 1;
place = (435,75);
type = Stem;
},
{
place = (-13,100);
type = Stem;
}
);
layerId = m002;
shapes = (
{
closed = 1;
nodes = (
(263,-25,o),
(322,-7,o),
(353,5,cs),
(387,19,o),
(422,58,o),
(419,110,cs),
(413,160,o),
(369,199,o),
(314,181,cs),
(292,173,o),
(259,150,o),
(244,150,cs),
(197,150,o),
(199,196,o),
(205,225,cs),
(210,250,ls),
(224,315,o),
(240,350,o),
(286,350,cs),
(300,350,o),
(306,349,o),
(314,345,cs),
(352,328,o),
(387,333,o),
(419,358,cs),
(433,369,ls),
(488,411,o),
(494,474,o),
(445,500,cs),
(415,516,o),
(372,525,o),
(323,525,cs),
(122,525,o),
(35,367,o),
(10,250,cs),
(5,225,ls),
(-20,108,o),
(7,-25,o),
(207,-25,cs)
);
}
);
width = 456;
},
{
anchors = (
{
name = bottom;
pos = (202,0);
},
{
name = top;
pos = (308,500);
}
);
hints = (
{
horizontal = 1;
place = (-10,80);
type = Stem;
},
{
horizontal = 1;
place = (435,75);
type = Stem;
},
{
place = (-13,100);
type = Stem;
}
);
layerId = m003;
shapes = (
{
closed = 1;
nodes = (
(245,-7,o),
(294,7,o),
(321,18,cs),
(330,22,o),
(340,29,o),
(338,50,cs),
(336,71,o),
(322,88,o),
(304,83,cs),
(285,76,o),
(250,48,o),
(212,48,cs),
(113,48,o),
(120,156,o),
(135,225,cs),
(140,250,ls),
(155,319,o),
(199,452,o),
(298,452,cs),
(318,452,o),
(335,449,o),
(349,442,cs),
(365,435,o),
(373,434,o),
(386,444,cs),
(401,455,ls),
(420,469,o),
(422,480,o),
(407,488,cs),
(383,500,o),
(352,507,o),
(310,507,cs),
(158,507,o),
(82,354,o),
(60,250,cs),
(55,225,ls),
(33,122,o),
(47,-7,o),
(200,-7,cs)
);
}
);
width = 398;
}
);
metricLeft = "=o";
metricRight = "=o/4";
note = c;
unicode = 99;
userData = {
KernOnName = c;
};
},
{
glyphname = d;
kernLeft = KO_a;
kernRight = KO_d;
lastChange = "2025-01-04 00:23:34 +0000";
layers = (
{
anchors = (
{
name = bottom;
pos = (212,0);
},
{
name = center;
pos = (462,560);
},
{
name = top;
pos = (318,500);
},
{
name = topright;
pos = (603,700);
}
);
hints = (
{
horizontal = 1;
place = (0,21);
target = up;
type = BottomGhost;
},
{
horizontal = 1;
place = (435,75);
type = Stem;
},
{
place = (-34,100);
type = Stem;
},
{
place = (256,95);
type = Stem;
},
{
horizontal = 1;
place = (-10,80);
type = Stem;
}
);
layerId = m005;
shapes = (
{
closed = 1;
nodes = (
(234,-10,o),
(294,55,o),
(309,55,cs),
(318,55,o),
(321,46,o),
(321,32,cs),
(322,11,o),
(329,-5,o),
(366,-5,cs),
(401,-5,o),
(420,23,o),
(417,44,cs),
(404,124,o),
(443,310,o),
(538,661,cs),
(547,692,o),
(521,710,o),
(488,710,cs),
(457,710,o),
(435,692,o),
(428,661,cs),
(396,511,ls),
(395,504,o),
(390,501,o),
(384,503,cs),
(370,506,o),
(344,510,o),
(311,510,cs),
(151,510,o),
(73,355,o),
(51,250,cs),
(45,225,ls),
(14,75,o),
(38,-10,o),
(145,-10,cs)
);
},
{
closed = 1;
nodes = (
(133,75,o),
(124,124,o),
(145,225,cs),
(151,250,ls),
(166,323,o),
(203,435,o),
(295,435,cs),
(330,435,o),
(357,430,o),
(369,427,cs),
(375,426,o),
(377,422,o),
(376,416,cs),
(330,200,ls),
(316,132,o),
(246,75,o),
(189,75,cs)
);
}
);
width = 528;
},
{
anchors = (
{
name = bottom;
pos = (216,0);
},
{
name = center;
pos = (468,560);
},
{
name = top;
pos = (322,500);
},
{
name = topright;
pos = (611,700);
}
);
hints = (
{
horizontal = 1;
place = (0,21);
target = up;
type = BottomGhost;
},
{
horizontal = 1;
place = (435,75);
type = Stem;
},
{
place = (-34,100);
type = Stem;
},
{
place = (256,95);
type = Stem;
},
{
horizontal = 1;
place = (-10,80);
type = Stem;
}
);
layerId = m002;
shapes = (
{
closed = 1;
nodes = (
(219,-25,o),
(265,-2,o),
(285,12,cs),
(298,21,o),
(315,21,o),
(318,5,cs),
(320,-9,o),
(328,-20,o),
(372,-20,cs),
(442,-20,o),
(483,20,o),
(478,62,cs),
(470,121,o),
(496,274,o),
(590,623,cs),
(607,684,o),
(562,725,o),
(501,725,cs),
(442,725,o),
(393,685,o),
(381,626,cs),
(364,549,ls),
(361,533,o),
(350,524,o),
(333,525,cs),
(330,525,o),
(327,525,o),
(324,525,cs),
(123,525,o),
(36,367,o),
(11,250,cs),
(5,225,ls),
(-30,57,o),
(8,-25,o),
(152,-25,cs)
);
},
{
closed = 1;
nodes = (
(195,160,o),
(193,168,o),
(205,225,cs),
(211,250,ls),
(226,320,o),
(242,360,o),
(289,360,cs),
(295,360,o),
(301,360,o),
(307,359,cs),
(318,359,o),
(322,349,o),
(319,334,cs),
(298,235,ls),
(288,188,o),
(254,160,o),
(217,160,cs)
);
}
);
width = 536;
},
{
anchors = (
{
name = bottom;
pos = (212,0);
},
{
name = center;
pos = (463,560);
},
{
name = top;
pos = (318,500);
},
{
name = topright;
pos = (604,700);
}
);
hints = (
{
horizontal = 1;
place = (0,21);
target = up;
type = BottomGhost;
},
{
horizontal = 1;
place = (435,75);
type = Stem;
},
{
place = (-34,100);
type = Stem;
},
{
place = (256,95);
type = Stem;
},
{
horizontal = 1;
place = (-10,80);
type = Stem;
}
);
layerId = m003;
shapes = (
{
closed = 1;
nodes = (
(234,-7,o),
(286,58,o),
(310,58,cs),
(324,58,o),
(331,47,o),
(330,27,cs),
(330,8,o),
(335,-2,o),
(366,-2,cs),
(395,-2,o),
(408,17,o),
(406,33,cs),
(392,115,o),
(435,317,o),
(530,669,cs),
(537,694,o),
(517,707,o),
(489,707,cs),
(460,707,o),
(445,695,o),
(440,668,cs),
(404,502,ls),
(403,497,o),
(400,494,o),
(395,496,cs),
(379,501,o),
(348,507,o),
(310,507,cs),
(158,507,o),
(83,354,o),
(61,250,cs),
(55,225,ls),
(24,77,o),
(45,-7,o),
(146,-7,cs)
);
},
{
closed = 1;
nodes = (
(121,58,o),
(113,121,o),
(135,225,cs),
(141,250,ls),
(156,324,o),
(197,452,o),
(299,452,cs),
(337,452,o),
(368,446,o),
(385,441,cs),
(389,440,o),
(390,437,o),
(390,433,cs),
(340,200,ls),
(325,127,o),
(248,58,o),
(185,58,cs)
);
}
);
width = 529;
}
);
metricLeft = "=o";
metricRight = "=|n";
note = d;
unicode = 100;
userData = {
KernOnName = d;
};
},
{
glyphname = dcroat;
kernLeft = KO_aacute;
kernRight = KO_dcroat;
lastChange = "2025-01-04 00:23:31 +0000";
layers = (
{
anchors = (
{
name = top;
pos = (369,633);
}
);
hints = (
{
horizontal = 1;
place = (568,65);
type = Stem;
},
{
place = (169,400);
type = Stem;
}
);
layerId = m003;
shapes = (
{
ref = d;
},
{
closed = 1;
nodes = (
(577,601,ls),
(581,619,o),
(565,642,o),
(546,640,cs),
(432,630,o),
(320,630,o),
(208,630,cs),
(190,630,o),
(177,619,o),
(173,601,cs),
(173,600,ls),
(169,581,o),
(175,559,o),
(194,561,cs),
(308,571,o),
(420,571,o),
(530,561,cs),
(547,559,o),
(573,582,o),
(577,600,cs)
);
}
);
width = 576;
},
{
anchors = (
{
name = top;
pos = (335,633);
}
);
hints = (
{
horizontal = 1;
place = (568,65);
type = Stem;
},
{
place = (135,400);
type = Stem;
}
);
layerId = m005;
shapes = (
{
ref = d;
},
{
closed = 1;
nodes = (
(586,601,ls),
(590,621,o),
(573,645,o),
(553,643,cs),
(439,633,o),
(327,633,o),
(215,633,cs),
(195,633,o),
(180,621,o),
(176,601,cs),
(176,600,ls),
(172,580,o),
(179,556,o),
(199,558,cs),
(313,568,o),
(425,568,o),
(535,558,cs),
(555,556,o),
(582,580,o),
(586,600,cs)
);
}
);
width = 545;
},
{
anchors = (
{
name = top;
pos = (353,653);
}
);
hints = (
{
horizontal = 1;
place = (588,65);
type = Stem;
},
{
place = (153,400);
type = Stem;
}
);
layerId = m002;
shapes = (
{
ref = d;
},
{
closed = 1;
nodes = (
(641,624,ls),
(649,659,o),
(621,694,o),
(586,691,cs),
(473,681,o),
(362,681,o),
(250,681,cs),
(216,681,o),
(188,658,o),
(181,624,cs),
(181,623,ls),
(174,589,o),
(189,552,o),
(226,556,cs),
(339,566,o),
(449,566,o),
(558,556,cs),
(591,553,o),
(634,588,o),
(641,623,cs)
);
}
);
width = 588;
}
);
metricLeft = "=d";
unicode = 273;
},
{
glyphname = eth;
kernLeft = KO_eth;
lastChange = "2025-01-03 23:54:17 +0000";
layers = (
{
hints = (
{
horizontal = 1;
place = (-10,70);
type = Stem;
},
{
horizontal = 1;
place = (340,70);
type = Stem;
},
{
horizontal = 1;
place = (612,65);
type = Stem;
},
{
place = (24,112);
type = Stem;
},
{
place = (364,117);
type = Stem;
},
{
horizontal = 1;
place = (182.967,45.255);
type = Stem;
},
{
place = (356.569,282.843);
type = Stem;
}
);
layerId = m005;
shapes = (
{
pos = (410,0);
ref = six;
scale = (-1,1);
slant = (23.031,0);
},
{
closed = 1;
nodes = (
(377,675,ls),
(359,693,o),
(330,702,o),
(315,682,cs),
(270,623,o),
(217,570,o),
(165,518,cs),
(147,500,o),
(147,481,o),
(165,463,cs),
(166,462,ls),
(184,444,o),
(213,435,o),
(229,454,cs),
(274,514,o),
(326,566,o),
(378,619,cs),
(396,636,o),
(396,656,o),
(378,674,cs)
);
}
);
width = 552;
},
{
hints = (
{
horizontal = 1;
place = (-10,70);
type = Stem;
},
{
horizontal = 1;
place = (340,70);
type = Stem;
},
{
horizontal = 1;
place = (612,65);
type = Stem;
},
{
place = (24,112);
type = Stem;
},
{
place = (364,117);
type = Stem;
},
{
horizontal = 1;
place = (182.967,45.255);
type = Stem;
},
{
place = (356.569,282.843);
type = Stem;
}
);
layerId = m002;
shapes = (
{
pos = (405,1);
ref = six;
scale = (-1,1);
slant = (23.031,0);
},
{
closed = 1;
nodes = (
(409,714,ls),
(371,752,o),
(316,764,o),
(283,721,cs),
(236,660,o),
(200,607,o),
(146,553,cs),
(108,515,o),
(88,499,o),
(126,461,cs),
(135,453,ls),
(173,414,o),
(227,432,o),
(260,476,cs),
(308,537,o),
(303,532,o),
(357,587,cs),
(396,625,o),
(456,667,o),
(417,706,cs)
);
}
);
width = 552;
},
{
hints = (
{
horizontal = 1;
place = (-10,70);
type = Stem;
},
{
horizontal = 1;
place = (340,70);
type = Stem;
},
{
horizontal = 1;
place = (612,65);
type = Stem;
},
{
place = (24,112);
type = Stem;
},
{
place = (364,117);
type = Stem;
},
{
horizontal = 1;
place = (182.967,45.255);
type = Stem;
},
{
place = (356.569,282.843);
type = Stem;
}
);
layerId = m003;
shapes = (
{
pos = (410,0);
ref = six;
scale = (-1,1);
slant = (23.031,0);
},
{
closed = 1;
nodes = (
(370,668,ls),
(354,684,o),
(334,690,o),
(323,676,cs),
(277,616,o),
(224,563,o),
(172,511,cs),
(157,496,o),
(157,485,o),
(172,470,cs),
(173,469,ls),
(190,452,o),
(209,447,o),
(221,461,cs),
(266,520,o),
(319,573,o),
(371,626,cs),
(386,640,o),
(386,652,o),
(371,667,cs)
);
}
);
width = 552;
}
);
note = eth;
unicode = 240;
},
{
glyphname = e;
kernLeft = KO_e;
kernRight = KO_e;
lastChange = "2025-01-04 00:23:34 +0000";
layers = (
{
anchors = (
{
name = bottom;
pos = (202,0);
},
{
name = ogonek;
pos = (345,19);
},
{
name = top;
pos = (308,500);
}
);
hints = (
{
horizontal = 1;
place = (-10,75);
type = Stem;
},
{
horizontal = 1;
place = (215,65);
type = Stem;
},
{
horizontal = 1;
place = (440,70);
type = Stem;
},
{
place = (-13,100);
type = Stem;
},
{
place = (272,100);
type = Stem;
}
);
layerId = m005;
shapes = (
{
closed = 1;
nodes = (
(262,-10,o),
(320,9,o),
(345,19,cs),
(352,22,o),
(367,30,o),
(366,61,cs),
(366,83,o),
(344,108,o),
(320,100,cs),
(298,93,o),
(259,65,o),
(216,65,cs),
(129,65,o),
(115,122,o),
(131,208,cs),
(132,214,o),
(136,218,o),
(143,218,cs),
(241,218,o),
(427,223,o),
(455,352,cs),
(466,405,o),
(456,510,o),
(310,510,cs),
(150,510,o),
(72,355,o),
(50,250,cs),
(45,225,ls),
(22,120,o),
(40,-10,o),
(200,-10,cs)
);
},
{
closed = 1;
nodes = (
(152,288,o),
(149,292,o),
(150,298,cs),
(169,378,o),
(209,440,o),
(295,440,cs),
(349,440,o),
(362,398,o),
(354,350,cs),
(346,307,o),
(298,289,o),
(159,288,cs)
);
}
);
width = 483;
},
{
anchors = (
{
name = bottom;
pos = (212,0);
},
{
name = ogonek;
pos = (374,9);
},
{
name = top;
pos = (318,500);
}
);
hints = (
{
horizontal = 1;
place = (-10,75);
type = Stem;
},
{
horizontal = 1;
place = (215,65);
type = Stem;
},
{
horizontal = 1;
place = (440,70);
type = Stem;
},
{
place = (-13,100);
type = Stem;
},
{
place = (272,100);
type = Stem;
}
);
layerId = m002;
shapes = (
{
closed = 1;
nodes = (
(279,-25,o),
(346,-2,o),
(374,9,cs),
(405,22,o),
(436,54,o),
(435,108,cs),
(433,158,o),
(386,200,o),
(332,182,cs),
(305,174,o),
(271,150,o),
(244,150,cs),
(217,150,o),
(200,158,o),
(203,171,cs),
(207,189,o),
(218,203,o),
(257,207,cs),
(366,218,o),
(489,221,o),
(517,352,cs),
(530,417,o),
(509,525,o),
(323,525,cs),
(122,525,o),
(35,367,o),
(10,250,cs),
(5,225,ls),
(-13,143,o),
(7,-25,o),
(207,-25,cs)
);
},
{
closed = 1;
nodes = (
(260,338,o),
(241,344,o),
(244,359,cs),
(249,382,o),
(275,390,o),
(295,390,cs),
(309,390,o),
(322,385,o),
(318,368,cs),
(315,353,o),
(310,341,o),
(275,339,cs)
);
}
);
width = 505;
},
{
anchors = (
{
name = bottom;
pos = (202,0);
},
{
name = ogonek;
pos = (341,21);
},
{
name = top;
pos = (308,500);
}
);
hints = (
{
horizontal = 1;
place = (-10,75);
type = Stem;
},
{
horizontal = 1;
place = (215,65);
type = Stem;
},
{
horizontal = 1;
place = (440,70);
type = Stem;
},
{
place = (-13,100);
type = Stem;
},
{
place = (272,100);
type = Stem;
}
);
layerId = m003;
shapes = (
{
closed = 1;
nodes = (
(260,-7,o),
(316,11,o),
(341,21,c),
(347,24,o),
(355,28,o),
(354,52,cs),
(354,71,o),
(338,90,o),
(320,84,cs),
(299,77,o),
(259,48,o),
(212,48,cs),
(118,48,o),
(104,119,o),
(121,208,cs),
(124,220,o),
(132,228,o),
(145,228,cs),
(243,228,o),
(419,233,o),
(445,352,cs),
(456,404,o),
(449,507,o),
(310,507,cs),
(158,507,o),
(82,354,o),
(60,250,cs),
(55,225,ls),
(33,122,o),
(47,-7,o),
(200,-7,cs)
);
},
{
closed = 1;
nodes = (
(144,278,o),
(138,286,o),
(140,298,cs),
(160,381,o),
(205,457,o),
(299,457,cs),
(360,457,o),
(373,402,o),
(364,350,cs),
(354,299,o),
(301,279,o),
(157,278,cs)
);
}
);
width = 483;
}
);
metricLeft = "=o";
metricRight = "=o";
note = e;
unicode = 101;
userData = {
KernOnName = e;
};
},
{
glyphname = f;
kernLeft = KO_f;
kernRight = KO_f;
lastChange = "2025-01-03 22:26:37 +0000";
layers = (
{
hints = (
{
horizontal = 1;
place = (0,21);
target = up;
type = BottomGhost;
},
{
horizontal = 1;
place = (435,65);
type = Stem;
},
{
horizontal = 1;
place = (640,61);
type = Stem;
},
{
place = (6,95.5);
type = Stem;
}
);
layerId = m005;
shapes = (
{
closed = 1;
nodes = (
(54,-10,cs),
(85,-10,o),
(119,8,o),
(124,39,cs),
(140,163,o),
(169,296,o),
(195,420,cs),
(196,426,o),
(201,430,o),
(207,430,cs),
(229,429,o),
(250,425,o),
(272,425,cs),
(294,425,o),
(310,442,o),
(314,464,cs),
(319,488,o),
(311,505,o),
(289,505,cs),
(267,505,o),
(244,501,o),
(222,500,cs),
(216,500,o),
(213,504,o),
(214,511,cs),
(233,598,o),
(240,640,o),
(292,640,cs),
(313,640,o),
(310,629,o),
(320,627,cs),
(338,622,o),
(365,638,o),
(377,659,cs),
(388,679,o),
(374,695,o),
(356,701,cs),
(336,707,o),
(313,710,o),
(287,710,cs),
(161,710,o),
(137,616,o),
(114,510,cs),
(113,504,o),
(108,500,o),
(102,500,cs),
(64,500,o),
(49,488,o),
(44,464,cs),
(40,442,o),
(54,430,o),
(87,430,cs),
(93,430,o),
(96,427,o),
(95,420,cs),
(69,296,o),
(40,163,o),
(4,39,cs),
(-5,8,o),
(21,-10,o)
);
}
);
width = 290;
},
{
hints = (
{
horizontal = 1;
place = (0,21);
target = up;
type = BottomGhost;
},
{
horizontal = 1;
place = (435,65);
type = Stem;
},
{
horizontal = 1;
place = (640,61);
type = Stem;
},
{
place = (6,95.5);
type = Stem;
}
);
layerId = m002;
shapes = (
{
closed = 1;
nodes = (
(81,-25,cs),
(140,-25,o),
(203,16,o),
(212,78,cs),
(228,200,o),
(226,191,o),
(253,315,cs),
(255,327,o),
(259,342,o),
(267,341,cs),
(276,340,o),
(276,340,o),
(284,340,cs),
(334,340,o),
(376,379,o),
(387,429,cs),
(398,481,o),
(370,514,o),
(321,514,cs),
(321,514,o),
(311,514,o),
(304,515,cs),
(300,516,o),
(296,519,o),
(297,526,cs),
(298,528,o),
(298,531,o),
(298,531,cs),
(300,536,o),
(307,543,o),
(321,543,cs),
(366,543,o),
(418,563,o),
(443,608,cs),
(470,655,o),
(447,700,o),
(402,714,cs),
(379,721,o),
(349,725,o),
(320,725,cs),
(146,725,o),
(109,582,o),
(101,545,cs),
(99,533,o),
(96,520,o),
(85,515,cs),
(67,507,o),
(27,479,o),
(17,429,cs),
(7,381,o),
(38,350,o),
(49,345,cs),
(57,341,o),
(54,324,o),
(53,315,cs),
(26,191,o),
(28,200,o),
(-8,78,cs),
(-25,16,o),
(20,-25,o)
);
}
);
width = 393;
},
{
hints = (
{
horizontal = 1;
place = (0,21);
target = up;
type = BottomGhost;
},
{
horizontal = 1;
place = (435,65);
type = Stem;
},
{
horizontal = 1;
place = (640,61);
type = Stem;
},
{
place = (6,95.5);
type = Stem;
}
);
layerId = m003;
shapes = (
{
closed = 1;
nodes = (
(55,-7,cs),
(83,-7,o),
(109,6,o),
(112,31,cs),
(129,156,o),
(161,308,o),
(187,432,cs),
(190,444,o),
(200,452,o),
(212,452,cs),
(234,451,o),
(256,447,o),
(277,447,cs),
(294,447,o),
(303,457,o),
(307,476,cs),
(311,497,o),
(306,507,o),
(289,507,cs),
(268,507,o),
(246,503,o),
(222,502,cs),
(210,502,o),
(204,510,o),
(207,523,cs),
(225,610,o),
(233,657,o),
(295,657,cs),
(318,657,o),
(322,645,o),
(325,644,cs),
(340,640,o),
(360,651,o),
(370,669,cs),
(377,683,o),
(369,693,o),
(352,698,cs),
(333,704,o),
(311,707,o),
(286,707,cs),
(170,707,o),
(149,628,o),
(127,522,cs),
(124,510,o),
(114,502,o),
(102,502,cs),
(68,502,o),
(61,496,o),
(57,476,cs),
(53,459,o),
(62,452,o),
(92,452,cs),
(104,452,o),
(110,445,o),
(107,432,cs),
(81,308,o),
(49,156,o),
(12,31,cs),
(5,6,o),
(25,-7,o)
);
}
);
width = 290;
}
);
note = f;
unicode = 102;
userData = {
KernOnName = f;
};
},
{
glyphname = g;
kernLeft = KO_a;
kernRight = KO_g;
lastChange = "2025-01-04 00:23:34 +0000";
layers = (
{
anchors = (
{
name = bottom;
pos = (163,-200);
},
{
name = top;
pos = (311,500);
}
);
hints = (
{
horizontal = 1;
place = (-10,80);
type = Stem;
},
{
horizontal = 1;
place = (435,75);
type = Stem;
},
{
place = (8,100);
type = Stem;
},
{
place = (298,95);
type = Stem;
}
);
layerId = m005;
shapes = (
{
closed = 1;
nodes = (
(297,-210,o),
(365,-105,o),
(387,0,cs),
(418,143,o),
(448,286,o),
(488,429,cs),
(496,457,o),
(476,475,o),
(452,485,cs),
(416,499,o),
(375,510,o),
(311,510,cs),
(151,510,o),
(73,355,o),
(50,250,cs),
(45,225,ls),
(13,75,o),
(38,-10,o),
(145,-10,cs),
(234,-10,o),
(276,39,o),
(285,39,cs),
(293,39,o),
(294,33,o),
(289,9,cs),
(270,-77,o),
(240,-135,o),
(153,-135,cs),
(110,-135,o),
(82,-117,o),
(62,-110,cs),
(41,-102,o),
(21,-116,o),
(10,-144,cs),
(1,-164,o),
(2,-180,o),
(20,-188,cs),
(45,-198,o),
(86,-210,o),
(137,-210,cs)
);
},
{
closed = 1;
nodes = (
(132,75,o),
(123,124,o),
(145,225,cs),
(150,250,ls),
(166,323,o),
(203,435,o),
(295,435,cs),
(334,435,o),
(363,429,o),
(378,426,cs),
(384,425,o),
(387,422,o),
(384,415,cs),
(365,344,o),
(345,272,o),
(330,200,cs),
(315,132,o),
(245,75,o),
(188,75,cs)
);
}
);
width = 515;
},
{
anchors = (
{
name = bottom;
pos = (168,-200);
},
{
name = top;
pos = (316,500);
}
);
hints = (
{
horizontal = 1;
place = (-10,80);
type = Stem;
},
{
horizontal = 1;
place = (435,75);
type = Stem;
},
{
place = (8,100);
type = Stem;
},
{
place = (298,95);
type = Stem;
}
);
layerId = m002;
shapes = (
{
closed = 1;
nodes = (
(341,-225,o),
(429,-86,o),
(455,35,cs),
(485,178,o),
(500,249,o),
(540,390,cs),
(555,442,o),
(525,479,o),
(482,497,cs),
(444,512,o),
(395,525,o),
(324,525,cs),
(123,525,o),
(35,367,o),
(10,250,cs),
(5,225,ls),
(-23,92,o),
(8,-25,o),
(152,-25,cs),
(185,-25,o),
(209,-20,o),
(229,-15,cs),
(236,-13,o),
(242,-15,o),
(236,-23,cs),
(223,-42,o),
(211,-50,o),
(181,-50,cs),
(150,-50,o),
(131,-37,o),
(105,-28,cs),
(59,-10,o),
(4,-41,o),
(-20,-99,cs),
(-38,-143,o),
(-30,-183,o),
(10,-200,cs),
(36,-211,o),
(86,-225,o),
(144,-225,cs)
);
},
{
closed = 1;
nodes = (
(194,160,o),
(193,168,o),
(205,225,cs),
(210,250,ls),
(225,320,o),
(240,350,o),
(287,350,cs),
(302,350,o),
(311,347,o),
(316,341,cs),
(323,332,o),
(325,329,o),
(322,314,cs),
(317,293,o),
(309,269,o),
(302,235,cs),
(292,188,o),
(253,160,o),
(216,160,cs)
);
}
);
width = 526;
},
{
anchors = (
{
name = bottom;
pos = (163,-200);
},
{
name = top;
pos = (311,500);
}
);
hints = (
{
horizontal = 1;
place = (-10,80);
type = Stem;
},
{
horizontal = 1;
place = (435,75);
type = Stem;
},
{
place = (8,100);
type = Stem;
},
{
place = (298,95);
type = Stem;
}
);
layerId = m003;
shapes = (
{
closed = 1;
nodes = (
(291,-207,o),
(354,-110,o),
(376,-7,cs),
(406,136,o),
(439,293,o),
(480,437,cs),
(487,459,o),
(471,473,o),
(449,483,cs),
(413,496,o),
(373,507,o),
(310,507,cs),
(158,507,o),
(82,354,o),
(60,250,cs),
(55,225,ls),
(23,77,o),
(45,-7,o),
(146,-7,cs),
(229,-7,o),
(272,42,o),
(286,42,cs),
(300,42,o),
(304,34,o),
(298,2,cs),
(278,-86,o),
(245,-152,o),
(150,-152,cs),
(104,-152,o),
(75,-133,o),
(55,-126,cs),
(40,-120,o),
(28,-129,o),
(18,-153,cs),
(10,-171,o),
(10,-180,o),
(25,-186,cs),
(49,-195,o),
(88,-207,o),
(138,-207,cs)
);
},
{
closed = 1;
nodes = (
(120,58,o),
(113,121,o),
(135,225,cs),
(140,250,ls),
(156,324,o),
(196,452,o),
(298,452,cs),
(338,452,o),
(369,446,o),
(383,443,cs),
(395,441,o),
(400,433,o),
(396,421,c),
(377,350,o),
(355,272,o),
(340,200,cs),
(323,120,o),
(247,58,o),
(184,58,cs)
);
}
);
width = 515;
}
);
metricLeft = "=o";
metricRight = "=|n";
note = q;
unicode = 103;
userData = {
KernOnName = g;
};
},
{
glyphname = h;
kernLeft = KO_h;
kernRight = KO_n;
lastChange = "2025-01-04 00:23:34 +0000";
layers = (
{
anchors = (
{
name = bottom;
pos = (217,0);
},
{
name = center;
pos = (201,560);
},
{
name = top;
pos = (365,700);
}
);
hints = (
{
horizontal = 1;
place = (0,21);
target = up;
type = BottomGhost;
},
{
horizontal = 1;
place = (435,75);
type = Stem;
},
{
place = (-14,95);
type = Stem;
},
{
place = (271,100);
type = Stem;
}
);
layerId = m005;
shapes = (
{
closed = 1;
nodes = (
(70,-10,cs),
(101,-10,o),
(137,8,o),
(140,39,cs),
(148,123,o),
(168,216,o),
(185,300,cs),
(200,368,o),
(272,435,o),
(329,435,cs),
(385,435,o),
(397,401,o),
(375,300,cs),
(358,216,o),
(338,123,o),
(310,39,cs),
(299,8,o),
(327,-10,o),
(360,-10,cs),
(391,-10,o),
(427,8,o),
(430,39,cs),
(438,123,o),
(458,216,o),
(475,300,cs),
(507,450,o),
(477,510,o),
(370,510,cs),
(281,510,o),
(239,461,o),
(230,461,cs),
(221,461,o),
(221,469,o),
(228,500,cs),
(239,550,o),
(256,611,o),
(272,661,cs),
(282,692,o),
(255,710,o),
(224,710,cs),
(191,710,o),
(169,692,o),
(162,661,cs),
(119,460,o),
(73,240,o),
(20,39,cs),
(11,8,o),
(37,-10,o)
);
}
);
width = 540;
},
{
anchors = (
{
name = bottom;
pos = (217,0);
},
{
name = center;
pos = (201,560);
},
{
name = top;
pos = (365,700);
}
);
hints = (
{
horizontal = 1;
place = (0,21);
target = up;
type = BottomGhost;
},
{
horizontal = 1;
place = (435,75);
type = Stem;
},
{
place = (-14,95);
type = Stem;
},
{
place = (271,100);
type = Stem;
}
);
layerId = m002;
shapes = (
{
closed = 1;
nodes = (
(67,-25,cs),
(129,-25,o),
(194,19,o),
(199,80,cs),
(206,161,o),
(210,181,o),
(228,265,cs),
(238,314,o),
(277,350,o),
(311,350,cs),
(336,350,o),
(334,342,o),
(318,265,cs),
(300,181,o),
(296,161,o),
(269,80,cs),
(248,19,o),
(293,-25,o),
(357,-25,cs),
(419,-25,o),
(484,19,o),
(489,80,cs),
(496,161,o),
(500,181,o),
(518,265,cs),
(555,439,o),
(512,525,o),
(373,525,cs),
(337,525,o),
(309,519,o),
(291,514,cs),
(283,512,o),
(281,517,o),
(284,529,cs),
(289,551,o),
(298,571,o),
(314,621,cs),
(333,682,o),
(288,725,o),
(227,725,cs),
(166,725,o),
(117,685,o),
(105,626,cs),
(62,425,o),
(30,276,o),
(-22,77,cs),
(-39,16,o),
(6,-25,o)
);
}
);
width = 540;
},
{
anchors = (
{
name = bottom;
pos = (218,0);
},
{
name = center;
pos = (202,560);
},
{
name = top;
pos = (366,700);
}
);
hints = (
{
horizontal = 1;
place = (0,21);
target = up;
type = BottomGhost;
},
{
horizontal = 1;
place = (435,75);
type = Stem;
},
{
place = (-14,95);
type = Stem;
},
{
place = (271,100);
type = Stem;
}
);
layerId = m003;
shapes = (
{
closed = 1;
nodes = (
(72,-7,cs),
(100,-7,o),
(127,6,o),
(129,31,cs),
(137,115,o),
(160,223,o),
(178,307,cs),
(193,379,o),
(270,452,o),
(334,452,cs),
(396,452,o),
(410,413,o),
(388,307,cs),
(370,223,o),
(347,115,o),
(319,31,cs),
(311,6,o),
(332,-7,o),
(362,-7,cs),
(390,-7,o),
(417,6,o),
(419,31,cs),
(427,115,o),
(450,223,o),
(468,307,cs),
(499,454,o),
(472,507,o),
(370,507,cs),
(287,507,o),
(244,458,o),
(230,458,cs),
(214,458,o),
(212,468,o),
(220,507,cs),
(231,557,o),
(249,619,o),
(265,669,cs),
(272,694,o),
(252,707,o),
(224,707,cs),
(195,707,o),
(180,695,o),
(175,668,cs),
(132,467,o),
(82,233,o),
(29,31,cs),
(22,6,o),
(42,-7,o)
);
}
);
width = 541;
}
);
metricLeft = "=n";
metricRight = "=n";
note = h;
unicode = 104;
},
{
glyphname = i;
kernLeft = KO_i;
kernRight = KO_i;
lastChange = "2025-01-04 00:23:34 +0000";
layers = (
{
anchors = (
{
name = bottom;
pos = (82,0);
},
{
name = ogonek;
pos = (121,0);
}
);
hints = (
{
horizontal = 1;
place = (0,21);
target = up;
type = BottomGhost;
},
{
horizontal = 1;
place = (585,120);
type = Stem;
},
{
place = (-27,120);
type = Stem;
},
{
place = (-15,95);
type = Stem;
}
);
layerId = m005;
shapes = (
{
closed = 1;
nodes = (
(111,-10,o),
(145,8,o),
(150,39,cs),
(168,173,o),
(201,327,o),
(230,461,cs),
(236,492,o),
(222,510,o),
(191,510,cs),
(158,510,o),
(124,492,o),
(120,461,cs),
(101,327,o),
(68,173,o),
(30,39,cs),
(21,8,o),
(47,-10,o),
(80,-10,cs)
);
},
{
closed = 1;
nodes = (
(244,580,o),
(282,612,o),
(290,650,cs),
(298,689,o),
(274,720,o),
(235,720,cs),
(197,720,o),
(158,689,o),
(150,650,cs),
(142,612,o),
(167,580,o),
(205,580,cs)
);
}
);
width = 270;
},
{
anchors = (
{
name = bottom;
pos = (82,0);
},
{
name = ogonek;
pos = (157,0);
}
);
hints = (
{
horizontal = 1;
place = (0,21);
target = up;
type = BottomGhost;
},
{
horizontal = 1;
place = (585,120);
type = Stem;
},
{
place = (-31,120);
type = Stem;
},
{
place = (-19,95);
type = Stem;
}
);
layerId = m002;
shapes = (
{
closed = 1;
nodes = (
(137,-25,o),
(199,16,o),
(208,77,cs),
(226,210,o),
(244,292,o),
(272,426,cs),
(285,485,o),
(253,525,o),
(194,525,cs),
(133,525,o),
(71,484,o),
(62,423,cs),
(43,290,o),
(26,210,o),
(-12,77,cs),
(-29,16,o),
(17,-25,o),
(78,-25,cs)
);
},
{
closed = 1;
nodes = (
(273,530,o),
(326,584,o),
(340,650,cs),
(354,717,o),
(312,770,o),
(245,770,cs),
(179,770,o),
(114,717,o),
(100,650,cs),
(86,584,o),
(128,530,o),
(194,530,cs)
);
}
);
width = 270;
},
{
anchors = (
{
name = bottom;
pos = (82,0);
},
{
name = ogonek;
pos = (114,0);
}
);
hints = (
{
horizontal = 1;
place = (0,21);
target = up;
type = BottomGhost;
},
{
horizontal = 1;
place = (585,120);
type = Stem;
},
{
place = (-27,120);
type = Stem;
},
{
place = (-15,95);
type = Stem;
}
);
layerId = m003;
shapes = (
{
closed = 1;
nodes = (
(110,-7,o),
(136,6,o),
(139,31,cs),
(158,166,o),
(193,334,o),
(222,468,cs),
(228,495,o),
(218,507,o),
(191,507,cs),
(161,507,o),
(135,494,o),
(132,469,cs),
(113,334,o),
(78,166,o),
(39,31,cs),
(32,6,o),
(52,-7,o),
(82,-7,cs)
);
},
{
closed = 1;
nodes = (
(243,590,o),
(273,616,o),
(280,650,cs),
(288,685,o),
(268,710,o),
(233,710,cs),
(199,710,o),
(168,685,o),
(160,650,cs),
(153,616,o),
(174,590,o),
(208,590,cs)
);
}
);
width = 270;
}
);
metricLeft = "=n";
metricRight = "=|n";
note = i;
unicode = 105;
userData = {
KernOnName = i;
};
},
{
glyphname = dotlessi;
kernLeft = KO_r;
kernRight = KO_iacute;
lastChange = "2025-01-04 00:23:34 +0000";
layers = (
{
anchors = (
{
name = bottom;
pos = (72,0);
},
{
name = ogonek;
pos = (132,0);
},
{
name = top;
pos = (178,500);
}
);
hints = (
{
horizontal = 1;
place = (0,21);
target = up;
type = BottomGhost;
},
{
horizontal = 1;
place = (585,120);
type = Stem;
},
{
place = (-5,120);
type = Stem;
},
{
place = (7,95);
type = Stem;
}
);
layerId = m005;
shapes = (
{
closed = 1;
nodes = (
(71,-10,cs),
(102,-10,o),
(136,8,o),
(140,39,cs),
(159,173,o),
(191,327,o),
(220,461,cs),
(226,492,o),
(212,510,o),
(181,510,cs),
(148,510,o),
(114,492,o),
(110,461,cs),
(91,327,o),
(59,173,o),
(20,39,cs),
(12,8,o),
(38,-10,o)
);
}
);
width = 250;
},
{
anchors = (
{
name = bottom;
pos = (72,0);
},
{
name = ogonek;
pos = (182,0);
},
{
name = top;
pos = (178,500);
}
);
hints = (
{
horizontal = 1;
place = (0,21);
target = up;
type = BottomGhost;
},
{
horizontal = 1;
place = (585,120);
type = Stem;
},
{
place = (-5,120);
type = Stem;
},
{
place = (7,95);
type = Stem;
}
);
layerId = m002;
shapes = (
{
closed = 1;
nodes = (
(68,-25,cs),
(127,-25,o),
(189,16,o),
(198,77,cs),
(216,210,o),
(234,292,o),
(262,426,cs),
(275,485,o),
(243,525,o),
(184,525,cs),
(123,525,o),
(61,484,o),
(52,423,cs),
(34,290,o),
(16,210,o),
(-22,77,cs),
(-39,16,o),
(7,-25,o)
);
}
);
width = 250;
},
{
anchors = (
{
name = bottom;
pos = (73,0);
},
{
name = ogonek;
pos = (123,0);
},
{
name = top;
pos = (179,500);
}
);
hints = (
{
horizontal = 1;
place = (0,21);
target = up;
type = BottomGhost;
},
{
horizontal = 1;
place = (585,120);
type = Stem;
},
{
place = (-5,120);
type = Stem;
},
{
place = (7,95);
type = Stem;
}
);
layerId = m003;
shapes = (
{
closed = 1;
nodes = (
(72,-7,cs),
(100,-7,o),
(126,6,o),
(129,31,cs),
(148,166,o),
(184,334,o),
(212,468,cs),
(218,495,o),
(209,507,o),
(182,507,cs),
(152,507,o),
(126,494,o),
(123,469,cs),
(104,334,o),
(68,166,o),
(29,31,cs),
(22,6,o),
(42,-7,o)
);
}
);
width = 251;
}
);
metricLeft = "=i";
metricRight = "=i";
note = i;
unicode = 305;
},
{
glyphname = j;
kernLeft = KO_j;
kernRight = KO_j;
lastChange = "2025-01-04 00:23:34 +0000";
layers = (
{
hints = (
{
horizontal = 1;
place = (585,120);
type = Stem;
},
{
place = (-6,120);
type = Stem;
}
);
layerId = m005;
shapes = (
{
closed = 1;
nodes = (
(63,-216,o),
(95,-117,o),
(120,0,cs),
(152,150,o),
(186,311,o),
(218,461,cs),
(224,492,o),
(210,510,o),
(179,510,cs),
(146,510,o),
(112,492,o),
(108,461,cs),
(86,311,o),
(53,150,o),
(21,0,cs),
(0,-97,o),
(-8,-137,o),
(-61,-127,cs),
(-85,-123,o),
(-106,-149,o),
(-111,-174,cs),
(-115,-194,o),
(-104,-209,o),
(-79,-210,cs)
);
},
{
closed = 1;
nodes = (
(232,580,o),
(270,612,o),
(278,650,cs),
(286,689,o),
(262,720,o),
(223,720,cs),
(185,720,o),
(146,689,o),
(138,650,cs),
(130,612,o),
(155,580,o),
(193,580,cs)
);
}
);
width = 258;
},
{
hints = (
{
horizontal = 1;
place = (585,120);
type = Stem;
},
{
place = (-10,120);
type = Stem;
}
);
layerId = m002;
shapes = (
{
closed = 1;
nodes = (
(103,-233,o),
(147,-89,o),
(174,35,cs),
(205,185,o),
(225,276,o),
(257,426,cs),
(269,485,o),
(238,525,o),
(179,525,cs),
(118,525,o),
(55,484,o),
(46,423,cs),
(24,274,o),
(6,185,o),
(-25,35,cs),
(-39,-30,o),
(-43,-45,o),
(-58,-43,cs),
(-105,-37,o),
(-146,-83,o),
(-157,-139,cs),
(-167,-186,o),
(-139,-223,o),
(-88,-225,cs)
);
},
{
closed = 1;
nodes = (
(246,530,o),
(310,584,o),
(324,650,cs),
(339,717,o),
(297,770,o),
(230,770,cs),
(164,770,o),
(99,717,o),
(84,650,cs),
(70,584,o),
(113,530,o),
(179,530,cs)
);
}
);
width = 254;
},
{
hints = (
{
horizontal = 1;
place = (585,120);
type = Stem;
},
{
place = (-5,120);
type = Stem;
}
);
layerId = m003;
shapes = (
{
closed = 1;
nodes = (
(55,-213,o),
(84,-123,o),
(111,0,cs),
(142,150,o),
(178,318,o),
(210,468,cs),
(216,495,o),
(206,507,o),
(179,507,cs),
(149,507,o),
(124,494,o),
(120,469,cs),
(98,318,o),
(63,150,o),
(32,0,cs),
(9,-104,o),
(-2,-156,o),
(-66,-144,cs),
(-83,-141,o),
(-97,-159,o),
(-102,-181,cs),
(-105,-197,o),
(-98,-206,o),
(-77,-207,cs)
);
},
{
closed = 1;
nodes = (
(231,590,o),
(262,616,o),
(269,650,cs),
(276,685,o),
(256,710,o),
(221,710,cs),
(187,710,o),
(156,685,o),
(149,650,cs),
(142,616,o),
(162,590,o),
(196,590,cs)
);
}
);
width = 259;
}
);
metricRight = "=i";
note = j;
unicode = 106;
userData = {
KernOnName = j;
};
},
{
glyphname = jdotless;
kernLeft = KO_j;
lastChange = "2025-01-04 00:23:31 +0000";
layers = (
{
anchors = (
{
name = bottom;
pos = (24,-200);
},
{
name = top;
pos = (172,500);
}
);
hints = (
{
horizontal = 1;
place = (585,120);
type = Stem;
},
{
place = (16,120);
type = Stem;
},
{
horizontal = 1;
place = (585,120);
type = Stem;
},
{
place = (16,120);
type = Stem;
}
);
layerId = m005;
shapes = (
{
closed = 1;
nodes = (
(63,-216,o),
(95,-117,o),
(120,0,cs),
(152,150,o),
(186,311,o),
(218,461,cs),
(225,492,o),
(211,510,o),
(180,510,cs),
(147,510,o),
(113,492,o),
(108,461,cs),
(86,311,o),
(53,150,o),
(21,0,cs),
(1,-97,o),
(-8,-137,o),
(-61,-127,cs),
(-85,-123,o),
(-106,-149,o),
(-111,-174,cs),
(-115,-194,o),
(-103,-209,o),
(-78,-210,cs)
);
}
);
width = 238;
},
{
anchors = (
{
name = bottom;
pos = (20,-200);
},
{
name = top;
pos = (168,500);
}
);
hints = (
{
horizontal = 1;
place = (585,120);
type = Stem;
},
{
place = (16,120);
type = Stem;
},
{
horizontal = 1;
place = (585,120);
type = Stem;
},
{
place = (16,120);
type = Stem;
}
);
layerId = m002;
shapes = (
{
closed = 1;
nodes = (
(103,-233,o),
(147,-89,o),
(174,35,cs),
(205,185,o),
(225,276,o),
(257,426,cs),
(269,485,o),
(238,525,o),
(179,525,cs),
(118,525,o),
(55,484,o),
(46,423,cs),
(24,274,o),
(6,185,o),
(-25,35,cs),
(-39,-30,o),
(-42,-44,o),
(-48,-43,cs),
(-94,-35,o),
(-145,-83,o),
(-157,-139,cs),
(-167,-186,o),
(-139,-223,o),
(-88,-225,cs)
);
}
);
width = 235;
},
{
anchors = (
{
name = bottom;
pos = (24,-200);
},
{
name = top;
pos = (172,500);
}
);
hints = (
{
horizontal = 1;
place = (585,120);
type = Stem;
},
{
place = (16,120);
type = Stem;
},
{
horizontal = 1;
place = (585,120);
type = Stem;
},
{
place = (16,120);
type = Stem;
}
);
layerId = m003;
shapes = (
{
closed = 1;
nodes = (
(55,-213,o),
(84,-123,o),
(110,0,cs),
(142,150,o),
(178,318,o),
(210,468,cs),
(215,495,o),
(206,507,o),
(179,507,cs),
(149,507,o),
(123,494,o),
(120,469,cs),
(98,318,o),
(63,150,o),
(31,0,cs),
(9,-104,o),
(-2,-156,o),
(-66,-144,cs),
(-84,-141,o),
(-98,-159,o),
(-102,-181,cs),
(-106,-197,o),
(-99,-206,o),
(-78,-207,cs)
);
}
);
width = 239;
}
);
metricLeft = "=j";
metricRight = "=j";
note = j;
unicode = 567;
},
{
glyphname = k;
kernLeft = KO_h;
kernRight = KO_k;
lastChange = "2025-01-04 00:23:34 +0000";
layers = (
{
anchors = (
{
name = bottom;
pos = (202,0);
},
{
name = top;
pos = (350,700);
}
);
hints = (
{
horizontal = 1;
place = (0,21);
target = up;
type = BottomGhost;
},
{
place = (-14,95);
type = Stem;
},
{
place = (256,95);
type = Stem;
}
);
layerId = m005;
shapes = (
{
closed = 1;
nodes = (
(70,-10,cs),
(101,-10,o),
(123,8,o),
(130,39,cs),
(152,143,ls),
(153,148,o),
(155,151,o),
(159,155,cs),
(238,233,ls),
(242,237,o),
(248,239,o),
(253,237,cs),
(305,208,o),
(323,119,o),
(317,38,cs),
(314,6,o),
(325,-10,o),
(359,-10,cs),
(391,-10,o),
(428,9,o),
(426,41,cs),
(424,143,o),
(392,258,o),
(316,295,cs),
(310,298,o),
(311,303,o),
(316,308,cs),
(451,440,ls),
(484,472,o),
(486,510,o),
(452,510,cs),
(406,510,o),
(381,494,o),
(364,471,cs),
(318,407,o),
(256,343,o),
(183,279,cs),
(175,272,o),
(170,274,o),
(172,283,cs),
(198,407,o),
(226,538,o),
(262,661,c),
(269,692,o),
(255,710,o),
(224,710,cs),
(191,710,o),
(157,692,o),
(152,661,cs),
(119,460,o),
(73,240,o),
(20,39,cs),
(11,8,o),
(37,-10,o)
);
}
);
width = 501;
},
{
anchors = (
{
name = bottom;
pos = (202,0);
},
{
name = top;
pos = (350,700);
}
);
hints = (
{
horizontal = 1;
place = (0,21);
target = up;
type = BottomGhost;
},
{
place = (-14,95);
type = Stem;
},
{
place = (256,95);
type = Stem;
}
);
layerId = m002;
shapes = (
{
closed = 1;
nodes = (
(67,-25,cs),
(126,-25,o),
(175,15,o),
(187,74,cs),
(196,115,ls),
(199,127,o),
(204,137,o),
(214,146,cs),
(221,153,ls),
(234,166,o),
(247,167,o),
(255,154,cs),
(269,133,o),
(277,112,o),
(273,67,cs),
(269,10,o),
(297,-25,o),
(356,-25,cs),
(419,-25,o),
(487,22,o),
(485,88,cs),
(483,171,o),
(457,240,o),
(404,296,cs),
(393,308,o),
(396,321,o),
(412,331,cs),
(476,373,ls),
(551,422,o),
(535,525,o),
(455,525,cs),
(382,525,o),
(347,502,o),
(316,459,cs),
(305,444,o),
(293,428,o),
(279,412,cs),
(263,392,o),
(247,401,o),
(253,426,cs),
(268,493,o),
(286,560,o),
(304,624,c),
(318,684,o),
(287,725,o),
(227,725,cs),
(166,725,o),
(103,684,o),
(94,623,cs),
(62,424,o),
(30,276,o),
(-22,77,cs),
(-39,16,o),
(6,-25,o)
);
}
);
width = 527;
},
{
anchors = (
{
name = bottom;
pos = (203,0);
},
{
name = top;
pos = (351,700);
}
);
hints = (
{
horizontal = 1;
place = (0,21);
target = up;
type = BottomGhost;
},
{
place = (-14,95);
type = Stem;
},
{
place = (256,95);
type = Stem;
}
);
layerId = m003;
shapes = (
{
closed = 1;
nodes = (
(72,-7,cs),
(99,-7,o),
(114,5,o),
(119,32,cs),
(144,149,ls),
(145,152,o),
(147,156,o),
(149,158,cs),
(241,247,ls),
(244,250,o),
(248,252,o),
(252,250,cs),
(313,224,o),
(333,120,o),
(326,32,cs),
(324,3,o),
(331,-7,o),
(361,-7,cs),
(390,-7,o),
(416,7,o),
(415,32,cs),
(413,139,o),
(381,264,o),
(297,292,cs),
(292,293,o),
(292,297,o),
(296,301,cs),
(447,453,ls),
(476,482,o),
(477,507,o),
(452,507,cs),
(409,507,o),
(390,494,o),
(374,473,cs),
(323,400,o),
(248,322,o),
(165,249,cs),
(158,244,o),
(155,246,o),
(156,252,cs),
(184,385,o),
(215,535,o),
(255,668,c),
(260,695,o),
(251,707,o),
(224,707,cs),
(194,707,o),
(168,694,o),
(165,669,cs),
(132,467,o),
(82,233,o),
(29,31,cs),
(22,6,o),
(42,-7,o)
);
}
);
width = 501;
}
);
metricLeft = "=n";
metricRight = "=v";
note = k;
unicode = 107;
},
{
glyphname = l;
kernLeft = KO_l;
kernRight = KO_l;
lastChange = "2025-01-04 00:23:34 +0000";
layers = (
{
anchors = (
{
name = bottom;
pos = (95,0);
},
{
name = center;
pos = (170,350);
},
{
name = top;
pos = (244,700);
},
{
name = topright;
pos = (350,700);
}
);
hints = (
{
horizontal = 1;
place = (0,21);
target = up;
type = BottomGhost;
},
{
place = (-15,95);
type = Stem;
},
{
horizontal = 1;
place = (-3,63);
type = Stem;
}
);
layerId = m005;
shapes = (
{
closed = 1;
nodes = (
(170,-4,o),
(193,9,o),
(198,33,cs),
(206,70,o),
(194,91,o),
(170,90,cs),
(141,89,o),
(135,105,o),
(156,200,cs),
(188,350,o),
(222,511,o),
(274,661,cs),
(284,692,o),
(256,710,o),
(225,710,cs),
(192,710,o),
(170,692,o),
(164,661,cs),
(132,511,o),
(98,350,o),
(56,200,cs),
(25,90,o),
(20,-14,o),
(150,-5,cs)
);
}
);
width = 294;
},
{
anchors = (
{
name = bottom;
pos = (100,0);
},
{
name = center;
pos = (153,250);
},
{
name = top;
pos = (248,700);
},
{
name = topright;
pos = (380,700);
}
);
hints = (
{
horizontal = 1;
place = (0,21);
target = up;
type = BottomGhost;
},
{
place = (-14,95);
type = Stem;
},
{
horizontal = 1;
place = (-3,63);
type = Stem;
}
);
layerId = m002;
shapes = (
{
closed = 1;
nodes = (
(194,-22,o),
(244,10,o),
(255,63,cs),
(269,129,o),
(260,163,o),
(210,163,cs),
(198,163,o),
(191,177,o),
(202,230,cs),
(234,380,o),
(264,474,o),
(315,620,cs),
(337,682,o),
(291,726,o),
(229,726,cs),
(168,726,o),
(119,686,o),
(107,627,cs),
(75,477,o),
(55,382,o),
(13,233,cs),
(-21,112,o),
(-28,-37,o),
(149,-25,cs)
);
}
);
width = 305;
},
{
anchors = (
{
name = bottom;
pos = (95,0);
},
{
name = center;
pos = (170,350);
},
{
name = top;
pos = (244,700);
},
{
name = topright;
pos = (350,700);
}
);
hints = (
{
horizontal = 1;
place = (0,21);
target = up;
type = BottomGhost;
},
{
place = (-15,95);
type = Stem;
},
{
horizontal = 1;
place = (-3,63);
type = Stem;
}
);
layerId = m003;
shapes = (
{
closed = 1;
nodes = (
(168,-1,o),
(183,7,o),
(187,26,cs),
(194,60,o),
(186,74,o),
(167,73,cs),
(129,72,o),
(123,93,o),
(146,200,cs),
(178,350,o),
(213,519,o),
(265,669,cs),
(274,694,o),
(252,707,o),
(224,707,cs),
(195,707,o),
(181,695,o),
(175,668,cs),
(143,518,o),
(107,350,o),
(65,199,cs),
(34,83,o),
(29,-10,o),
(150,-2,cs)
);
}
);
width = 295;
}
);
metricLeft = "=n";
metricRight = "=o";
note = l;
unicode = 108;
userData = {
KernOnName = l;
};
},
{
glyphname = lslash;
kernLeft = KO_lslash;
kernRight = KO_lslash;
lastChange = "2025-01-04 00:23:34 +0000";
layers = (
{
hints = (
{
horizontal = 1;
place = (0,21);
target = up;
type = BottomGhost;
},
{
place = (60,95);
type = Stem;
},
{
horizontal = 1;
place = (-3,63);
type = Stem;
}
);
layerId = m005;
shapes = (
{
pos = (107,0);
ref = l;
},
{
closed = 1;
nodes = (
(93,224,ls),
(104,210,o),
(122,210,o),
(139,224,cs),
(221,291,o),
(302,359,o),
(381,416,cs),
(399,429,o),
(404,458,o),
(393,472,cs),
(391,475,ls),
(380,489,o),
(362,489,o),
(345,475,cs),
(263,408,o),
(181,341,o),
(102,284,cs),
(84,271,o),
(79,242,o),
(90,228,cs)
);
}
);
width = 407;
},
{
layerId = m002;
shapes = (
{
pos = (44,0);
ref = l;
},
{
closed = 1;
nodes = (
(-9,206,ls),
(10,182,o),
(44,182,o),
(73,206,cs),
(155,273,o),
(235,341,o),
(313,397,cs),
(344,420,o),
(354,465,o),
(335,490,cs),
(333,493,ls),
(314,517,o),
(280,517,o),
(251,493,cs),
(169,426,o),
(88,359,o),
(10,303,cs),
(-21,280,o),
(-30,235,o),
(-12,210,cs)
);
}
);
width = 349;
},
{
hints = (
{
horizontal = 1;
place = (0,21);
target = up;
type = BottomGhost;
},
{
place = (60,95);
type = Stem;
},
{
horizontal = 1;
place = (-3,63);
type = Stem;
}
);
layerId = m003;
shapes = (
{
pos = (15,0);
ref = l;
},
{
closed = 1;
nodes = (
(-6,226,ls),
(4,213,o),
(20,213,o),
(36,226,cs),
(117,293,o),
(198,361,o),
(278,418,cs),
(294,430,o),
(299,457,o),
(289,470,cs),
(286,473,ls),
(276,486,o),
(260,486,o),
(244,473,cs),
(163,406,o),
(81,339,o),
(2,282,cs),
(-15,270,o),
(-20,243,o),
(-9,230,cs)
);
}
);
width = 312;
}
);
metricRight = "=l";
note = l;
unicode = 322;
},
{
glyphname = m;
kernLeft = KO_r;
kernRight = KO_n;
lastChange = "2025-01-03 23:58:33 +0000";
layers = (
{
hints = (
{
horizontal = 1;
place = (0,21);
target = up;
type = BottomGhost;
},
{
horizontal = 1;
place = (435,75);
type = Stem;
},
{
place = (7,95);
type = Stem;
},
{
place = (262,100);
type = Stem;
},
{
place = (522,100);
type = Stem;
}
);
layerId = m005;
shapes = (
{
closed = 1;
nodes = (
(71,-10,cs),
(102,-10,o),
(138,8,o),
(140,39,cs),
(148,123,o),
(168,216,o),
(186,300,cs),
(200,368,o),
(272,435,o),
(329,435,cs),
(385,435,o),
(397,401,o),
(376,300,cs),
(358,216,o),
(338,123,o),
(310,39,cs),
(300,8,o),
(328,-10,o),
(361,-10,cs),
(392,-10,o),
(428,8,o),
(430,39,cs),
(438,123,o),
(458,216,o),
(476,300,cs),
(490,368,o),
(562,435,o),
(619,435,cs),
(675,435,o),
(687,401,o),
(666,300,cs),
(648,216,o),
(628,123,o),
(600,39,cs),
(590,8,o),
(618,-10,o),
(651,-10,cs),
(682,-10,o),
(718,8,o),
(720,39,cs),
(728,123,o),
(748,216,o),
(766,300,cs),
(798,450,o),
(767,510,o),
(660,510,cs),
(571,510,o),
(511,445,o),
(491,445,cs),
(484,445,o),
(480,453,o),
(473,464,cs),
(456,496,o),
(422,510,o),
(370,510,cs),
(281,510,o),
(221,445,o),
(206,445,cs),
(197,445,o),
(195,457,o),
(195,471,cs),
(194,492,o),
(187,503,o),
(166,503,cs),
(141,503,o),
(114,491,o),
(112,469,cs),
(92,330,o),
(60,178,o),
(20,39,cs),
(12,8,o),
(38,-10,o)
);
}
);
width = 830;
},
{
hints = (
{
horizontal = 1;
place = (0,21);
target = up;
type = BottomGhost;
},
{
horizontal = 1;
place = (435,75);
type = Stem;
},
{
place = (7,95);
type = Stem;
},
{
place = (262,100);
type = Stem;
},
{
place = (522,100);
type = Stem;
}
);
layerId = m002;
shapes = (
{
closed = 1;
nodes = (
(68,-25,cs),
(130,-25,o),
(194,19,o),
(199,80,cs),
(206,161,o),
(210,181,o),
(228,265,cs),
(239,314,o),
(277,350,o),
(311,350,cs),
(330,350,o),
(332,329,o),
(318,265,cs),
(300,181,o),
(296,161,o),
(269,80,cs),
(248,19,o),
(294,-25,o),
(358,-25,cs),
(420,-25,o),
(484,19,o),
(489,80,cs),
(496,161,o),
(500,181,o),
(518,265,cs),
(529,314,o),
(567,350,o),
(601,350,cs),
(620,350,o),
(622,329,o),
(608,265,cs),
(590,181,o),
(586,161,o),
(559,80,cs),
(538,19,o),
(584,-25,o),
(648,-25,cs),
(710,-25,o),
(774,19,o),
(779,80,cs),
(786,161,o),
(790,181,o),
(808,265,cs),
(845,439,o),
(802,525,o),
(663,525,cs),
(603,525,o),
(547,491,o),
(522,474,cs),
(503,461,o),
(486,463,o),
(481,474,cs),
(468,498,o),
(437,525,o),
(373,525,cs),
(288,525,o),
(232,459,o),
(214,459,cs),
(202,459,o),
(202,479,o),
(198,490,cs),
(195,500,o),
(186,515,o),
(168,515,cs),
(113,515,o),
(59,479,o),
(53,427,cs),
(34,290,o),
(18,215,o),
(-22,77,cs),
(-39,16,o),
(7,-25,o)
);
}
);
width = 830;
},
{
hints = (
{
horizontal = 1;
place = (0,21);
target = up;
type = BottomGhost;
},
{
horizontal = 1;
place = (435,75);
type = Stem;
},
{
place = (7,95);
type = Stem;
},
{
place = (262,100);
type = Stem;
},
{
place = (522,100);
type = Stem;
}
);
layerId = m003;
shapes = (
{
closed = 1;
nodes = (
(72,-7,cs),
(100,-7,o),
(127,6,o),
(129,31,cs),
(137,115,o),
(160,223,o),
(178,307,cs),
(193,379,o),
(270,452,o),
(334,452,cs),
(396,452,o),
(411,413,o),
(388,307,cs),
(370,223,o),
(347,115,o),
(319,31,cs),
(311,6,o),
(332,-7,o),
(362,-7,cs),
(390,-7,o),
(417,6,o),
(419,31,cs),
(427,115,o),
(450,223,o),
(468,307,cs),
(483,379,o),
(560,452,o),
(624,452,cs),
(686,452,o),
(701,413,o),
(678,307,cs),
(660,223,o),
(637,115,o),
(609,31,cs),
(601,6,o),
(622,-7,o),
(652,-7,cs),
(680,-7,o),
(707,6,o),
(709,31,cs),
(717,115,o),
(740,223,o),
(758,307,cs),
(789,454,o),
(763,507,o),
(661,507,cs),
(575,507,o),
(519,442,o),
(492,442,cs),
(481,442,o),
(475,452,o),
(467,465,cs),
(451,495,o),
(421,507,o),
(371,507,cs),
(283,507,o),
(231,442,o),
(207,442,cs),
(193,442,o),
(187,456,o),
(187,476,cs),
(187,494,o),
(183,500,o),
(166,500,cs),
(143,500,o),
(126,492,o),
(124,477,cs),
(104,337,o),
(69,171,o),
(29,31,cs),
(22,6,o),
(42,-7,o)
);
}
);
width = 831;
}
);
metricLeft = "=n";
metricRight = "=n";
note = m;
unicode = 109;
},
{
glyphname = n;
kernLeft = KO_r;
kernRight = KO_n;
lastChange = "2025-01-03 22:26:37 +0000";
layers = (
{
anchors = (
{
name = bottom;
pos = (217,0);
},
{
name = top;
pos = (323,500);
}
);
hints = (
{
horizontal = 1;
place = (0,21);
target = up;
type = BottomGhost;
},
{
horizontal = 1;
place = (435,75);
type = Stem;
},
{
place = (7,95);
type = Stem;
},
{
place = (292,100);
type = Stem;
}
);
layerId = m005;
shapes = (
{
closed = 1;
nodes = (
(92,330,o),
(59,177,o),
(20,38,cs),
(11,7,o),
(37,-10,o),
(72,-10,cs),
(103,-10,o),
(137,7,o),
(140,38,cs),
(148,122,o),
(168,216,o),
(186,300,cs),
(200,368,o),
(272,435,o),
(329,435,cs),
(385,435,o),
(397,401,o),
(376,300,cs),
(358,216,o),
(338,122,o),
(310,38,cs),
(299,7,o),
(327,-10,o),
(362,-10,cs),
(393,-10,o),
(427,7,o),
(430,38,cs),
(438,122,o),
(458,216,o),
(476,300,cs),
(508,450,o),
(477,510,o),
(370,510,cs),
(281,510,o),
(221,445,o),
(206,445,cs),
(197,445,o),
(195,457,o),
(195,471,cs),
(194,492,o),
(187,503,o),
(163,503,cs),
(141,503,o),
(114,491,o),
(112,469,cs)
);
}
);
width = 540;
},
{
anchors = (
{
name = bottom;
pos = (217,0);
},
{
name = top;
pos = (323,500);
}
);
hints = (
{
horizontal = 1;
place = (0,21);
target = up;
type = BottomGhost;
},
{
horizontal = 1;
place = (435,75);
type = Stem;
},
{
place = (7,95);
type = Stem;
},
{
place = (292,100);
type = Stem;
}
);
layerId = m002;
shapes = (
{
closed = 1;
nodes = (
(33,289,o),
(17,214,o),
(-22,76,cs),
(-39,16,o),
(4,-25,o),
(69,-25,cs),
(134,-25,o),
(193,20,o),
(199,79,cs),
(206,160,o),
(210,180,o),
(228,264,cs),
(238,313,o),
(277,349,o),
(311,349,cs),
(330,349,o),
(332,328,o),
(318,264,cs),
(300,180,o),
(296,160,o),
(269,79,cs),
(249,20,o),
(290,-25,o),
(359,-25,cs),
(424,-25,o),
(483,20,o),
(489,79,cs),
(496,160,o),
(500,180,o),
(518,264,cs),
(555,438,o),
(512,524,o),
(373,524,cs),
(307,524,o),
(264,490,o),
(245,480,cs),
(226,470,o),
(217,475,o),
(215,487,cs),
(212,510,o),
(189,514,o),
(165,514,cs),
(113,514,o),
(59,478,o),
(53,426,cs)
);
}
);
width = 540;
},
{
anchors = (
{
name = bottom;
pos = (217,0);
},
{
name = top;
pos = (323,500);
}
);
hints = (
{
horizontal = 1;
place = (0,21);
target = up;
type = BottomGhost;
},
{
horizontal = 1;
place = (435,75);
type = Stem;
},
{
place = (7,95);
type = Stem;
},
{
place = (292,100);
type = Stem;
}
);
layerId = m003;
shapes = (
{
closed = 1;
nodes = (
(103,337,o),
(68,170,o),
(28,30,cs),
(21,6,o),
(40,-7,o),
(72,-7,cs),
(100,-7,o),
(126,5,o),
(128,30,cs),
(136,114,o),
(158,216,o),
(176,300,cs),
(191,372,o),
(269,452,o),
(333,452,cs),
(395,452,o),
(408,406,o),
(386,300,cs),
(368,216,o),
(346,114,o),
(318,30,cs),
(310,5,o),
(330,-7,o),
(362,-7,cs),
(390,-7,o),
(416,5,o),
(418,30,cs),
(426,114,o),
(448,216,o),
(466,300,cs),
(497,447,o),
(472,507,o),
(370,507,cs),
(282,507,o),
(230,442,o),
(206,442,cs),
(192,442,o),
(186,456,o),
(186,476,cs),
(186,494,o),
(182,500,o),
(162,500,cs),
(142,500,o),
(125,492,o),
(123,477,cs)
);
}
);
width = 540;
}
);
note = n;
unicode = 110;
userData = {
KernOnName = n;
};
},
{
glyphname = o;
kernLeft = KO_e;
kernRight = KO_o;
lastChange = "2025-01-03 22:26:37 +0000";
layers = (
{
anchors = (
{
name = bottom;
pos = (202,0);
},
{
name = center;
pos = (255,250);
},
{
name = ogonek;
pos = (400,10);
},
{
name = top;
pos = (308,500);
},
{
name = topright;
pos = (533,500);
}
);
hints = (
{
horizontal = 1;
place = (-10,80);
type = Stem;
},
{
horizontal = 1;
place = (440,70);
type = Stem;
},
{
place = (-13,100);
type = Stem;
},
{
place = (297,100);
type = Stem;
}
);
layerId = m005;
shapes = (
{
closed = 1;
nodes = (
(460,250,ls),
(482,355,o),
(470,510,o),
(310,510,cs),
(150,510,o),
(72,355,o),
(50,250,cs),
(45,225,ls),
(22,120,o),
(40,-10,o),
(200,-10,cs),
(360,-10,o),
(432,120,o),
(455,225,cs)
);
},
{
closed = 1;
nodes = (
(355,225,ls),
(342,167,o),
(308,75,o),
(218,75,cs),
(128,75,o),
(132,167,o),
(145,225,cs),
(150,250,ls),
(164,318,o),
(204,435,o),
(294,435,cs),
(384,435,o),
(374,318,o),
(360,250,cs)
);
}
);
width = 510;
},
{
anchors = (
{
name = bottom;
pos = (212,0);
},
{
name = center;
pos = (265,250);
},
{
name = ogonek;
pos = (410,10);
},
{
name = top;
pos = (318,500);
},
{
name = topright;
pos = (543,500);
}
);
hints = (
{
horizontal = 1;
place = (-10,80);
type = Stem;
},
{
horizontal = 1;
place = (440,70);
type = Stem;
},
{
place = (-13,100);
type = Stem;
},
{
place = (297,100);
type = Stem;
}
);
layerId = m002;
shapes = (
{
closed = 1;
nodes = (
(520,250,ls),
(545,367,o),
(524,525,o),
(323,525,cs),
(122,525,o),
(35,367,o),
(10,250,cs),
(5,225,ls),
(-13,143,o),
(7,-25,o),
(207,-25,cs),
(407,-25,o),
(497,143,o),
(515,225,cs)
);
},
{
closed = 1;
nodes = (
(315,225,ls),
(306,186,o),
(279,160,o),
(246,160,cs),
(213,160,o),
(196,186,o),
(205,225,cs),
(210,250,ls),
(224,314,o),
(251,350,o),
(286,350,cs),
(321,350,o),
(334,314,o),
(320,250,cs)
);
}
);
width = 530;
},
{
anchors = (
{
name = bottom;
pos = (202,0);
},
{
name = center;
pos = (255,250);
},
{
name = ogonek;
pos = (400,10);
},
{
name = top;
pos = (308,500);
},
{
name = topright;
pos = (533,500);
}
);
hints = (
{
horizontal = 1;
place = (-10,80);
type = Stem;
},
{
horizontal = 1;
place = (440,70);
type = Stem;
},
{
place = (-13,100);
type = Stem;
},
{
place = (297,100);
type = Stem;
}
);
layerId = m003;
shapes = (
{
closed = 1;
nodes = (
(450,250,ls),
(472,354,o),
(462,507,o),
(310,507,cs),
(158,507,o),
(82,354,o),
(60,250,cs),
(55,225,ls),
(33,122,o),
(47,-7,o),
(200,-7,cs),
(353,-7,o),
(423,122,o),
(445,225,cs)
);
},
{
closed = 1;
nodes = (
(365,225,ls),
(352,166,o),
(313,58,o),
(214,58,cs),
(115,58,o),
(122,166,o),
(135,225,cs),
(140,250,ls),
(155,319,o),
(199,452,o),
(298,452,cs),
(397,452,o),
(385,319,o),
(370,250,cs)
);
}
);
width = 510;
}
);
note = o;
unicode = 111;
userData = {
KernOnName = o;
};
},
{
glyphname = oslash;
kernLeft = KO_oslash;
lastChange = "2024-12-25 19:16:25 +0000";
layers = (
{
layerId = m005;
shapes = (
{
ref = o;
},
{
closed = 1;
nodes = (
(30,27,ls),
(44,13,o),
(63,12,o),
(76,27,cs),
(202,163,o),
(328,289,o),
(464,415,cs),
(479,428,o),
(478,457,o),
(464,471,cs),
(461,474,ls),
(447,488,o),
(429,478,o),
(415,464,cs),
(289,338,o),
(153,212,o),
(17,86,cs),
(2,73,o),
(13,44,o),
(27,30,cs)
);
}
);
width = 490;
},
{
layerId = m002;
shapes = (
{
ref = o;
},
{
closed = 1;
nodes = (
(12,9,ls),
(37,-15,o),
(72,-15,o),
(95,10,cs),
(220,146,o),
(326,269,o),
(481,396,cs),
(530,436,o),
(526,474,o),
(502,499,cs),
(499,502,ls),
(475,526,o),
(443,512,o),
(417,482,cs),
(324,375,o),
(166,230,o),
(0,105,cs),
(-28,84,o),
(-15,36,o),
(9,12,cs)
);
}
);
width = 530;
},
{
layerId = m003;
shapes = (
{
ref = o;
},
{
closed = 1;
nodes = (
(32,29,ls),
(45,16,o),
(62,15,o),
(74,29,cs),
(200,165,o),
(326,291,o),
(462,417,cs),
(475,429,o),
(475,455,o),
(462,469,cs),
(459,472,ls),
(446,485,o),
(430,475,o),
(417,462,cs),
(291,336,o),
(155,210,o),
(19,84,cs),
(6,72,o),
(16,46,o),
(29,32,cs)
);
}
);
width = 510;
}
);
unicode = 248;
},
{
glyphname = oe;
kernLeft = KO_e;
kernRight = KO_e;
lastChange = "2025-01-04 00:23:34 +0000";
layers = (
{
anchors = (
{
name = bottom;
pos = (397,0);
},
{
name = top;
pos = (397,500);
}
);
hints = (
{
horizontal = 1;
place = (-10,80);
type = Stem;
},
{
horizontal = 1;
place = (440,70);
type = Stem;
},
{
place = (523,100);
type = Stem;
},
{
place = (833,100);
type = Stem;
}
);
layerId = m005;
shapes = (
{
closed = 1;
nodes = (
(360,-10,o),
(412,120,o),
(435,225,cs),
(440,250,ls),
(462,355,o),
(470,510,o),
(310,510,cs),
(150,510,o),
(72,355,o),
(50,250,cs),
(45,225,ls),
(22,120,o),
(40,-10,o),
(200,-10,cs)
);
},
{
closed = 1;
nodes = (
(126,65,o),
(132,167,o),
(145,225,cs),
(150,250,ls),
(164,318,o),
(204,435,o),
(294,435,cs),
(384,435,o),
(374,318,o),
(360,250,cs),
(355,225,ls),
(342,167,o),
(306,65,o),
(216,65,cs)
);
},
{
pos = (310,0);
ref = e;
}
);
width = 793;
},
{
anchors = (
{
name = bottom;
pos = (408,0);
},
{
name = top;
pos = (408,500);
}
);
layerId = m002;
shapes = (
{
closed = 1;
nodes = (
(409,-25,o),
(477,144,o),
(495,225,cs),
(500,250,ls),
(516,326,o),
(527,525,o),
(323,525,cs),
(123,525,o),
(28,333,o),
(10,250,cs),
(5,225,ls),
(-13,142,o),
(8,-25,o),
(207,-25,cs)
);
},
{
closed = 1;
nodes = (
(199,150,o),
(201,210,o),
(205,225,cs),
(210,250,ls),
(223,309,o),
(243,350,o),
(286,350,cs),
(329,350,o),
(333,309,o),
(320,250,cs),
(315,225,ls),
(311,210,o),
(289,150,o),
(244,150,cs)
);
},
{
pos = (310,0);
ref = e;
}
);
width = 815;
},
{
anchors = (
{
name = bottom;
pos = (397,0);
},
{
name = top;
pos = (397,500);
}
);
layerId = m003;
shapes = (
{
closed = 1;
nodes = (
(361,-4,o),
(400,120,o),
(423,225,cs),
(428,250,ls),
(450,355,o),
(467,504,o),
(313,504,cs),
(157,504,o),
(82,353,o),
(60,250,cs),
(55,225,ls),
(33,122,o),
(49,-4,o),
(205,-4,cs)
);
},
{
closed = 1;
nodes = (
(122,59,o),
(130,167,o),
(143,225,cs),
(148,250,ls),
(162,318,o),
(204,441,o),
(300,441,cs),
(396,441,o),
(384,318,o),
(370,250,cs),
(365,225,ls),
(352,167,o),
(314,59,o),
(218,59,cs)
);
},
{
pos = (310,0);
ref = e;
}
);
width = 793;
}
);
metricLeft = "=o";
metricRight = "=e";
unicode = 339;
},
{
glyphname = p;
kernLeft = KO_r;
kernRight = KO_p;
lastChange = "2025-01-04 00:23:34 +0000";
layers = (
{
hints = (
{
horizontal = 1;
place = (-10,63);
type = Stem;
},
{
horizontal = 1;
place = (435,75);
type = Stem;
},
{
place = (28,95);
type = Stem;
},
{
place = (313,100);
type = Stem;
}
);
layerId = m005;
shapes = (
{
closed = 1;
nodes = (
(282,510,o),
(222,445,o),
(207,445,cs),
(198,445,o),
(195,457,o),
(195,471,cs),
(195,492,o),
(187,503,o),
(163,503,cs),
(141,503,o),
(115,491,o),
(112,469,cs),
(78,263,o),
(32,45,o),
(-22,-161,cs),
(-31,-192,o),
(-5,-210,o),
(26,-210,cs),
(59,-210,o),
(81,-192,o),
(88,-161,cs),
(120,-11,ls),
(121,-4,o),
(126,-1,o),
(132,-3,cs),
(146,-6,o),
(172,-10,o),
(205,-10,cs),
(365,-10,o),
(443,145,o),
(465,250,cs),
(471,275,ls),
(502,425,o),
(478,510,o),
(371,510,cs)
);
},
{
closed = 1;
nodes = (
(386,435,o),
(392,376,o),
(371,275,cs),
(365,250,ls),
(350,177,o),
(315,75,o),
(223,75,cs),
(188,75,o),
(161,80,o),
(149,83,cs),
(143,84,o),
(141,88,o),
(142,94,cs),
(186,300,ls),
(200,368,o),
(273,435,o),
(330,435,cs)
);
}
);
width = 516;
},
{
hints = (
{
horizontal = 1;
place = (-10,63);
type = Stem;
},
{
horizontal = 1;
place = (435,75);
type = Stem;
},
{
place = (28,95);
type = Stem;
},
{
place = (313,100);
type = Stem;
}
);
layerId = m002;
shapes = (
{
closed = 1;
nodes = (
(257,525,o),
(228,460,o),
(210,460,cs),
(199,460,o),
(199,473,o),
(197,488,cs),
(195,503,o),
(185,515,o),
(166,515,cs),
(119,515,o),
(62,481,o),
(53,429,cs),
(20,224,o),
(-11,81,o),
(-64,-123,cs),
(-81,-184,o),
(-36,-225,o),
(23,-225,cs),
(84,-225,o),
(133,-185,o),
(145,-126,cs),
(162,-49,ls),
(165,-33,o),
(176,-24,o),
(193,-25,cs),
(196,-25,o),
(199,-25,o),
(202,-25,cs),
(403,-25,o),
(498,168,o),
(515,250,cs),
(521,275,ls),
(549,408,o),
(518,525,o),
(374,525,cs)
);
},
{
closed = 1;
nodes = (
(332,350,o),
(333,333,o),
(321,275,cs),
(315,250,ls),
(308,215,o),
(289,160,o),
(241,160,cs),
(235,160,o),
(229,160,o),
(223,161,cs),
(212,161,o),
(208,171,o),
(212,186,cs),
(228,265,ls),
(239,314,o),
(278,350,o),
(312,350,cs)
);
}
);
width = 526;
},
{
hints = (
{
horizontal = 1;
place = (-10,63);
type = Stem;
},
{
horizontal = 1;
place = (435,75);
type = Stem;
},
{
place = (28,95);
type = Stem;
},
{
place = (313,100);
type = Stem;
}
);
layerId = m003;
shapes = (
{
closed = 1;
nodes = (
(282,507,o),
(230,442,o),
(206,442,cs),
(192,442,o),
(186,456,o),
(186,476,cs),
(186,494,o),
(182,500,o),
(162,500,cs),
(142,500,o),
(126,492,o),
(123,476,cs),
(90,270,o),
(40,38,o),
(-14,-169,cs),
(-21,-194,o),
(-1,-207,o),
(27,-207,cs),
(56,-207,o),
(71,-195,o),
(76,-168,cs),
(112,-2,ls),
(113,3,o),
(116,6,o),
(121,4,cs),
(137,-1,o),
(168,-7,o),
(206,-7,cs),
(358,-7,o),
(432,139,o),
(455,250,cs),
(461,275,ls),
(494,430,o),
(471,507,o),
(370,507,cs)
);
},
{
closed = 1;
nodes = (
(397,452,o),
(404,386,o),
(381,275,cs),
(375,250,ls),
(358,169,o),
(320,58,o),
(219,58,cs),
(181,58,o),
(150,64,o),
(133,69,cs),
(129,70,o),
(128,73,o),
(128,77,cs),
(177,307,ls),
(193,379,o),
(269,452,o),
(333,452,cs)
);
}
);
width = 516;
}
);
metricLeft = "=n";
metricRight = "=o";
note = p;
unicode = 112;
userData = {
KernOnName = p;
};
},
{
glyphname = thorn;
lastChange = "2025-01-04 00:23:34 +0000";
layers = (
{
hints = (
{
horizontal = 1;
place = (-10,70);
type = Stem;
},
{
horizontal = 1;
place = (430,80);
type = Stem;
},
{
place = (7,95);
type = Stem;
},
{
place = (292,100);
type = Stem;
},
{
horizontal = 1;
place = (0,21);
target = up;
type = BottomGhost;
}
);
layerId = m005;
shapes = (
{
closed = 1;
nodes = (
(20,-200,ls),
(51,-200,o),
(73,-182,o),
(80,-151,cs),
(108,-17,ls),
(110,-11,o),
(114,-7,o),
(120,-7,cs),
(141,-9,o),
(165,-10,o),
(195,-10,cs),
(355,-10,o),
(422,95,o),
(444,200,cs),
(466,300,ls),
(498,450,o),
(467,510,o),
(360,510,cs),
(271,510,o),
(229,461,o),
(220,461,cs),
(211,461,o),
(212,469,o),
(218,500,cs),
(250,651,ls),
(257,682,o),
(243,700,o),
(212,700,cs),
(210,700,ls),
(179,700,o),
(157,682,o),
(150,651,cs),
(-20,-151,ls),
(-27,-182,o),
(-13,-200,o),
(18,-200,cs)
);
},
{
closed = 1;
nodes = (
(163,60,o),
(132,69,o),
(127,70,cs),
(127,70,o),
(127,73,o),
(129,79,cs),
(176,300,ls),
(190,368,o),
(262,435,o),
(319,435,cs),
(375,435,o),
(387,401,o),
(366,300,cs),
(344,200,ls),
(329,127,o),
(302,60,o),
(210,60,cs)
);
}
);
width = 505;
},
{
hints = (
{
horizontal = 1;
place = (-10,70);
type = Stem;
},
{
horizontal = 1;
place = (430,80);
type = Stem;
},
{
place = (7,95);
type = Stem;
},
{
place = (292,100);
type = Stem;
},
{
horizontal = 1;
place = (0,21);
target = up;
type = BottomGhost;
}
);
layerId = m002;
shapes = (
{
closed = 1;
nodes = (
(17,-215,ls),
(76,-215,o),
(125,-175,o),
(137,-116,cs),
(155,-34,ls),
(156,-28,o),
(161,-24,o),
(167,-25,cs),
(175,-25,o),
(183,-25,o),
(192,-25,cs),
(389,-25,o),
(476,114,o),
(502,235,cs),
(508,265,ls),
(545,439,o),
(502,525,o),
(363,525,cs),
(324,525,o),
(294,514,o),
(284,507,cs),
(272,500,o),
(270,510,o),
(273,525,cs),
(293,616,ls),
(305,675,o),
(274,715,o),
(215,715,cs),
(213,715,ls),
(154,715,o),
(105,675,o),
(93,616,cs),
(-63,-116,ls),
(-75,-175,o),
(-44,-215,o),
(15,-215,cs)
);
},
{
closed = 1;
nodes = (
(218,145,o),
(209,146,o),
(201,146,cs),
(196,147,o),
(194,151,o),
(195,157,cs),
(218,265,ls),
(227,307,o),
(274,350,o),
(301,350,cs),
(321,350,o),
(325,345,o),
(308,265,cs),
(302,235,ls),
(288,171,o),
(277,145,o),
(228,145,cs)
);
}
);
width = 515;
},
{
hints = (
{
horizontal = 1;
place = (-10,70);
type = Stem;
},
{
horizontal = 1;
place = (430,80);
type = Stem;
},
{
place = (7,95);
type = Stem;
},
{
place = (292,100);
type = Stem;
},
{
horizontal = 1;
place = (0,21);
target = up;
type = BottomGhost;
}
);
layerId = m003;
shapes = (
{
closed = 1;
nodes = (
(26,-204,ls),
(55,-204,o),
(76,-187,o),
(82,-158,cs),
(114,-11,ls),
(114,-7,o),
(118,-4,o),
(122,-4,cs),
(145,-5,o),
(169,-7,o),
(202,-7,cs),
(360,-7,o),
(426,96,o),
(448,200,cs),
(470,300,ls),
(501,449,o),
(472,507,o),
(367,507,cs),
(279,507,o),
(237,458,o),
(226,458,cs),
(214,458,o),
(216,469,o),
(222,500,cs),
(256,658,ls),
(262,687,o),
(249,704,o),
(220,704,cs),
(218,704,ls),
(189,704,o),
(168,687,o),
(162,658,cs),
(-12,-158,ls),
(-18,-187,o),
(-5,-204,o),
(24,-204,cs)
);
},
{
closed = 1;
nodes = (
(181,57,o),
(151,62,o),
(133,67,cs),
(131,68,o),
(131,70,o),
(132,74,cs),
(180,300,ls),
(195,370,o),
(268,438,o),
(327,438,cs),
(385,438,o),
(397,402,o),
(376,300,cs),
(354,200,ls),
(339,127,o),
(310,57,o),
(216,57,cs)
);
}
);
width = 519;
}
);
metricLeft = "=n";
metricRight = "=o";
note = b;
unicode = 254;
},
{
glyphname = q;
kernLeft = KO_a;
kernRight = KO_g;
lastChange = "2025-01-04 00:23:34 +0000";
layers = (
{
hints = (
{
horizontal = 1;
place = (-10,80);
type = Stem;
},
{
horizontal = 1;
place = (435,75);
type = Stem;
},
{
place = (8,100);
type = Stem;
},
{
place = (298,95);
type = Stem;
}
);
layerId = m005;
shapes = (
{
closed = 1;
nodes = (
(234,-10,o),
(276,39,o),
(285,39,cs),
(294,39,o),
(294,31,o),
(287,0,cs),
(276,-50,o),
(264,-111,o),
(243,-161,cs),
(231,-191,o),
(260,-210,o),
(293,-210,cs),
(324,-210,o),
(358,-192,o),
(363,-161,cs),
(394,32,o),
(437,236,o),
(488,429,cs),
(495,457,o),
(476,475,o),
(452,485,cs),
(416,499,o),
(375,510,o),
(311,510,cs),
(151,510,o),
(73,355,o),
(50,250,cs),
(45,225,ls),
(13,75,o),
(38,-10,o),
(145,-10,cs)
);
},
{
closed = 1;
nodes = (
(130,65,o),
(123,124,o),
(145,225,cs),
(150,250,ls),
(166,323,o),
(203,435,o),
(295,435,cs),
(331,435,o),
(364,430,o),
(379,427,cs),
(385,426,o),
(387,422,o),
(385,416,cs),
(365,344,o),
(345,272,o),
(330,200,cs),
(315,132,o),
(243,65,o),
(186,65,cs)
);
}
);
width = 515;
},
{
hints = (
{
horizontal = 1;
place = (-10,80);
type = Stem;
},
{
horizontal = 1;
place = (435,75);
type = Stem;
},
{
place = (8,100);
type = Stem;
},
{
place = (298,95);
type = Stem;
}
);
layerId = m002;
shapes = (
{
closed = 1;
nodes = (
(177,-25,o),
(199,-23,o),
(215,-19,cs),
(239,-13,o),
(242,-25,o),
(238,-43,cs),
(235,-57,o),
(232,-71,o),
(213,-116,cs),
(187,-181,o),
(238,-225,o),
(300,-225,cs),
(359,-225,o),
(422,-184,o),
(431,-123,cs),
(462,68,o),
(490,200,o),
(540,392,cs),
(553,443,o),
(525,479,o),
(482,497,cs),
(444,512,o),
(395,525,o),
(324,525,cs),
(123,525,o),
(35,367,o),
(10,250,cs),
(5,225,ls),
(-31,57,o),
(8,-25,o),
(152,-25,cs)
);
},
{
closed = 1;
nodes = (
(194,150,o),
(193,167,o),
(205,225,cs),
(210,250,ls),
(218,285,o),
(240,350,o),
(287,350,cs),
(294,350,o),
(301,350,o),
(307,349,cs),
(321,349,o),
(325,339,o),
(321,322,cs),
(308,279,o),
(303,257,o),
(297,235,cs),
(285,186,o),
(248,150,o),
(214,150,cs)
);
}
);
width = 525;
},
{
hints = (
{
horizontal = 1;
place = (-10,80);
type = Stem;
},
{
horizontal = 1;
place = (435,75);
type = Stem;
},
{
place = (8,100);
type = Stem;
},
{
place = (298,95);
type = Stem;
}
);
layerId = m003;
shapes = (
{
closed = 1;
nodes = (
(229,-7,o),
(272,42,o),
(286,42,cs),
(302,42,o),
(304,32,o),
(296,-7,cs),
(285,-57,o),
(272,-119,o),
(251,-170,cs),
(241,-193,o),
(264,-207,o),
(294,-207,cs),
(322,-207,o),
(348,-194,o),
(351,-169,cs),
(382,25,o),
(429,243,o),
(480,436,cs),
(486,459,o),
(471,473,o),
(449,483,cs),
(413,496,o),
(373,507,o),
(310,507,cs),
(158,507,o),
(82,354,o),
(60,250,cs),
(55,225,ls),
(23,77,o),
(45,-7,o),
(146,-7,cs)
);
},
{
closed = 1;
nodes = (
(118,48,o),
(113,121,o),
(135,225,cs),
(140,250,ls),
(156,324,o),
(196,452,o),
(298,452,cs),
(335,452,o),
(373,446,o),
(396,441,cs),
(400,440,o),
(401,438,o),
(400,433,cs),
(378,357,o),
(356,275,o),
(340,200,cs),
(324,128,o),
(246,48,o),
(182,48,cs)
);
}
);
width = 516;
}
);
metricLeft = "=o";
metricRight = "=|n";
note = q;
unicode = 113;
},
